<svg xmlns="http://www.w3.org/2000/svg" xmlns:xlink="http://www.w3.org/1999/xlink" width="27.482" height="26.159" viewBox="0 0 27.482 26.159"><defs><clipPath id="a"><rect width="27.482" height="26.159" fill="none"/></clipPath><clipPath id="b"><rect width="27.481" height="26.159" transform="translate(0 0)" fill="none"/></clipPath></defs><g clip-path="url(#a)"><g clip-path="url(#b)"><g opacity="0.5"><g clip-path="url(#a)"><path d="M18,7.461c.281.005.53.008.779.015.342.008.345.013.423.405l1.229.022,1.195.021.239.37,1.435.168a.367.367,0,0,0,.4.3c.9,0,1.792.026,2.688.042l.5.009a1.076,1.076,0,0,1,.127.2,2.32,2.32,0,0,0,.4.826c.176.194-.041.286-.021.425-.283.036-.318.329-.491.482a14.021,14.021,0,0,0-1.07,1.041c-.114.125-.314.12-.372.329-.05.175-.3.2-.4.369a.733.733,0,0,1-.4.318c-.05.314-.4.363-.546.6a4.132,4.132,0,0,1-.413.414c-.153.174-.331.326-.5.487l-.465.45c-.275.265-.538.544-.828.791-.24.2-.488.43-.871.313-.014.8-.027,1.577-.041,2.374l.367.175c-.013.728-.026,1.47-.039,2.206a2.683,2.683,0,0,1,.319.12c.13.07.081.2.08.312-.006.515-.017,1.029-.026,1.539l.394.312c-.013.72-.025,1.417-.037,2.106l.3.2c-.011.06-.005.1-.023.12-.26.257-.52.513-.788.761-.118.109-.169.083-.305-.091-.069-.088-.138-.175-.28-.162a4.745,4.745,0,0,1-.491,0c-.06-.32.065-.637-.1-.922a.184.184,0,0,1,0-.147c.194-.369.061-.77.125-1.125l-.584-.6c-.279-.005-.595,0-.909-.02a.826.826,0,0,0-.564.2,8.366,8.366,0,0,1-.738.511.7.7,0,0,1-.764-.08c-.185-.125-.3-.345-.583-.292-.068.012-.172-.074-.233-.139-.159-.171-.4-.188-.567-.305a4.385,4.385,0,0,1-.556-.346c-.4,0-.606-.454-1.013-.44l-.384-.4-.5-.008c-.194.168-.358.4-.677.393-.107,0-.214.116-.322.176a1.584,1.584,0,0,1-.368.193.977.977,0,0,0-.461.215.411.411,0,0,1-.116.079,2.78,2.78,0,0,0-.6.235,1.756,1.756,0,0,1-.589.272c-.143.036-.251.194-.392.258a4.9,4.9,0,0,0-.6.217,1.179,1.179,0,0,1-.59.274A.547.547,0,0,0,8.1,24.2a.826.826,0,0,1-.459.223.691.691,0,0,0-.332.152,1.1,1.1,0,0,1-.5.236.907.907,0,0,0-.474.3,1.252,1.252,0,0,1-.8.489c-.111.013-.214.125-.315.2a.229.229,0,0,1-.341-.014c-.114-.12-.23-.239-.367-.381.013-.721.023-1.465.043-2.209a.673.673,0,0,1,.085-.262c.252-.509.413-1.058.691-1.556a.623.623,0,0,0,.052-.277c.011-.348.013-.7.021-1.045a.729.729,0,0,1,.088-.314c.112-.234.333-.411.356-.7.007-.084.182-.166.292-.229a1.338,1.338,0,0,1,.766-.189c.132.009.266,0,.4.01a1.217,1.217,0,0,0,.945-.361c.126-.109.24-.23.37-.355,0-.3.011-.61.016-.917a.886.886,0,0,0-.594-.151c-.646-.006-1.292-.021-1.923-.032l-.256-.252c.005-.3.011-.6.016-.924l-.523-.009L1.54,11.678a6.506,6.506,0,0,0-.734-.741c-.248-.186-.354-.505-.668-.63-.082-.033-.115-.245-.13-.38a4.437,4.437,0,0,1,0-.552,7.666,7.666,0,0,1,.923-.794A1.249,1.249,0,0,1,1.6,8.367c.263.008.527.01.808.015,0-.125,0-.236.006-.335.029-.025.04-.038.054-.047a.1.1,0,0,1,.043-.014l2.7.047c0-.131,0-.242.006-.363a.789.789,0,0,1,.149-.032c.78.012,1.56.027,2.34.04A.475.475,0,0,0,8.1,7.564.716.716,0,0,1,8.527,7.4a1.97,1.97,0,0,0,1.3-.884,5.525,5.525,0,0,0,.39-.737.945.945,0,0,0,.253-.6c-.011-.149.186-.309.28-.47.209-.36.41-.724.612-1.087a3.637,3.637,0,0,1,.469-.648,3.27,3.27,0,0,0,.361-.647c.229-.406.244-.892.51-1.284.184-.271.264-.6.544-.819A.872.872,0,0,1,14.268.118c.068.037.134.1.2.1.273.017.35.213.4.424a4.055,4.055,0,0,0,.217.458c.165.466.472.864.6,1.349.048.184.221.327.287.528a3.888,3.888,0,0,0,.355.7,5.3,5.3,0,0,0,.31.668c.153.2.162.461.3.674a1.142,1.142,0,0,1,.276.631c.248.256.273.634.46.9a1.663,1.663,0,0,1,.322.9M11.42,17.806c-.128-.125-.128-.125-.317-.006l.218,0a.246.246,0,0,0,.3.2c.1.185.253.077.4.106-.013-.316-.21-.305-.4-.305l-.2,0m3.248,2.249-.083.031.082.069c0,.225-.008.45-.012.662.274.13.361-.1.5-.208,0-.114.008-.229.005-.343-.008-.316-.182-.39-.494-.211M9.682,14.687l-.1.1c-.007.363-.019.725-.018,1.088a.476.476,0,0,0,.519.507,1.316,1.316,0,0,0,.416-.185.189.189,0,0,0,.053-.118c-.174-.113.008-.214.014-.317a.92.92,0,0,0-.294-.821,3,3,0,0,1-.234-.246l-.355-.006m-2.3-3.428c-.083.126-.16.225-.218.334-.05.094-.071.2-.122.3a1.338,1.338,0,0,1-.209.308.508.508,0,0,0-.018.787,1.035,1.035,0,0,1,.1.2,2.04,2.04,0,0,0,1.026.95,2.747,2.747,0,0,0,.951.246A1.172,1.172,0,0,0,9.9,13.371a2.856,2.856,0,0,1,.1-.805,1.279,1.279,0,0,0,.1-.835.549.549,0,0,1-.166-.075,1.237,1.237,0,0,0-.991-.376c-.512.02-1.025-.011-1.572-.021m6.492-5.873a.973.973,0,0,0,.77-.169,1.046,1.046,0,0,0,.3-1.255.3.3,0,0,0-.286-.151C14.328,3.82,14,3.8,13.762,3.8l-.3.34a.509.509,0,0,0,0,.819c.132.148.275.286.411.427m5.447,9.244c-.079-.331-.34-.487-.532-.7a.348.348,0,0,0-.433-.026c-.116.087-.229.178-.344.267a.787.787,0,0,0,.4.762.892.892,0,0,0,.911-.3M8.2,21.043c-.078.209-.159.422-.234.637a.207.207,0,0,0,0,.145c.082.148.175.291.266.434a.387.387,0,0,0,.057.061l.483.008a5.192,5.192,0,0,0,.086-.6c.011-.44-.168-.621-.656-.683" fill="#333"/><path d="M11.42,17.806l-.1,0-.217,0c.188-.119.188-.119.317.006" fill="#333"/><path d="M9.682,14.687l-.1.1.1-.1" fill="#333"/><path d="M14.668,20.055c0,.033,0,.066,0,.1l-.081-.069.083-.031" fill="#333"/></g></g></g></g></svg>