<svg xmlns="http://www.w3.org/2000/svg" xmlns:xlink="http://www.w3.org/1999/xlink" width="104.021" height="27.516" viewBox="0 0 104.021 27.516"><defs><clipPath id="a"><rect width="104.021" height="27.516" fill="none"/></clipPath><clipPath id="b"><rect width="104.021" height="27.516" transform="translate(0 0)" fill="none"/></clipPath><clipPath id="c"><rect width="27.482" height="26.159" transform="translate(0 1.357)" fill="none"/></clipPath><clipPath id="d"><rect width="29.138" height="27.516" transform="translate(37.038)" fill="none"/></clipPath><clipPath id="e"><rect width="29.094" height="27.274" transform="translate(74.927 0.242)" fill="none"/></clipPath></defs><g clip-path="url(#a)"><g clip-path="url(#b)"><g opacity="0.5"><g clip-path="url(#c)"><path d="M18,8.818c.281.005.53.008.779.015.342.008.345.013.423.4l1.229.022,1.195.021.239.37,1.435.168a.367.367,0,0,0,.4.3c.9,0,1.792.026,2.688.042l.5.009a1.076,1.076,0,0,1,.127.205,2.32,2.32,0,0,0,.4.826c.176.194-.041.286-.021.425-.283.036-.318.329-.491.482a14.021,14.021,0,0,0-1.07,1.041c-.114.125-.314.12-.372.329-.05.175-.3.2-.4.369a.733.733,0,0,1-.4.318c-.05.314-.4.363-.546.6a4.132,4.132,0,0,1-.413.414c-.153.174-.331.326-.5.487l-.465.45c-.275.265-.538.544-.828.791-.24.2-.488.43-.871.313-.014.8-.027,1.577-.041,2.374l.367.175c-.013.728-.026,1.47-.039,2.206a2.682,2.682,0,0,1,.319.12c.13.07.081.2.08.312-.006.515-.017,1.029-.026,1.539l.394.312c-.013.72-.025,1.417-.037,2.106l.3.2c-.011.06-.005.1-.023.12-.26.257-.52.513-.788.761-.118.109-.169.083-.305-.091-.069-.088-.138-.175-.28-.162a4.745,4.745,0,0,1-.491,0c-.06-.32.065-.637-.1-.922a.184.184,0,0,1,0-.147c.194-.369.061-.77.125-1.125l-.584-.605c-.279,0-.595,0-.909-.02a.826.826,0,0,0-.564.2,8.366,8.366,0,0,1-.738.511.7.7,0,0,1-.764-.08c-.185-.125-.3-.345-.583-.292-.068.012-.172-.074-.233-.139-.159-.171-.4-.188-.567-.305a4.385,4.385,0,0,1-.556-.346c-.4,0-.606-.454-1.013-.44l-.384-.4-.5-.008c-.194.168-.358.4-.677.393-.107,0-.214.116-.322.176a1.584,1.584,0,0,1-.368.193.977.977,0,0,0-.461.215.411.411,0,0,1-.116.079,2.78,2.78,0,0,0-.6.235,1.756,1.756,0,0,1-.589.272c-.143.036-.251.194-.392.258a4.9,4.9,0,0,0-.6.217,1.179,1.179,0,0,1-.59.274.547.547,0,0,0-.278.161.826.826,0,0,1-.459.223.691.691,0,0,0-.332.152,1.1,1.1,0,0,1-.5.236.907.907,0,0,0-.474.3,1.252,1.252,0,0,1-.8.489c-.111.013-.214.125-.315.2a.229.229,0,0,1-.341-.014c-.114-.12-.23-.239-.367-.381.013-.721.023-1.465.043-2.209a.673.673,0,0,1,.085-.262c.252-.509.413-1.058.691-1.556a.623.623,0,0,0,.052-.277c.011-.348.013-.7.021-1.045a.729.729,0,0,1,.088-.314c.112-.234.333-.411.356-.7.007-.084.182-.166.292-.229a1.338,1.338,0,0,1,.766-.189c.132.009.266,0,.4.01a1.217,1.217,0,0,0,.945-.361c.126-.109.24-.23.37-.355,0-.3.011-.61.016-.917a.886.886,0,0,0-.594-.151c-.646-.006-1.292-.021-1.923-.032l-.256-.252c.005-.3.011-.6.016-.924l-.523-.009L1.54,13.035a6.506,6.506,0,0,0-.734-.741c-.248-.186-.354-.505-.668-.63-.082-.033-.115-.245-.13-.38a4.437,4.437,0,0,1,0-.552,7.666,7.666,0,0,1,.923-.794A1.249,1.249,0,0,1,1.6,9.724c.263.008.527.01.808.015,0-.125,0-.236.006-.335.029-.025.04-.038.054-.047a.1.1,0,0,1,.043-.014l2.7.047c0-.131,0-.242.006-.363a.789.789,0,0,1,.149-.032c.78.012,1.56.027,2.34.04A.475.475,0,0,0,8.1,8.921a.716.716,0,0,1,.423-.164,1.97,1.97,0,0,0,1.3-.884,5.525,5.525,0,0,0,.39-.737.945.945,0,0,0,.253-.6c-.011-.149.186-.309.28-.47.209-.36.41-.724.612-1.087a3.637,3.637,0,0,1,.469-.648,3.27,3.27,0,0,0,.361-.647c.229-.406.244-.892.51-1.284.184-.271.264-.605.544-.819a.872.872,0,0,1,1.018-.106c.068.037.134.1.2.1.273.017.35.213.4.424a4.055,4.055,0,0,0,.217.458c.165.466.472.864.6,1.349.048.184.221.327.287.528a3.888,3.888,0,0,0,.355.7,5.3,5.3,0,0,0,.31.668c.153.2.162.461.3.674a1.142,1.142,0,0,1,.276.631c.248.256.273.634.46.9a1.663,1.663,0,0,1,.322.9M11.42,19.163c-.128-.125-.128-.125-.317-.006l.218,0a.246.246,0,0,0,.3.2c.1.185.253.077.4.106-.013-.316-.21-.305-.4-.305l-.2,0m3.248,2.249-.083.031.082.069c0,.225-.008.45-.012.662.274.13.361-.1.5-.208,0-.114.008-.229.005-.343-.008-.316-.182-.39-.494-.211M9.682,16.044l-.1.1c-.007.363-.019.725-.018,1.088a.476.476,0,0,0,.519.507,1.316,1.316,0,0,0,.416-.185.189.189,0,0,0,.053-.118c-.174-.113.008-.214.014-.317a.92.92,0,0,0-.294-.821,3,3,0,0,1-.234-.246l-.355-.006m-2.3-3.428c-.083.126-.16.225-.218.334-.05.094-.071.2-.122.3a1.338,1.338,0,0,1-.209.308.508.508,0,0,0-.018.787,1.035,1.035,0,0,1,.1.2,2.04,2.04,0,0,0,1.026.95,2.747,2.747,0,0,0,.951.246A1.172,1.172,0,0,0,9.9,14.728a2.856,2.856,0,0,1,.1-.8,1.279,1.279,0,0,0,.1-.835.549.549,0,0,1-.166-.075,1.237,1.237,0,0,0-.991-.376c-.512.02-1.025-.011-1.572-.021m6.492-5.873a.973.973,0,0,0,.77-.169,1.046,1.046,0,0,0,.3-1.255.3.3,0,0,0-.286-.151c-.326.009-.653-.007-.892-.011l-.3.34a.509.509,0,0,0,0,.819c.132.148.275.286.411.427m5.447,9.244c-.079-.331-.34-.487-.532-.7a.348.348,0,0,0-.433-.026c-.116.087-.229.178-.344.267a.787.787,0,0,0,.4.762.892.892,0,0,0,.911-.3M8.2,22.4c-.078.209-.159.422-.234.637a.207.207,0,0,0,0,.145c.082.148.175.291.266.434a.387.387,0,0,0,.057.061l.483.008a5.192,5.192,0,0,0,.086-.6c.011-.44-.168-.621-.656-.683" fill="#333"/><path d="M11.42,19.163l-.1,0-.217,0c.188-.119.188-.119.317.006" fill="#333"/><path d="M9.682,16.044l-.1.1.1-.1" fill="#333"/><path d="M14.668,21.412c0,.033,0,.066,0,.1l-.081-.069.083-.031" fill="#333"/></g></g><g opacity="0.5"><g clip-path="url(#d)"><path d="M66.075,10.7a15.921,15.921,0,0,1-1.844,1.763c-.152.119-.18.378-.432.389-.059.283-.348.366-.508.567a7,7,0,0,1-.681.61c-.152.145-.221.381-.469.42a.6.6,0,0,1-.339.37c-.126.068-.193.237-.3.344q-.835.818-1.681,1.625a1.1,1.1,0,0,1-.91.372c-.014.773-.027,1.547-.042,2.346l.364.174c-.013.727-.026,1.468-.039,2.195.131.06.272.085.344.17a.523.523,0,0,1,.056.318c0,.512-.016,1.024-.024,1.5l.391.307c-.012.716-.024,1.412-.037,2.11a.537.537,0,0,1,.394.628,4.506,4.506,0,0,0-.015.61l-.968-.017a.79.79,0,0,0-.52-.339.7.7,0,0,1-.506-.327c-.1-.162-.4-.112-.379-.385l-.466-.334.872-.724c0-.23.008-.441.012-.665L57.009,24.7a1.339,1.339,0,0,0-.146.233c-.087.221-.162.5-.416.527a1.062,1.062,0,0,1-.957-.209,1.4,1.4,0,0,0-.412-.2c-.084-.038-.206-.046-.249-.109-.176-.262-.5-.242-.724-.421a2.573,2.573,0,0,0-.7-.341c-.2-.079-.352-.277-.552-.341a1.456,1.456,0,0,1-.576-.3,1.1,1.1,0,0,0-.337-.14c-.1-.04-.242-.054-.29-.128-.209-.32-.517-.3-.831-.29,0-.258.009-.516.013-.776l-.408-.008c.026.274-.029.528.018.777l.277,0c0,.1,0,.2-.005.3-.044.032-.083.083-.132.093a1.83,1.83,0,0,0-.372.059c-.307.142-.6.316-.917.436-.224.083-.419.245-.667.316-.2.058-.363.261-.565.319a1.381,1.381,0,0,0-.585.279.588.588,0,0,1-.294.124.93.93,0,0,0-.462.215.7.7,0,0,1-.326.167,1.2,1.2,0,0,0-.465.207,4.076,4.076,0,0,1-.422.184,1.4,1.4,0,0,0-.329.162,1.087,1.087,0,0,1-.506.234,1.065,1.065,0,0,0-.431.277c-.252.219-.457.5-.839.513a.225.225,0,0,0-.119.07,1.542,1.542,0,0,1-1.306.264c.005-.262.026-.524.009-.784-.014-.23.052-.372.287-.424.041-.01.072-.066.125-.118.013-.724.026-1.466.039-2.2.38-.078.4-.095.406-.419.012-.515.019-1.029.028-1.549a1.949,1.949,0,0,0,.334-.136c.14-.088.065-.244.07-.367.018-.5.033-1,.026-1.493a1,1,0,0,1,.844-.83c.449,0,.665-.126.764-.566a.688.688,0,0,1,.61-.605c.174-.032.182-.074.2-.375l-1.167-.02c.036.359-.244.548-.472.772l-.3-.005c-.011-.011-.033-.022-.033-.034,0-.377.012-.754.019-1.148l-.551-.01c-1.711-1.773-3.4-3.531-5.1-5.281a3.887,3.887,0,0,0-1.073-.958c.069-.094.1-.188.163-.211a1.705,1.705,0,0,0,.66-.566.57.57,0,0,1,.491-.256c.63.013,1.26.023,1.92.034.012-.124.024-.248.039-.388l2.768.049c0-.141,0-.264.007-.4l2.777.049c0-.128,0-.24.007-.387.191,0,.368-.006.544-.005s.332.007.5.007c.3,0,.4-.1.486-.411.059-.206.1-.417.182-.621s.335-.212.332-.451c0-.22.156-.365.286-.529a.743.743,0,0,0,.127-.544.805.805,0,0,1,.288-.728.4.4,0,0,0,.123-.146,5.623,5.623,0,0,1,1.04-1.654.762.762,0,0,0,.2-.518,3.333,3.333,0,0,1,.011-.447c.008-.073.04-.178.093-.2A.542.542,0,0,0,50.4,1.8a.306.306,0,0,1,.107-.2,1.008,1.008,0,0,0,.3-.941c.155-.406.73-.211.846-.664l.32.006a1.094,1.094,0,0,0,.14.232.971.971,0,0,1,.284.779.639.639,0,0,0,.174.532,1.488,1.488,0,0,1,.207.506c.005.014-.007.041,0,.048.3.26.3.681.514.985.019.026.055.046.062.074.116.484.465.866.585,1.353a4.7,4.7,0,0,0,.3.574,6.376,6.376,0,0,0,.342.656,4.178,4.178,0,0,0,.309.67c.155.2.167.46.3.673a1.387,1.387,0,0,1,.282.631.187.187,0,0,0,.063.121,1.208,1.208,0,0,1,.339.888c.257,0,.519.007.78.014.327.009.342.025.42.405.807.015,1.617.026,2.428.045.261.006.275.029.333.4l1.071.019c.448.007.9.013,1.344.024.3.008.305.019.377.4.67.012,1.347.017,2.023.041a3.241,3.241,0,0,1,.554.106.157.157,0,0,1,.079.047c.108.115.131.353.381.258.136.135.278-.014.416.008,0,.066,0,.133,0,.2M53.3,6.291c-.033-.033-.066-.067-.1-.1a.816.816,0,0,0-.49.13c0,.244-.008.487-.013.739l1.2.021c-.028-.112-.023-.225-.077-.284-.163-.18-.349-.338-.526-.505M46.16,15.829l.3,0,.1-.1a1.094,1.094,0,0,0,.375-1.174l-1.523-.027c-.091.195-.225.371-.037.567s.391.416.59.621c.016.017.064,0,.1,0,.032.034.065.067.1.1m4.51-7.184c-.006.34-.011.638-.017.968l-.788.759c0,.219-.007.429-.011.626l1.571.028c0-.128.005-.242.006-.355,0-.372,0-.372-.424-.486.047-.1.067-.248.14-.283a3.613,3.613,0,0,0,.691-.58c0-.225.008-.437.012-.656l-1.18-.021m5.478,5.286-.789-.014c-.014.776-.027,1.536-.04,2.3a.083.083,0,0,0,.015.043c.009.014.023.024.016.018l.756.013c.014-.791.028-1.565.042-2.355M45.4,12.916c.009-.549.018-1.059.028-1.583l-1.7-.029a.068.068,0,0,0-.041.019.156.156,0,0,0-.027.034l.554.573a1.06,1.06,0,0,1,.441.973l.749.013m-.144,10.125c0,.208-.008.418-.012.642.213,0,.409.009.6.011s.384,0,.574,0c.009-.534.018-1.029.025-1.525,0-.012-.018-.025-.032-.042-.3-.056-.542-.027-.691.326a2.73,2.73,0,0,1-.469.59m7.311-8.394c.19,0,.339-.006.485.011a.626.626,0,0,0,.518-.168.554.554,0,0,0,.172-.6l-1.161-.02c0,.26-.009.5-.014.779m-3.848,1.518c-.227-.263-.4-.469-.579-.669a.441.441,0,0,0-.6-.144.389.389,0,0,1-.155.024c-.005.273-.009.516-.014.765l1.35.024m2.793-9.92a3.847,3.847,0,0,0,.779.012c.005-.28.01-.524.014-.782-.272.005-.528-.023-.779,0,0,.272-.009.5-.014.769m6.683,6.119c0,.151-.006.294-.008.455.1.1.211.218.316.325l.439.007c0-.267.009-.521.013-.773l-.76-.014M54.624,9.918l-.365-.006q-.01.608-.021,1.161l.366.006c.007-.392.013-.767.02-1.161M52.865,20.639c-.005.284-.009.527-.014.79l.367-.011c.005-.278.01-.521.014-.773l-.367-.006" fill="#333"/><path d="M50.71,23.281c0-.1,0-.2.005-.3l.1,0c-.04.1.088.254-.1.3" fill="#333"/><path d="M66.075,10.7c0-.066,0-.133,0-.2.032.042.064.084.1.125l-.1.074" fill="#333"/><path d="M53.3,6.291c-.033-.034-.065-.068-.1-.1.033.033.065.067.1.1" fill="#333"/><path d="M46.062,15.727c.033.034.065.068.1.1-.033-.033-.065-.067-.1-.1" fill="#333"/><path d="M46.458,15.834l.1-.1-.1.1" fill="#333"/></g></g><g opacity="0.5"><g clip-path="url(#e)"><path d="M101.631,10.035l.013.36c.032.015.059.039.087.039.713.016,1.427.028,2.141.04.064,0,.141-.013.149.077a.19.19,0,0,1-.053.125c-.09.1-.189.185-.285.278q-3.009,2.905-6.014,5.813c-.259.252-.5.469-.914.339-.014.8-.028,1.577-.042,2.377.083.1.233-.012.363.063-.013.765-.027,1.54-.04,2.3.121.126.272.018.411.108-.009.544-.02,1.1-.028,1.665,0,.135-.041.253.164.336.186.076.226.323.22.543-.015.531-.02,1.062-.031,1.593,0,.117,0,.188.151.243a.35.35,0,0,1,.238.387c-.012.062.014.127-.046.182-.194.181-.371.383-.579.546a.291.291,0,0,1-.4-.027,1.215,1.215,0,0,0-.643-.376.618.618,0,0,1-.35-.234c-.094-.134-.236-.234-.338-.364a.433.433,0,0,0-.423-.187.483.483,0,0,1-.246-.01.356.356,0,0,1-.151-.178c-.032-.071.051-.109.091-.158.063-.079.184-.042.245-.135a.774.774,0,0,1,.82-.305c.263.024.53.013.8.018.089-.117.029-.254.05-.38a.424.424,0,0,0-.153-.436.68.68,0,0,1-.236-.45.769.769,0,0,0-.171-.377.8.8,0,0,0-.794-.375,1.351,1.351,0,0,1-.3,0c-.16-.009-.309-.036-.373.187a.348.348,0,0,1-.256.207c-.1.022-.175.1-.261-.03a3.33,3.33,0,0,0-.238-.254.3.3,0,0,0-.293-.135.4.4,0,0,1-.418-.193c-.138-.2-.395-.3-.453-.564-.011-.05-.069-.058-.121-.058a2.7,2.7,0,0,0-.348,0c-.556.073-.807-.3-1.048-.7a.305.305,0,0,1-.055-.225.241.241,0,0,0-.144-.285c-.228-.082-.249-.25-.244-.445.005-.246.008-.493.013-.767-.248-.005-.477,0-.7-.016a.272.272,0,0,0-.3.193c-.157.353-.5.568-.681.907-.059.111-.171.078-.266.076-.348-.005-.7-.013-1.045-.017a.587.587,0,0,0-.623.576,1.467,1.467,0,0,0,0,.248,1.054,1.054,0,0,1-.305.829c-.21.25-.507.379-.694.635a.2.2,0,0,1-.17.073,1.925,1.925,0,0,1-1.516-.554c-.058-.058-.106-.148-.176-.17-.315-.1-.328-.356-.329-.61,0-.415.009-.83.021-1.244,0-.135,0-.215-.161-.286a.4.4,0,0,1-.233-.445c.039-.253.034-.272.411-.331,0-.185,0-.38.011-.573a.732.732,0,0,0-.224-.709c-.141-.11-.083-.213.139-.3a.516.516,0,0,0,.147-.407.766.766,0,0,0-.2-.418.726.726,0,0,1-.215-.7.091.091,0,0,1,.149-.06c.125.106.229.24.351.352a5.226,5.226,0,0,0,.961.9.244.244,0,0,1,.109.255c-.016.264-.018.53-.017.8a.586.586,0,0,0,.489.507c.714.017,1.427.027,2.141.039a.424.424,0,0,0,.1,0c.062-.309.5-.373.471-.752-.023-.262,0-.528.009-.832-.252,0-.5-.016-.74-.01a.4.4,0,0,1-.343-.142q-.363-.409-.761-.787a.41.41,0,0,1-.128-.349c.017-.63.025-1.26.036-1.922-.358-.024-.719-.116-.963.307a9.208,9.208,0,0,1-.957-.946.328.328,0,0,1,.031-.434,3.91,3.91,0,0,1,.4-.378.683.683,0,0,1,.475-.176c.281.016.564.014.846.018.127,0,.254.034.361-.094a.807.807,0,0,0,.245-.446c.018-.264.014-.531.017-.8,0-.047.013-.094-.032-.138-.179-.17-.342-.357-.531-.514a.336.336,0,0,0-.458-.008,2.063,2.063,0,0,0-.569.6.311.311,0,0,1-.355.182,3.7,3.7,0,0,0-.547-.01.7.7,0,0,1-.727-.3.218.218,0,0,0-.246-.123.418.418,0,0,1-.46-.21.65.65,0,0,0-.422-.285,1.1,1.1,0,0,0-.562.177.5.5,0,0,0-.275.476c0,.864-.018,1.727-.043,2.59a.475.475,0,0,0,.164.432A2.025,2.025,0,0,1,82.78,15.9c.091.269-.066.481-.164.707a3.3,3.3,0,0,1-.866,1.026c-.024.023-.089.013-.131,0-.017-.006-.032-.054-.032-.083,0-.214.006-.431.01-.648-.079-.092-.186-.047-.278-.05a.633.633,0,0,1-.463-.207q-.222-.237-.45-.465a.949.949,0,0,1-.383-.743.2.2,0,0,0-.222-.207.8.8,0,0,1-.616-.316Q77.146,12.8,75.1,10.688c-.1-.108-.211-.207-.167-.379.012-.045-.006-.094.04-.135.185-.164.352-.348.55-.493a.725.725,0,0,1,.455-.1c.709.025,1.42.029,2.145.043.009-.134.018-.247.029-.393l2.768.049c.009-.146.016-.257.024-.386.915.015,1.822.032,2.715.048.13-.121.026-.271.091-.384a.3.3,0,0,1,.089-.028c.283,0,.565.014.847.011.124,0,.257.055.37-.064a.706.706,0,0,0,.276-.482A.956.956,0,0,1,85.6,7.35a.547.547,0,0,0,.16-.329.6.6,0,0,1,.182-.371.916.916,0,0,0,.237-.452.706.706,0,0,1,.164-.326.907.907,0,0,0,.251-.5.517.517,0,0,1,.187-.313A.563.563,0,0,0,87,4.5a.778.778,0,0,1,.293-.725,1.191,1.191,0,0,0,.224-.355c.12-.191.235-.388.5-.4a.129.129,0,0,0,.085-.03,2.043,2.043,0,0,1,.777-.543c.242-.12.345-.336.24-.526-.087-.157.019-.448-.3-.491-.13-.019-.105-.193-.022-.277.279-.285.566-.56.859-.83a.46.46,0,0,1,.465-.035c.137.041.155.191.138.334-.014.115,0,.235-.011.348a.533.533,0,0,0,.2.565c.053.037.06.115.091.159.13.182.074.437.248.6a.947.947,0,0,1,.246.546c.023.115.133.209.2.317a.929.929,0,0,1,.17.38.645.645,0,0,0,.172.375.915.915,0,0,1,.213.462.669.669,0,0,0,.128.292.939.939,0,0,1,.261.545c.009.111.116.216.177.323a1.528,1.528,0,0,1,.193.368.99.99,0,0,0,.214.461.408.408,0,0,1,.08.116,2.831,2.831,0,0,0,.234.6,1.843,1.843,0,0,1,.272.59c.059.218.242.385.312.618.04.132.007.256.062.412.373.005.763.012,1.163.019.005.146.009.259.013.389.91.016,1.818.031,2.708.048.135.125.022.271.092.4l1.156.021c-.007.4-.014.8-.021,1.18.346.077.57.044.738-.3a1.5,1.5,0,0,1,.486-.593c0-.289.223-.087.333-.137.033-.016.077.046.066.1-.027.147.029.2.183.2.329-.005.657.009,1,.014m-9.9-2.577c0-.209-.007-.392.014-.57A.526.526,0,0,0,91.6,6.5a3.161,3.161,0,0,1-.712-.957c-.353-.219-.34-.562-.313-.913.011-.149-.009-.3.012-.445a.67.67,0,0,0-.255-.645c-.187-.164-.262-.188-.451-.015-.258.233-.5.48-.753.723-.178.171-.429.315-.516.524a2.243,2.243,0,0,0-.044.782c-.011.527-.01.527.356.895.058.059.1.153.174.173.215.06.214.239.236.4a2.543,2.543,0,0,1,0,.4l2.391.042m-2.4.368a5.974,5.974,0,0,1-.647-.015.746.746,0,0,0-.691.265.737.737,0,0,0-.275.638,3.759,3.759,0,0,1,0,.4c0,.177-.081.275-.258.274-.1,0-.149.021-.15.132,0,.476-.015.955-.024,1.462L88.33,11c.047,0,.1.02.133-.036.161-.33.582-.548.433-1.016a.928.928,0,0,1,0-.247c0-.174.078-.285.254-.277.152.009.153-.07.154-.178.006-.462.015-.923.024-1.417M95.576,15.1a.881.881,0,0,1-.682-.145c-.3-.264-.651-.448-.933-.738a1.354,1.354,0,0,0-.753-.455c-.011.632-.022,1.224-.031,1.816,0,.061-.017.125.04.181.273.272.489.617.974.527a3.993,3.993,0,0,1,.741,0,.582.582,0,0,0,.63-.56c.017-.2.01-.393.014-.631m-2.711-4.453c.007-.386.013-.781.021-1.174a.357.357,0,0,0-.068-.222,6.91,6.91,0,0,1-.42-.871,1.356,1.356,0,0,0-.6-.611c-.187.211-.042.465-.089.694a.987.987,0,0,0,0,.249.186.186,0,0,1-.073.17c-.062.052-.005.2-.17.189-.053,0-.129.16-.163.257a1.717,1.717,0,0,0-.029.29c0,.026-.043.049-.069.068a.929.929,0,0,0-.309.955l1.855.033a.638.638,0,0,0,.118-.027m-.532,7.558c0-.151,0-.3.008-.445.011-.607.009-.6-.42-1.017a.344.344,0,0,0-.253-.115c-.545,0-1.091-.015-1.636-.024-.063,0-.136-.019-.161.063s.027.123.077.165c.2.166.323.4.578.51a1.205,1.205,0,0,1,.442.354,1.248,1.248,0,0,0,1.365.509m2.908-6.69c-.006.332-.013.611-.015.893,0,.06-.03.128.026.185.271.27.478.61.967.549.226-.026.415-.1.478-.262.114-.293.335-.6.075-.946a.735.735,0,0,1-.8-.32.225.225,0,0,0-.21-.092c-.163,0-.326,0-.522-.007M91.21,13.438c-.336-.006-.663.006-.987-.023a.49.49,0,0,0-.5.288.551.551,0,0,0-.086.483l1.56.028c0-.264.009-.507.014-.776" fill="#333"/><path d="M79.821,27.185c.006-.335.016-.616.014-.9,0-.176.073-.287.245-.288.134,0,.164-.045.166-.169.008-.728.023-1.456.036-2.176.12-.1.267.01.4-.082.011-.63.023-1.272.034-1.905.122-.08.239-.026.4-.045.019-.645.024-1.3.04-1.985.308.005.6.031.895.01a.926.926,0,0,1,.768.326.914.914,0,0,1,.314.823c-.034.279-.012.563-.023.845-.007.188-.021.367-.262.434a.242.242,0,0,0-.151.28,1.121,1.121,0,0,1-.005.347c-.086.436.183.667.5.852a1.6,1.6,0,0,1,.636.609,1.69,1.69,0,0,0,.327.469.311.311,0,0,1,.008.466c-.255.234-.456.541-.866.571-.1.007-.247.159-.359.2a3,3,0,0,0-1.25.837c-.125-.035-.177.126-.3.109a.427.427,0,0,0-.371.166.632.632,0,0,1-.614.213c-.18-.012-.36-.008-.573-.012" fill="#333"/><path d="M93.047,25.037c-.129.047-.252-.052-.36-.191-.03-.039-.063-.1-.1-.105a6.038,6.038,0,0,1-1.027-.521,2.681,2.681,0,0,1-.535-.275.514.514,0,0,0-.381-.159c-.058.008-.146.04-.18-.036-.045-.1-.214-.013-.213-.154a.215.215,0,0,1,.178-.2.7.7,0,0,0,.338-.267.41.41,0,0,1,.481-.086,2.414,2.414,0,0,1,.807.446,4.511,4.511,0,0,0,.61.445.583.583,0,0,1,.27.324,1.166,1.166,0,0,0,.319.47c.073.068.229.134.138.27-.058.086-.184.022-.341.042" fill="#333"/></g></g></g></g></svg>