<svg id="Group_3" data-name="Group 3" xmlns="http://www.w3.org/2000/svg" xmlns:xlink="http://www.w3.org/1999/xlink" width="555.049" height="696.286" viewBox="0 0 555.049 696.286">
  <defs>
    <clipPath id="clip-path">
      <rect id="Rectangle_8" data-name="Rectangle 8" width="555.049" height="696.286" fill="none"/>
    </clipPath>
  </defs>
  <g id="Group_2" data-name="Group 2" clip-path="url(#clip-path)">
    <path id="Path_1" data-name="Path 1" d="M451.6,354.02a146.7,146.7,0,0,1-51.177-10.048c-7.015,28.007-25.265,51.906-56.263,57.717a127.7,127.7,0,0,1-22.275,1.923,238.6,238.6,0,0,1-29.685,2.111c-1.493.021-2.982-.01-4.472-.033v-.016l-1.635,0-.677,0v.006c-10.08.022-49.008.072-51.023.043a238.625,238.625,0,0,1-29.686-2.111,127.708,127.708,0,0,1-22.275-1.923c-31-5.811-49.248-29.71-56.262-57.717A146.711,146.711,0,0,1,75,354.02c-14.894.294-29.87-.317-43.793-3.57V526.3H495.4V350.451c-13.921,3.253-28.9,3.864-43.791,3.57M90.054,456.942H62.836v13.609H86.853v8H62.836v24.814h-8V448.938H90.054Zm36.682,46.427-3.649-18.413h-14.8l-3.65,18.413H96.48l10.168-54.431h18.087L134.9,503.369Zm49.816-46.427H162.943v38.423h13.609v8H141.329v-8h13.609V456.942H141.329v-8h35.222Zm36.637,46.427L201.8,481.756H192.58v21.613h-8V448.938h22.414A12.818,12.818,0,0,1,219.8,461.746v7.2a12.841,12.841,0,0,1-9.243,12.306L222.2,503.369Zm93.1-46.427h-13.61v46.427h-8V456.942H271.067v-8h35.222Zm36.642,46.427-11.393-21.613h-9.216v21.613h-8V448.938h22.414a12.818,12.818,0,0,1,12.808,12.808v7.2a12.84,12.84,0,0,1-9.243,12.306l11.641,22.115Zm43.292,0-3.65-18.413h-14.8l-3.65,18.413h-8.16l10.16-54.431h18.087l10.168,54.431Zm49.808-12.808a12.818,12.818,0,0,1-12.807,12.808H400.81V448.938h22.416a12.818,12.818,0,0,1,12.807,12.808Zm43.246-33.619H452.066v13.609h24.011v8H452.066v16.81h27.212v8H444.061V448.938h35.216Z" transform="translate(15.42 169.983)"/>
    <path id="Path_2" data-name="Path 2" d="M552.639,406.568Q519.121,333.379,485.6,260.191c-1.279-2.784-1.243-4.125,1.693-5.939,11.659-7.2,15.123-21.187,8.465-32.581a23.624,23.624,0,0,0-32.017-8.857,8.368,8.368,0,0,1-8.1.269,117.326,117.326,0,0,1-18.876-10.576c-15.9-10.664-31.529-21.778-48.964-29.9-2.391-1.115-2.719-2.9-3.091-5.159-3.94-23.959-14.464-44.558-31.929-61.436a103.493,103.493,0,0,0-46.57-26.489c-3.964-1.022-5.274-2.364-3.722-6.435,1.442-3.78,1.076-7.81.2-11.783-3.3-14.951-12.781-26.58-20.968-38.852-2.274-3.41-7.048-2.64-9.566,1.239-5.7,8.79-11.864,17.322-16.313,26.862-3.419,7.332-5.776,15-3.242,23.087,1.158,3.7.048,4.7-3.328,5.727-44.2,13.515-70.533,43.158-79.063,88.638-.4,2.146-.97,3.689-3.039,4.642-17.313,7.977-32.722,19.094-48.514,29.588A114.1,114.1,0,0,1,98.8,213.27a7.578,7.578,0,0,1-7.118-.208C79.4,206.592,65.868,210.3,59.2,221.69c-6.646,11.35-3.193,25.271,8.5,32.57,2.944,1.839,2.938,3.187,1.669,5.95-22.528,49.106-44.909,98.281-67.54,147.341a21.336,21.336,0,0,0-1.59,12.077c1.73,14.317,7.434,26.971,17.731,36.961C44.773,482.6,76.518,488.26,111.08,476.317c24.9-8.606,42.037-25.688,47.607-52.437,1-4.775,2.226-9.726-.137-14.83-13.966-30.172-27.729-60.438-41.553-90.676-8.792-19.227-17.448-38.517-26.463-57.638-1.729-3.667-1.349-5.416,2.283-6.926,1.475-.613,2.767-1.517,4.459-1.712,14.444-1.668,27.4-7.471,39.935-14.482,11.027-6.168,21.849-12.708,33.225-18.254,2.652-1.292,3.885-1.291,5.068,1.823,13.569,35.654,38.9,58.4,75.559,68.493,2.479.684,3.546,1.681,3.505,4.4-.149,9.773-.084,19.551-.039,29.328a4.279,4.279,0,0,1-2.4,4.294c-13.7,8.163-15.68,20.62-5.246,32.422,1.2,1.352,2.054,2.211.677,4.049-9.738,12.995-9.406,27.63-5.064,42.01,7.186,23.79,11.179,47.8,9.6,72.692-.23,3.616-.882,5.261-4.808,4.913a79.441,79.441,0,0,0-10.834-.018,12.581,12.581,0,0,0-12.426,11.368,29.76,29.76,0,0,0-.248,7.575c.634,5.112-.988,7.1-6.431,6.7-17.77-1.31-24.4,3.006-23.5,23.4.619,14.115,4.817,18.862,18.957,18.867q64.777.018,129.556-.008a46.147,46.147,0,0,0,5.945-.294c7.463-.98,12.339-6.287,12.654-13.87.166-3.976.082-7.965.049-11.947-.087-10.562-5.381-15.929-15.986-16.225-4.145-.115-9.21,1.26-12.2-.648-3.717-2.37-1.1-7.964-1.6-12.125-.956-8.087-5.739-12.669-13.966-12.823-3.613-.069-7.229-.075-10.84,0-2.077.046-3.522-.293-3.429-2.878.518-14.443-1.564-29.023,1.588-43.312,2.371-10.754,5.736-21.283,8.23-32.013,3.359-14.456,4.239-28.751-5.5-41.507-1.771-2.317.188-3.126,1.33-4.369,9.63-10.489,7.487-24.67-5-31.518-2.5-1.372-3.242-2.83-3.211-5.463.114-9.413.158-18.83-.022-28.241-.057-2.9.991-4.073,3.689-4.816,36.679-10.107,61.92-32.93,75.451-68.595,1.034-2.728,2.2-3.184,4.665-1.817,3.945,2.184,8.049,4.081,12.013,6.232,20.239,10.979,39.352,24.4,63.235,27.115,6.183.7,6.973,3.689,4.415,9.28Q430.132,335.523,396.39,409.2a11.568,11.568,0,0,0-1.3,5.7c1.11,18.924,8.961,34.595,23.342,46.669,23.131,19.421,49.92,24.624,78.8,17.64,25.051-6.057,44.071-20.331,53.931-45.026,1.726-4.321,2.613-8.977,3.888-13.479V409.843c-1.735-.4-1.848-2.047-2.41-3.275M17.2,403.221q27.828-60.53,55.444-121.154c.365.03.728.061,1.092.093v3.65c0,38.72-.067,77.44.1,116.159.018,4.276-1.142,5.5-5.41,5.439-16.068-.241-32.143-.145-48.213-.058-3.245.018-4.781-.275-3.009-4.128m129.844,16.712c-2.065,14.092-9.164,25.038-19.88,33.783-28.857,23.551-75.035,21.074-100.373-5.3A53.347,53.347,0,0,1,13.28,424.076c-.689-2.733-.925-4.683,3.187-4.671,42.759.131,85.518.088,128.277.112a13.887,13.887,0,0,1,2.3.415m-5.032-17.867c1.86,4.045,1.818,5.43-3.256,5.345-16.076-.269-32.159-.13-48.239-.073-2.812.01-4.768-.124-4.757-3.924.106-40.361.066-80.721.066-121.481,2.111.819,2.207,2.268,2.7,3.338q26.761,58.392,53.49,116.8M79.884,245.407a11.394,11.394,0,0,1-11.74-11.465,11.752,11.752,0,0,1,11.909-12,12.076,12.076,0,0,1,11.608,11.9,11.81,11.81,0,0,1-11.777,11.565m80.421-34.42c-10.214,5.391-20.242,11.138-30.333,16.76A119.634,119.634,0,0,1,107.244,237.8c-2.479.768-3.839.451-3.443-2.591.356-2.737-.347-5.4-1.062-8.583-.38-1.261.56-2.035,2.089-2.716,16.948-7.556,31.16-19.569,46.956-29.006,4.647-2.776,9.407-5.363,14.087-8.085,2.286-1.328,3.26-.787,3.2,1.895a43.251,43.251,0,0,0,.257,5.421c1.2,11.67,1.124,11.5-9.019,16.857m183-97.322c1.142,1.04,1.421,2.023.111,3.115a10.545,10.545,0,0,0-.784.746c-7.686,7.918-7.824,7.934-12.678-1.892-2.952-5.98-6.669-11.484-9.992-17.35,8.952,3.558,16.411,9.071,23.344,15.381M307.01,184.3h-.294c0-9.747.14-19.495-.082-29.237-.069-3.021.6-4.45,3.685-5.346a90.709,90.709,0,0,0,13.566-5.277c2.661-1.264,3.8-1.013,4.481,1.923a165.294,165.294,0,0,1,.019,75.661c-.628,2.71-1.627,3.641-4.387,2.09a56.456,56.456,0,0,0-7.934-3.386c-9.634-3.613-9.494-3.583-9.105-14.234.269-7.39.052-14.8.052-22.2m12.626-61.932c4.53,9.9,6.38,7.9-5.146,12.99-8.727,3.852-8.9,3.716-10.347-5.612-1.871-12.073-4.134-24.047-8.9-36.924,12,8.066,19.164,18.126,24.391,29.546M265.282,59.429c2.528-6.842,6.516-12.875,10.422-18.949.651-1.012,1.46-3.2,3.009-.761,5.4,8.512,11.566,16.687,12.53,26.459-.012,7.634-2.117,9.539-8.692,9.244a63.542,63.542,0,0,0-12.418.32c-3.371.518-4.642-.9-5.518-3.583-1.412-4.33-.882-8.544.666-12.73m-1.682,67.3c1.986-11.575,4.176-23.146,9.64-33.731.958-1.854,1.7-4.471,4.16-4.562,2.549-.1,3.332,2.568,4.237,4.409,7.138,14.516,9.359,30.268,11.378,46.071.306,2.394-1.025,2.58-2.766,2.926-4.293.852-8.626.744-12.953.858-16.3-.037-16.426-.058-13.7-15.971M260.154,157.3c.152-2.7.7-3.794,3.807-3.351a96.5,96.5,0,0,0,26.971.012c3.021-.421,3.879.462,3.859,3.269-.064,9.034-.024,18.069-.024,27.1h.036c0,8.674-.075,17.347.039,26.02.042,3.2-.847,4.557-4.366,4.087a101.646,101.646,0,0,0-25.915-.034c-2.8.345-4.26-.048-4.444-3.434a483.52,483.52,0,0,1,.036-53.669m6.4,138.243c-.025-2.4.855-3.314,3.16-2.876a41.694,41.694,0,0,0,15.56,0c2.328-.436,3.211.508,3.144,2.9-.13,4.506-.039,9.02-.039,13.531a5.031,5.031,0,0,1,0,.541c-.415,5.325,2.41,12.871-1.143,15.457-4.429,3.226-11.783.707-17.866.977-2.138.094-2.809-.913-2.8-2.92.048-9.2.076-18.4-.022-27.6M281.63,275.73c-.953,1.839-1.739,4.533-4.137,4.53s-3.223-2.679-4.136-4.533c-7.117-14.467-9.358-30.163-11.384-45.916-.339-2.636,1.191-3.139,3.109-3.289,4.306-.338,8.62-.562,12.03-.775,19.728,1.316,16.633-1.8,14.219,15.838-1.611,11.77-4.152,23.438-9.7,34.145M258.619,94.1a220.188,220.188,0,0,0-8.471,41.791c-.238,2.244-1.388,2.694-3.335,1.878-4.312-1.809-8.639-3.588-12.956-5.385-1.853-.772-2.252-1.971-1.433-3.873,5.853-13.593,13.306-25.957,26.194-34.411m-10.368,90.265c-.015,9.566-.146,19.139.06,28.7.067,3.109-.377,4.844-3.822,5.794a82.4,82.4,0,0,0-13.545,5.336c-2.867,1.375-3.741.5-4.367-2.2a164.931,164.931,0,0,1,.04-75.691c.687-2.954,1.917-3.109,4.518-1.883a91.966,91.966,0,0,0,13.558,5.307c3.138.905,3.7,2.406,3.637,5.384-.211,9.745-.079,19.5-.079,29.249m-36.737-70.539c7.011-6.413,14.537-12.024,23.586-15.557A158.783,158.783,0,0,0,220.941,124.6c-3.338-2.772-6.287-5.221-9.236-7.671-1.156-.962-1.482-1.916-.191-3.1M196.521,236.944c-21.441-33.041-20.49-76.905,2.385-108.58.916-1.27,1.508-2.923,3.444-3.449,1.152,1.007,2.208,2.394,3.607,3.082,9.989,4.919,10.205,12.139,7.825,22.293-5.986,25.527-4.887,51.3,1.78,76.7,1.025,3.909.608,6.416-3.1,8.282a23.775,23.775,0,0,0-4.284,3.289c-6.869,5.76-6.861,5.768-11.653-1.617m14.758,17.69c-1.37-1.279-.551-2.228.48-3.1,2.616-2.2,5.073-5.833,7.931-6.192,4.006-.5,3.635,4.737,5.128,7.4a186.452,186.452,0,0,0,12.079,19,89.7,89.7,0,0,1-25.618-17.113m21-15.018c-.9-2.1.308-2.95,1.962-3.643,3.979-1.669,7.937-3.387,11.925-5.037,2.22-.919,3.756-.7,4.064,2.238a185.035,185.035,0,0,0,9.377,42.509c-14-9.72-21.438-22.311-27.329-36.068m109.846,281.8c5.479-.03,7.217,1.421,6.969,6.972-.559,12.527,1.656,10.94-10.945,10.987-20.21.075-40.42.021-60.631.021-21.834,0-43.67-.125-65.5.1-4.754.049-6.237-1.369-6.14-6.153.239-11.8.019-11.8,11.75-11.8,41.5,0,83,.1,124.5-.122M313.6,495.6c5.542-.081,5.682,2.554,5.451,6.534-.209,3.582,1.278,7.572-5.206,7.315-12.062-.478-24.155-.138-36.235-.138s-24.164-.154-36.24.085c-4.146.082-5.691-1-5.517-5.4.387-9.736-.629-8.21,7.976-8.234,23.258-.066,46.518.172,69.771-.164m-14.086-86.8c-3.012,11.891-7.626,23.463-8.288,35.836-.56,10.467-.366,20.975-.445,31.464-.057,7.608-.012,7.608-7.852,7.61-4.695,0-9.409-.261-14.08.079-3.957.287-4.913-1.267-4.719-4.929.279-5.233.072-10.492.072-15.738,2.394-20.815-5.224-39.939-10.015-59.541a59.5,59.5,0,0,1-1.815-19.351,25.84,25.84,0,0,1,7.832-16.243,8.371,8.371,0,0,1,6.7-2.782c5.231.181,10.473.051,15.711.051,11.6,0,18.407,6.1,19.855,17.846,1.086,8.8-.82,17.252-2.96,25.7m2.9-63.207c0,4.312-3.1,7.383-8.173,7.45q-16.751.217-33.5,0c-5.08-.067-8.176-3.12-8.181-7.437,0-4.338,3.16-7.333,8.163-7.439,5.584-.118,11.17-.027,16.756-.027s11.172-.09,16.754.025c5,.1,8.181,3.1,8.185,7.428m-7-70.02a197.183,197.183,0,0,0,8.62-36.24c1.478-9.957,1.7-10.038,11.046-5.933,10.742,4.719,8.993,3.018,4.737,12.337-5.291,11.583-12.475,21.8-24.4,29.836M343.4,254.931a79.62,79.62,0,0,1-24.043,15.862c5.2-7.861,10.017-15.776,13.578-24.4.136-.329.293-.849.529-.907,4.347-1.058,5.7,3.224,8.466,4.962,1.288.808,4.1,2.032,1.47,4.481m12.854-14.646c-1.98,2.848-3.342,4.143-6.4,1.013-3.478-3.564-9.382-5.877-10.854-9.956-1.391-3.858,1.718-9.277,2.643-14.05a169.088,169.088,0,0,0-2.213-75.7c-1-3.837-.758-6.419,3.021-8.284a23.965,23.965,0,0,0,4.284-3.29c6.9-5.688,6.887-5.691,11.888,2.092,10.443,16.249,15.256,34.117,15.332,54.945a97.912,97.912,0,0,1-17.7,53.226M452,227.719a30.053,30.053,0,0,0-.674,3.18c-1.179,8.055-1.159,8.025-9.237,4.964-10.671-4.045-20.384-9.954-30.25-15.557-7.992-4.541-15.97-9.111-24.381-12.836-2.43-1.076-3.607-2.062-3-5.17a70.085,70.085,0,0,0,1.446-16.962c9.343,4.255,17.01,9.288,24.712,14.237,13.029,8.372,25.234,18.093,39.56,24.33,1.945.847,2.292,2.01,1.824,3.816m50.03,97.449C513.749,350.79,525.4,376.445,537.262,402c1.95,4.2,1.678,5.479-3.326,5.4-16.07-.244-32.146-.1-48.22-.079-2.452,0-4.541.221-4.532-3.478q.148-60.788.063-121.577l1.04-.3q9.871,21.6,19.744,43.2M463.31,233.886a12.084,12.084,0,0,1,12.1-11.946,11.768,11.768,0,0,1,11.42,11.955,11.4,11.4,0,0,1-11.687,11.513,11.83,11.83,0,0,1-11.832-11.522M412.526,403.137q27.4-59.593,54.6-119.277c.285-.623.689-1.189,1.035-1.783q.5.11,1,.223v66.174c0,17.924-.073,35.848.061,53.771.025,3.511-.608,5.2-4.672,5.149-16.44-.2-32.887-.164-49.329-.022-3.743.031-4.267-.823-2.7-4.234m128.586,22.731c-6.1,20.436-20.54,32.606-39.872,39.558-29.659,10.667-64.16,1.884-82.405-20.687A54.9,54.9,0,0,1,408.662,424.6c-1.055-3.8-.6-5.282,3.978-5.227,20.927.254,41.859.112,62.79.112q30.582,0,61.167,0c6.307,0,6.406.048,4.515,6.383" transform="translate(0 10.025)"/>
    <path id="Path_3" data-name="Path 3" d="M221.314,43.9c5.75,13.788,7.441,27.908,12.324,41.562,16.929,9.077,32.485,19.633,46.656,34.3,28.894,29.9,50.986,63.916,81.551,90.017,18.181,4.956,37.4,7.169,56.789,8.89V0H187.145c-.2.175-.4.351-.608.524,14.283,12.248,27.337,25.54,34.777,43.376M335.176,93.884H325.9v26.175h9.271v5.452H311.181v-5.452h9.271V93.884h-9.271V88.431h23.995Zm29.461,0H346.094v9.271h16.363v5.452H346.094v11.451h18.543v5.452H340.642V88.431h23.995Zm30.955,40.833a8.732,8.732,0,0,1-8.725,8.724H372.689v-5.452h14.178a3.284,3.284,0,0,0,3.272-3.272v-3.845a3.281,3.281,0,0,0-3.272-3.269h-6.54a8.74,8.74,0,0,1-8.73-8.729v-3.788a8.736,8.736,0,0,1,8.73-8.725H394.5v5.452H380.327a3.284,3.284,0,0,0-3.277,3.272v3.788a3.28,3.28,0,0,0,3.277,3.271h6.54a8.735,8.735,0,0,1,8.725,8.727ZM376.338,38.992h23.995v5.452h-9.271V76.073h-5.452V44.444h-9.271Zm-21.223.088h5.454V70.707h18.538v5.454H355.114Zm-11.3,0,6.927,37.081h-5.567l-2.486-12.544H332.608l-2.486,12.544h-5.564l6.927-37.081ZM304.925,16.653l7.2,14.777,7.2-14.777h5.889L314.849,37.265V53.734H309.4V37.265L299.037,16.653Zm-31.273,8.724a8.731,8.731,0,0,1,8.722-8.724h6.544a8.732,8.732,0,0,1,8.724,8.724v19.63a8.732,8.732,0,0,1-8.724,8.726h-6.544a8.731,8.731,0,0,1-8.722-8.726Zm-29.465-8.724h15.27a8.732,8.732,0,0,1,8.724,8.724v4.907a8.744,8.744,0,0,1-6.3,8.384l7.931,15.066h-6.132L255.918,39.01h-6.279V53.734h-5.452Z" transform="translate(92.182)"/>
    <path id="Path_4" data-name="Path 4" d="M169.544,119.758c14.169-14.662,29.725-25.219,46.654-34.3,4.883-13.654,6.574-27.774,12.325-41.562C235.961,26.064,249.018,12.772,263.3.524c-.2-.175-.4-.351-.608-.524H31.2V218.665c19.388-1.721,38.607-3.933,56.788-8.89,30.566-26.1,52.656-60.117,81.552-90.017M118.833,14.018h27.8v6.317h-10.74V56.977h-6.317V20.336H118.833ZM78.363,56.977H72.047L56.881,28.247v28.73H50.564V14.018h6.317L72.047,42.775V14.018h6.316ZM84.7,14.018H112.5v6.317H91.019v10.74H109.97v6.317H91.019V56.977H84.7Z" transform="translate(15.42)"/>
  </g>
</svg>
