<svg xmlns="http://www.w3.org/2000/svg" xmlns:xlink="http://www.w3.org/1999/xlink" width="55.229" height="88.092" viewBox="0 0 55.229 88.092"><defs><clipPath id="a"><rect width="55.229" height="88.092" fill="none"/></clipPath><clipPath id="c"><rect width="55.229" height="69.406" fill="none"/></clipPath><clipPath id="d"><rect width="17.388" height="16.551" fill="none"/></clipPath><clipPath id="e"><rect width="18.408" height="17.256" fill="none"/></clipPath></defs><g clip-path="url(#a)"><g clip-path="url(#a)"><g transform="translate(0 18.686)" opacity="0.56"><g clip-path="url(#c)"><path d="M53.689,77.478a.719.719,0,0,1-.154.533,8.478,8.478,0,0,1-3.013,2.046,5.277,5.277,0,0,1-1.192.33,11,11,0,0,1-2.616.281,7.2,7.2,0,0,1-3.879-1.187,4.729,4.729,0,0,1-1.977-1.444,5.653,5.653,0,0,1-1.52-2.922c-.053-.278-.094-.551-.121-.832a4.175,4.175,0,0,0-.127-.551,3.483,3.483,0,0,0,.8-1.416c.025-.13-.054-.285-.016-.406a4.635,4.635,0,0,1,.258-.483c.066-.144.1-.306.159-.452a.681.681,0,0,1,.163-.227,3.911,3.911,0,0,0,.9-1.548c.209-.528.447-1.047.647-1.581.128-.34.118-.73.419-1.014a8.17,8.17,0,0,0,.692-.816,1.309,1.309,0,0,0,.185-.292,7.389,7.389,0,0,0,.669-1.274c.037-.159.143-.38.077-.471-.28-.392.016-.63.149-.944a1.357,1.357,0,0,1,.619-.614c-.17-.821.4-1.486.68-2.238a6.909,6.909,0,0,0,.585-1.311,4.366,4.366,0,0,1,.144-.523,2.04,2.04,0,0,0-.894-.275,8.12,8.12,0,0,1-1.727-.47,15.594,15.594,0,0,1-2.44-1.253,17.942,17.942,0,0,1-1.818-1.131c-.421,0-.716-.294-1.07-.452a1.013,1.013,0,0,0-.336-.009c0,.14.039.333-.01.36-.416.225-.419.673-.573,1.028a7.409,7.409,0,0,1-1.334,2.033,8.469,8.469,0,0,1-.7.812A11.632,11.632,0,0,1,31.662,61c-.409.145-.823.287-1.238.393-.3.078-.4.2-.4.485,0,.937-.016,1.874-.027,2.862a6.439,6.439,0,0,0,.672.569,1.793,1.793,0,0,1,.619.766,1.884,1.884,0,0,1,.156.816,2.078,2.078,0,0,1-.154.747,3.073,3.073,0,0,1-.368.585c-.259.375-.25.366-.035.717a1.026,1.026,0,0,1,.247.712.6.6,0,0,0,.211.653.259.259,0,0,1,.07.189,5.008,5.008,0,0,1-.04,1.47c-.168.528-.266,1.075-.4,1.6-.171.669-.433,1.316-.541,2.006a9.044,9.044,0,0,0-.264,1.3c-.013,1.184-.025,2.368-.037,3.6.233.01.471.024.708.03s.494.015.74.006a1.237,1.237,0,0,1,.845.292,1.39,1.39,0,0,1,.484.912c.047.281.176.641-.2.869.222.225.323.531.657.456.239-.054.459.361.693.014a1.911,1.911,0,0,1,1.647.828c.061.146.015.335.058.493a4.113,4.113,0,0,1-.137,2.237,1.158,1.158,0,0,1-1.165.741q-4.993-.063-9.986-.106c-1.332-.014-2.663-.025-3.994-.042a1.133,1.133,0,0,1-1.2-.885,2.153,2.153,0,0,1-.165-.9,5.654,5.654,0,0,0,.019-.886c.007-.571.064-.677.573-1.081a.776.776,0,0,0,.106-.1,1.351,1.351,0,0,1,1.153-.438c1.272.037,1.167.139,1.142-1.112a1.243,1.243,0,0,1,.373-1.019,1.4,1.4,0,0,1,1.029-.361,12.256,12.256,0,0,0,1.3.023,3.4,3.4,0,0,0,.134-.835c-.063-.685.194-1.334.183-2.009,0-.2.017-.385-.175-.524a.339.339,0,0,1-.109-.244c0-.309-.109-.615-.119-.9-.029-.833-.388-1.586-.471-2.4-.221-.171-.09-.409-.111-.617s.058-.449-.19-.589c-.041-.023-.1-.077-.1-.1.123-.551-.425-1.107.012-1.654a1.579,1.579,0,0,1,.45-1.221,1.681,1.681,0,0,0,.158-.45c.051-.152.1-.3.164-.5-.081-.083-.185-.18-.28-.287a1.216,1.216,0,0,1-.321-.832,2.373,2.373,0,0,0-.06-1.078c-.046-.1.1-.331.209-.445.32-.323.668-.616,1.071-.981.009-.909.015-1.916.033-2.924a.432.432,0,0,0-.379-.5,10.347,10.347,0,0,1-2.284-.909,9.976,9.976,0,0,1-2.223-1.591,10.223,10.223,0,0,1-1.745-2.1,21.583,21.583,0,0,1-.986-2.034c-.183-.424-.2-.457-.655-.258-.823.36-1.578.843-2.362,1.274A16.651,16.651,0,0,1,11.1,57.31a4.773,4.773,0,0,1-1.031.178,1.2,1.2,0,0,0-.912.422c.321.69.65,1.391.974,2.1.209.456.421.911.609,1.376a.57.57,0,0,1-.057.6c-.316.423-.266.687.136.96.112.077.252.19.364.175.456-.059.518.338.6.579a5.145,5.145,0,0,0,.257.635c.706,1.483,1.315,3.009,2.016,4.495a12.084,12.084,0,0,1,.777,1.747c.18.626.569,1.146.784,1.749.015.041.061.071.155.176a2.983,2.983,0,0,0-.552,0,2.631,2.631,0,0,0-.485.213l.324.4.694-.344c.384.474.2,1.017.237,1.525a19.841,19.841,0,0,1-.867,2.232,6.037,6.037,0,0,1-2.437,2.46,15.75,15.75,0,0,1-2.269.96,6.849,6.849,0,0,1-.893.151,7.289,7.289,0,0,1-1.856.175,10.053,10.053,0,0,1-1.709-.208,5.341,5.341,0,0,1-1.472-.544,5.919,5.919,0,0,1-2.043-1.4c.087-.183.188-.387.281-.595.14-.313.058-.441-.267-.588a2.98,2.98,0,0,0-1.2-.155L1.15,76.7a3.456,3.456,0,0,1-1-2.177,6.65,6.65,0,0,1-.149-.9,3.206,3.206,0,0,1,.338-1.349c.218-.525.525-1.014.786-1.522a4.026,4.026,0,0,0,.277-.627c.135-.423.351-.843.873-.916a.447.447,0,0,0,.005-.094,2.223,2.223,0,0,1-.118-.676,1.79,1.79,0,0,1,.306-.607c.168-.277.363-.538.525-.817a1.61,1.61,0,0,0,.2-.508c.082-.459.421-.816.476-1.288.013-.116.2-.2.29-.32a1.086,1.086,0,0,0,.146-.308,6.389,6.389,0,0,1,.321-.976,3.057,3.057,0,0,1,.552-.6c.124-.774-.059-.916,1.064-1.911a13.043,13.043,0,0,1,1.1-3.257c-.2-.272-.662-.321-.7-.728a.867.867,0,0,0-.37-.661c-.282-.2-.256-.54-.382-.807-.108-.228.079-.45.171-.66.128-.293.275-.578.427-.858a1.672,1.672,0,0,1,1.592-.949,2.892,2.892,0,0,1,1.591.283.772.772,0,0,0,.629-.014A18.931,18.931,0,0,0,13.248,51.6l.409.5a1.2,1.2,0,0,1,.318-.177c.284-.051.279-.251.337-.474.142-.541.461-1.061,1.028-1.112a3.36,3.36,0,0,0,1.134-.5,1.406,1.406,0,0,0,.575-.561,1.8,1.8,0,0,0,.229-.788,1.169,1.169,0,0,1,.432-.859.5.5,0,0,0,.146-.645c-.114-.19-.073-.256.027-.425.347-.59.617-1.227.978-1.808a9.413,9.413,0,0,1,2.355-2.484,13.52,13.52,0,0,1,3.945-1.923,1.1,1.1,0,0,1,.2-.016,5.774,5.774,0,0,0,0-.71,7.1,7.1,0,0,1,.354-1.865c.046-.31.374-.575.557-.87a8.465,8.465,0,0,0,1.073-1.846.544.544,0,0,1,.512-.435c.279,0,.609-.075.664.355A14.6,14.6,0,0,1,29.9,36.979c.089.127.452,1.232.516,1.413a1.887,1.887,0,0,1-.007,1.438.4.4,0,0,0,.28.571,5.361,5.361,0,0,0,.907.327,3.771,3.771,0,0,1,1.124.483c.306.159.576.388.885.542a4.391,4.391,0,0,1,1.257.885,1.588,1.588,0,0,0,.664.531,25.512,25.512,0,0,1,1.632,2.215,11.547,11.547,0,0,1,1.04,2.456,5.206,5.206,0,0,1,.249,1.007,1.171,1.171,0,0,0,.731,1.127c.809.375,1.556.882,2.328,1.336.254.149.423.5.264.686-.261.312-.237.609,1.574,2.107,1.6,1.073,1.558,1,1.5.971A13.634,13.634,0,0,1,42.7,53.84c-.171-.115-.367-.192-.533-.312-.182-.132-.44-.266-.49-.447-.09-.326-.433.015-.495-.25,0-.021-.03-.039-.05-.053a22.308,22.308,0,0,0-2.428-1.51c-.206.053-.075.4-.359.3a.507.507,0,0,0,.021.886,1.306,1.306,0,0,0,.217.1c-.191.364-.178.521.035.642.118.067.254.1.376.159a14.983,14.983,0,0,1,1.829.922,24.668,24.668,0,0,0,2.993,1.684,4.325,4.325,0,0,0,.45.163c.04.587.089.669.408.691a.653.653,0,0,0,.644-.455c.057-.321-.183-.4-.422-.475,0-.215-.094-.44-1.55-1.784-1.263-1.2-.915-1.369-.7-1.81.113.086.178.167.259.191a2.543,2.543,0,0,1,1.265.691,1.359,1.359,0,0,0,.578.371c.411.077.742.449,1.2.323a2.1,2.1,0,0,0,.325-.107,2.832,2.832,0,0,1,1.887-.087,2.077,2.077,0,0,1,1.32,1.116,2.5,2.5,0,0,1-.273,2.821c-.108.163-.34.24-.507.367-.287.218-.26.276-.169.712a7.042,7.042,0,0,0,.723,1.624,1.534,1.534,0,0,1,.156,1.062.619.619,0,0,0,.44.663c.2.091.237.233.31.423.187.488.471.937.676,1.419a2.321,2.321,0,0,1,.3,1.367c.566.345.655.986.928,1.521.757,1.481,1.292,3.065,2.089,4.528.089.721.7,1.241.762,1.973.416.091.307.419.281.679a4,4,0,0,1-.085.774,9.416,9.416,0,0,1-.676,1.866c-.151.283-.306.564-.481.831-.035.054-.175.038-.276.058a1.55,1.55,0,0,1,.066-.276c.08-.213.246-.43.23-.635a2.066,2.066,0,0,0-.282-.907,1.239,1.239,0,0,1-.117-.762c0-.111.1-.22.18-.382l-.522-.005-11.9-.123a1.67,1.67,0,0,0-.369,0,2.765,2.765,0,0,0-.4.149c.127.383.223.711.345,1.03a6.3,6.3,0,0,0,3.51,3.164,3.383,3.383,0,0,1,.948.371.931.931,0,0,0,.656.22,2.266,2.266,0,0,1,1.816.45c.046.047.259.011.329-.056a2.011,2.011,0,0,1,1.048-.666,6.726,6.726,0,0,0,2.592-1.423.938.938,0,0,1,1.038-.281c.3.151.568.058.839.127m-21.148-34.9c-.058.1-.105.156-.094.176a1.115,1.115,0,0,0,.141.175c-.013-.1-.026-.194,0,0,0,.074-.033.185,0,.214.3.25.373.637.573.946.085.13.106.3.187.435a.358.358,0,0,0,.6.068c.156-.142.293-.3.47-.492-.414-.359-.786-.688-1.165-1.008a.753.753,0,0,0-.3-.153c-.117-.027-.244-.009-.413-.361M27.972,60.2a2.915,2.915,0,0,0,0,.44c.028.2.235.361.406.294a.629.629,0,0,0,.319-.313.335.335,0,0,0-.285-.412,3.509,3.509,0,0,0-.488-.009,7.837,7.837,0,0,0,.888-2.382,7.321,7.321,0,0,0,.352-2.62c-.4-.07-.78.052-1.152-.159a.715.715,0,0,0-.64,0c-.239.182-.465.1-.7.116-.322.028-.288.02-.294.452a10.29,10.29,0,0,0,.287,2.1,12.456,12.456,0,0,0,.7,2.148c.137.347.338.35.607.35M7.4,60.75c-.292.541-.525.935-.72,1.348a8.3,8.3,0,0,1-.506,1.189,7.25,7.25,0,0,0-.59,1.237c-.25.562-.545,1.1-.766,1.679s-.576,1.078-.784,1.671c-.2.572-.547,1.1-.792,1.664-.432,1-.955,1.968-1.435,2.951-.015.031.022.087.035.136l.4.075a2.042,2.042,0,0,0,0,.248c.039.326-.041.568-.411.633-.063.011-.116.075-.177.108-.373.2-.425.429-.183.8.051.078.137.147.155.231a5.068,5.068,0,0,0,1.079,1.921c.242.328.432.73.912.786a14.084,14.084,0,0,0,1.776,1.059,1.447,1.447,0,0,0,.55.269c.288.047.591,0,.884.026s.6.1.9.151a8.205,8.205,0,0,0,2.154-.151,2.2,2.2,0,0,0,1.115-.3c.72-.57,1.658-.813,2.254-1.568a1.331,1.331,0,0,1,.791-.546.686.686,0,0,0,.707-.541,5,5,0,0,1-.377-.85c-.038-.154.1-.345.132-.525a1.549,1.549,0,0,0-.023-.356L3.563,73.98c0-.242,0-.46.008-.678.015-.371.109-.473.465-.475q.7,0,1.4.015c.454.011.878-.2,1.346-.147.4.043.488-.079.494-.51.018-1.4.02-2.808.051-4.211a2.805,2.805,0,0,1,.143-1.348.7.7,0,0,0,0-.576,1.639,1.639,0,0,1-.115-.983c.017-.35-.128-.729.145-1.05a.222.222,0,0,0,0-.213c-.264-.328-.114-.7-.125-1.053-.019-.611.005-1.223.013-2m23.29,9.444c-.151-.12-.288-.311-.453-.34a1.579,1.579,0,0,1-.884-.547,1.137,1.137,0,0,0-.879-.379c-.764.009-1.527-.011-2.3-.018a2.077,2.077,0,0,0-.359.364,3.861,3.861,0,0,0-.592,1.151,4.819,4.819,0,0,0,.163,2.278,3.979,3.979,0,0,1,.213,1.479c.391.13.282.511.354.79a7.756,7.756,0,0,1,.366,2.137c-.023.936-.026,1.872-.03,2.808,0,.472.058.53.549.539.588.011,1.176.013,1.743.02a1.3,1.3,0,0,0,.228-.9c0-.764.025-1.527.018-2.29a6.036,6.036,0,0,1,.463-2.624,7.658,7.658,0,0,0,.462-1.508c.1-.437.112-.893.175-1.338a1.118,1.118,0,0,1,.117-.246,1.284,1.284,0,0,0,.173-.442,1.29,1.29,0,0,1,.471-.931m10.276,2.815c.178.035.381.014.437.095a.753.753,0,0,0,.927.239,3.05,3.05,0,0,1,1.354-.1c.829.065,1.633-.17,2.456-.143a.33.33,0,0,0,.351-.366,1.033,1.033,0,0,1,.135-.614.6.6,0,0,0-.007-.562.862.862,0,0,1-.106-.624c-.006-.666.023-1.332.009-2a1.754,1.754,0,0,1,.195-.812,1.622,1.622,0,0,0,.265-.922c-.041-.268-.207-.519-.229-.786-.032-.371-.333-.733-.145-1.087a1.439,1.439,0,0,0,.111-.549,7.262,7.262,0,0,0-.125-1.42c-.025-.541.006-1.084.008-1.627,0-.2-.013-.4-.025-.762-.623,1.341-1.165,2.522-1.718,3.7q-.932,1.981-1.879,3.954a3.884,3.884,0,0,0-.4.79,9.891,9.891,0,0,1-.669,1.5c-.194.509-.494.977-.731,1.471a5.267,5.267,0,0,0-.209.619M8.831,60.62l-.1-.005c0,.216,0,.432-.006.648q-.054,5.248-.11,10.5a1.418,1.418,0,0,0,.178.926c.206.049.385.1.568.133.211.034.5.143.625.049.261-.192.514-.115.767-.115q1.479,0,2.957.03c.213.005.385-.023.472-.157-.233-.577-.418-1.14-.681-1.664-.553-1.1-1-2.247-1.513-3.366-.567-1.244-1.14-2.485-1.665-3.747-.254-.61-.549-1.2-.826-1.8-.22-.476-.444-.95-.665-1.425m39.163.4c-.009.016-.05.055-.053.1a10.108,10.108,0,0,1-.172,2.526c-.036.111-.06.3,0,.359.235.235.123.509.125.763.006.788-.011,1.577-.019,2.366q-.028,2.735-.055,5.471c0,.426.081.513.49.525s.788.011,1.183.013a.68.68,0,0,1,.719.4.341.341,0,0,0,.6.093.882.882,0,0,1,.681-.311,14.531,14.531,0,0,0,1.819-.163,3.979,3.979,0,0,0-.094-.421c-.155-.453-.384-.876-.569-1.317-.263-.63-.561-1.245-.827-1.876-.274-.649-.6-1.274-.86-1.937-.27-.7-.669-1.351-.942-2.051-.094-.243-.251-.446-.332-.676-.368-1.059-.944-2.025-1.324-3.076-.1-.273-.248-.529-.368-.779M20.3,56.469a6.887,6.887,0,0,0,.607-.414.747.747,0,0,1,.5-.23.571.571,0,0,0,.55-.616,1.11,1.11,0,0,0-.333-.826,1.445,1.445,0,0,1-.38-.578,5.325,5.325,0,0,1-.138-1.34,15.921,15.921,0,0,1,.151-3.12,13.291,13.291,0,0,0,.187-1.928,1.4,1.4,0,0,1,.047-.276,1.41,1.41,0,0,0-.71-1.815c-.154-.085-.3-.178-.431-.254a7.881,7.881,0,0,0-.659.976,14.927,14.927,0,0,0-.938,2.051,14.148,14.148,0,0,0-.419,2.26,10.623,10.623,0,0,0,.1,2.079c.32.239-.035.678.275.92a6.208,6.208,0,0,0,.543,1.474A4.476,4.476,0,0,0,20.3,56.469m14.875.225c.547-.314.683-.891,1.043-1.306a4.567,4.567,0,0,0,1-2.756c.058-.81.028-1.626.034-2.439a2.4,2.4,0,0,0-.025-.506,4,4,0,0,1-.233-1,1.88,1.88,0,0,0-.415-1.316c-.025-.034-.015-.092-.035-.132-.295-.569-.582-1.141-.892-1.7a.37.37,0,0,0-.6-.1c-.259.208-.515.421-.783.617a.5.5,0,0,0-.22.57,4.059,4.059,0,0,1,.274,1.583c.292.263.084.6.135.9a6.847,6.847,0,0,1,.133.9c.019.492-.042.989,0,1.477a12.92,12.92,0,0,1-.178,1.491,6.077,6.077,0,0,1-.326,1.791,2.622,2.622,0,0,0-.139.872l1.233,1.054M20.47,84.628c0,.271-.013.542-.006.814.008.311.118.421.438.428.616.013,1.233.018,1.849.02a1.006,1.006,0,0,1,.716.253c.537.45.566.414,1.355.068.041-.018.113.019.144,0a1.692,1.692,0,0,1,1.14-.283c.592.015,1.185-.013,1.775.028a6.852,6.852,0,0,1,1.65.3.93.93,0,0,0,.965-.041.822.822,0,0,1,.258-.089q1.375-.068,2.75-.121c.268-.01.538,0,.793.006a1.879,1.879,0,0,0,.225-1.253l-.359-.376c-2.493-.026-4.983-.045-7.473-.083a2.778,2.778,0,0,1-1.349-.143.7.7,0,0,0-.577,0,2.12,2.12,0,0,1-1.132.116c-.764.011-1.53.016-2.292-.029a.882.882,0,0,0-.869.39m8.959-36.662a.653.653,0,0,0-.185-.034,5.381,5.381,0,0,1-2.613-.028.371.371,0,0,0-.457.332c-.015.147-.006.3-.008.444-.014,1.379-.023,2.759-.047,4.139,0,.206.1.448-.132.61,0,.43-.347.908.187,1.254.107-.141.312-.139.432-.355a1.25,1.25,0,0,1,.759-.6,2.784,2.784,0,0,1,1.573.077c.2.089.318.009.352-.106.106-.354.164-.724.24-1.087-.243-.186-.132-.449-.137-.68-.009-.418,0-.837.009-1.256.009-.905.019-1.81.028-2.705m-6.4-1.043a1.683,1.683,0,0,0-.242.485,21.028,21.028,0,0,0-.336,2.758,6.194,6.194,0,0,1-.015,1.034,13.3,13.3,0,0,0,.147,2.233,6.25,6.25,0,0,0,.292,1.224l1.377-.156.273.6a.369.369,0,0,0,.533-.23.363.363,0,0,0-.3-.489c-.106-.027-.19-.137-.307-.226l.283-.094c.015-.018.04-.035.042-.056a5.3,5.3,0,0,1,.164-1.861.228.228,0,0,0-.015-.208c-.218-.178-.124-.414-.113-.618a8.961,8.961,0,0,1,.158-2.38c.146-.449-.157-.876-.151-1.341l-1.794-.68m9.7,7.868a5.684,5.684,0,0,1,.253-1.3,3.637,3.637,0,0,0,.259-1.448,2.489,2.489,0,0,1,.148-1.27.434.434,0,0,0,0-.358,2.952,2.952,0,0,1-.268-1.509.522.522,0,0,0,0-.22,10.983,10.983,0,0,1-.313-1.567c-.294-.161-.539.04-.8.125-.215.07-.411.21-.628.259-.447.1-.634.26-.616.709a13.788,13.788,0,0,0,.1,2.967,3.444,3.444,0,0,1,0,1.029,2.622,2.622,0,0,1-.133,1.053c-.121.258-.108.706.171.852a4.755,4.755,0,0,0,1.828.68m-22,1.065a2.25,2.25,0,0,0,1.408-.3.726.726,0,0,1,.911.084,1.217,1.217,0,0,0,.352.213c.326.146.557-.016.569-.379a.986.986,0,0,0-.131-.388.617.617,0,0,1,.5-.8,2.1,2.1,0,0,0,1.229-.608,1.727,1.727,0,0,1,.516-.356,2.282,2.282,0,0,0,1.036-.763c-.064-.483-.132-.995-.2-1.51-.6.33-1.2.623-1.755.977-.824.523-1.6,1.123-2.437,1.623a3.018,3.018,0,0,1-1.444.623.808.808,0,0,0-.712.967,3.38,3.38,0,0,0,.158.611M23.459,81.773c0,.258,0,.5-.009.741-.01.26.1.42.367.425a.323.323,0,0,1,.355.286c.011.354.248.48.523.688.115-.139.2-.259.3-.364.171-.177.346-.351.528-.518.27-.247.469.151.722.087a.716.716,0,0,1,.147,0c.306-.008.627.078.9-.139.469.076.964-.13,1.421.153a.452.452,0,0,0,.423-.005c.2-.2.414-.115.62-.118.54-.008,1.08.007,1.565.012a.842.842,0,0,0,.062-1.165l-7.926-.082M29.3,46.546c0-.21.09-.485-.01-.634-.258-.387.044-.868-.266-1.22.114-.347-.216-.654-.125-.97.118-.4-.22-.607-.308-.915-.125-.432-.309-.847-.45-1.224a.436.436,0,0,0-.574.256,7.435,7.435,0,0,0-.716,1.989,7.045,7.045,0,0,0-.328,2.709,4.83,4.83,0,0,0,2.778.009M28.665,64.7a1.918,1.918,0,0,1,.275-1.3.5.5,0,0,0,0-.476,1.872,1.872,0,0,1-.24-1.279,5.156,5.156,0,0,1-.94.165,5.152,5.152,0,0,1-.909-.16c-.1.186-.216.3-.22.427-.025.788-.035,1.577-.022,2.366,0,.111.144.308.233.316.593.047,1.193.425,1.825-.056M26.891,40.062c.572.006,1.113,0,1.653.021a.488.488,0,0,0,.542-.336,1.255,1.255,0,0,0,.061-.869,4.919,4.919,0,0,0-.666-1.493c-.154-.252-.228-.636-.63-.744-.3.55-.578,1.1-.895,1.622a1.89,1.89,0,0,0-.066,1.8m2.8,27.551c-.106-.358.326-.392.3-.727s-.247-.438-.427-.636c-.437.183-.827-.16-1.3-.013a2.331,2.331,0,0,1-1.381-.015c-.469-.163-.859.188-1.258,0-.1.094-.172.158-.235.232a.575.575,0,0,0,.284.96,5.056,5.056,0,0,0,1.041.158c.957.03,1.916.027,2.972.037M7.16,55.174a2.3,2.3,0,0,0,0,.59c.057.214.147.529.3.588.356.134.39.413.5.685a2.448,2.448,0,0,0,.251.411.37.37,0,0,0,.436.177.383.383,0,0,0,.264-.454,1.2,1.2,0,0,1,.226-.862.875.875,0,0,0-.054-1.256c-.161-.184-.341-.351-.494-.507l-.775-.008-.66.636m25.007,1.114c-.364-.211-.732-.444-1.118-.64a.361.361,0,0,0-.5.337c.032.307-.207.547-.159.822a2.144,2.144,0,0,1-.179.895,8.705,8.705,0,0,1-.361,1.473,2.577,2.577,0,0,0-.1.5,9.666,9.666,0,0,1,1.381-1.192c.131-.067.2-.249.287-.385a6.3,6.3,0,0,0,.75-1.808m-6.543,3.188a1.788,1.788,0,0,0-.044-.586,2.274,2.274,0,0,1-.237-1.371,4.429,4.429,0,0,0-.289-1.649.377.377,0,0,0-.5-.289c-.438.188-.866.4-1.265.588a8.5,8.5,0,0,0,2.332,3.308M29.98,42.16a.6.6,0,0,0-.046.176A1.785,1.785,0,0,0,30,42.6a5.611,5.611,0,0,1,.213.721c.061.388-.154.84.283,1.14.023.016,0,.092.008.14.044.4.091.8.135,1.194a.373.373,0,0,0,.552.336c.357-.146.709-.3,1.12-.482A8.138,8.138,0,0,0,29.98,42.16m-4.144.022a7.289,7.289,0,0,0-1.707,1.942c-.262.468-.676.892-.582,1.49.374.159.705.312,1.045.442.357.137.535.005.571-.374a7.06,7.06,0,0,1,.082-.926c.183-.808.358-1.62.59-2.574M46.871,56.989l.887.009c.794-.777.885-1.194.356-1.727a1.039,1.039,0,0,0-1.563-.016c-.54.522-.458.941.32,1.734m-25.535.826a11.944,11.944,0,0,0,1.916,1.346c-.241-.727-.814-1.2-.885-1.909-.015-.147-.393-.308-.482-.218-.227.228-.606.361-.549.781m12.047-.8c-.176.369-.345.74-.528,1.1s-.433.667-.639,1.134a6.605,6.605,0,0,0,2.025-1.5l-.859-.735M23.27,42.767a3.752,3.752,0,0,0-1.86,1.274c.332.194.428.649.862.557l1-1.832" transform="translate(0 -31.392)" fill="#333"/><path d="M25.925,128.347a1.247,1.247,0,0,0-.326-1.136c-1.067-.172-1.343.267-1.473.953a51.347,51.347,0,0,1-6.655.119c-.161,0-.347.061-.469-.123a.141.141,0,0,0-.132-.025c-.58.3-1.2.085-1.792.118s-1.183,0-1.775-.01a.267.267,0,0,1-.058-.038c-.576-.665-.655-.487-1.147.026-1.563-.016-3.14-.03-4.716-.05-.477-.006-.535-.066-.53-.558q.037-4.032.085-8.063c0-.137.064-.273.076-.411.023-.28.046-.562.041-.843,0-.133-.124-.282-.091-.395a1.356,1.356,0,0,1,.307-.6.766.766,0,0,0,.141-1.085,3.273,3.273,0,0,1-.433-1.966c.049-1.156.034-2.314.046-3.52a1.315,1.315,0,0,1,.887.135,1.1,1.1,0,0,0,.452.152,4.964,4.964,0,0,0,.591.012,9.477,9.477,0,0,1,1.643.14,2.145,2.145,0,0,0,1.276-.088c.354-.151.786.044,1.2-.135.28-.121.657.024.968-.158.189-.111.316.346.57.057a1.534,1.534,0,0,1,.55-.264,2.56,2.56,0,0,1,1.24-.22.4.4,0,0,1,.395.335,6.72,6.72,0,0,0,.563,1.543,7.114,7.114,0,0,0,1.045,1.494c.281.276.535.583.834.838a5.087,5.087,0,0,0,.917.635,6.4,6.4,0,0,0,1.258.528,13.19,13.19,0,0,0,2.383.363c.645.057,1.3.037,1.935.152a38.424,38.424,0,0,0,4.748.178c.344.02.692-.006,1.035.018a3.35,3.35,0,0,1,.928.081,3.547,3.547,0,0,0,1.007.079c.14,0,.324.023.416-.052.357-.293.766-.205,1.166-.228.474-.028.946-.105,1.42-.124.492-.02.987.019,1.479,0a1.762,1.762,0,0,0,.6-.14c.421-.176.819-.408,1.246-.564a3.71,3.71,0,0,1,.836-.321,1.181,1.181,0,0,0,.626-.43,14.915,14.915,0,0,0,1.483-2.041,9.533,9.533,0,0,0,.918-2.236,11.662,11.662,0,0,1,1.456.451,7.119,7.119,0,0,0,1.572.5,5.315,5.315,0,0,0,.53.147,1.335,1.335,0,0,0,.516,0,18.407,18.407,0,0,1,3.27-.116,6.491,6.491,0,0,0,1.733-.263,1.424,1.424,0,0,1,.447,0c-.03,2.96-.06,5.888-.09,8.821-.35.225-.889-.221-1.188.344a1.527,1.527,0,0,0,1.181.778c-.026,2.5-.051,4.981-.077,7.49l-27.067-.278m17.862-7.337c-.018,1.74-.035,3.446-.053,5.148.755.138,1.518-.116,2.238.194.064.027.175-.037.258-.073a1.706,1.706,0,0,0,.742-1.074c.02-1.056.039-2.113.03-3.168a1.1,1.1,0,0,0-1-1c-.732-.025-1.465-.02-2.214-.027m-21.452-.22c-.018,1.772-.035,3.464-.053,5.184l.595-.033c.007-.659.013-1.267.02-1.885.408.3.869.05,1.219.174.285.5.552.952.806,1.413.232.42.225.423.766.237l-1-1.891a3.849,3.849,0,0,0,.342-.227,1.324,1.324,0,0,0,.524-1.188c-.029-.364,0-.733,0-1.084a2.394,2.394,0,0,0-.435-.43,1.2,1.2,0,0,0-.635-.254c-.711.011-1.421-.008-2.153-.016m12.869.132c-.018,1.765-.035,3.457-.053,5.183l.594-.023c.006-.609.012-1.168.018-1.751a2.284,2.284,0,0,0,.309,0,1.583,1.583,0,0,0,.263-.073.554.554,0,0,1,.752.33c.19.364.366.736.562,1.1.268.494.348.519.862.345-.257-.507-.5-1.024-.78-1.522-.118-.211-.118-.371.065-.5a1.608,1.608,0,0,0,.626-1.589c-.013-.121.007-.246,0-.369a1.116,1.116,0,0,0-1.059-1.1c-.711-.015-1.421-.016-2.161-.024m-20.576,4.821c-.084-.353-.149-.6-.2-.849a1.152,1.152,0,0,1,.268-.828l1.482.233c.121.571.232,1.09.339,1.588l.592.006a6.168,6.168,0,0,0-.219-1.406c-.126-.317.047-.65-.134-.9-.158-.218-.01-.443-.1-.625a1.112,1.112,0,0,1-.128-.684,2.379,2.379,0,0,0-.206-1.1c-.071-.223-.115-.469-.372-.574.023-.449-.356-.572-.6-.817a1.857,1.857,0,0,0-.2.178c-.229.288-.209.749-.627.91a.148.148,0,0,0-.056.12,2.87,2.87,0,0,1-.146.828c-.1.41-.052.866-.188,1.26-.313.9-.281,1.863-.657,2.844l1.151-.188m28.232.426c-.07-.293-.14-.515-.173-.742s.066-.486-.146-.678c.038-.7-.39-1.4.015-2.1a.291.291,0,0,0-.027-.273c-.281-.272-.169-.732-.5-.988-.082-.063-.059-.26-.082-.38l-1.739-.018c0,.211.073.465-.021.585-.259.328-.085.727-.266,1.081a4.5,4.5,0,0,0-.19,1.178c-.063.339-.18.666-.252,1-.082.388-.143.781-.206,1.173-.006.036.039.08.054.108l.521.006a4.78,4.78,0,0,0,.16-.685,1,1,0,0,1,.3-.689c.126-.118.247-.24.37-.362a1.914,1.914,0,0,1,1.227.19,7.713,7.713,0,0,0,.373,1.582l.575.006m-32.87-2.526c.45-.059.821-.129,1.2-.151s.774,0,1.12.006c.137.258.236.464.354.66a.562.562,0,0,0,.631.234.408.408,0,0,0,.259-.464,2.358,2.358,0,0,1,0-.329,2.2,2.2,0,0,0-1.895-.85c-.537.006-1.073-.009-1.615-.015.005-.514.01-.992.015-1.493l2.745.028c0-.207,0-.389.006-.6l-.967-.01c-.142-.7-.476-1.105-.959-1.174a1.627,1.627,0,0,0-1.7.883l.581.227-.291.1c-.017,1.708-.035,3.417-.053,5.117l.551.006c.008-.726.015-1.433.023-2.178m38.635,2.008c.007-.639.013-1.2.018-1.784l2.311.023c0-.259.005-.492.008-.749l-2.3-.023c.006-.506.01-.985.016-1.489l2.633.027c-.01-.21-.019-.392-.026-.542l-3.212-.033c-.018,1.722-.035,3.417-.053,5.117l3.216.033c0-.2,0-.364.006-.555l-2.616-.027m-29.306-4.3c-.014,1.378-.028,2.678-.041,4L18,125.337c0,.209,0,.392-.006.568l3.338.034c0-.2,0-.386.006-.594L19.9,125.33c.013-1.3.027-2.583.041-3.861a.115.115,0,0,1,.027-.063.76.76,0,0,1,.086-.076l1.35.014c0-.194,0-.359.006-.531l-3.364-.034c0,.2,0,.363-.006.555l1.284.013m12.92.135c-.016,1.572-.032,3.065-.047,4.593l.59-.022c.016-1.543.031-3.037.047-4.581l1.288.013c0-.216,0-.381.006-.538l-3.208-.033c0,.2,0,.365-.006.555l1.329.013M27.8,126.909c.254.239.367.48.7.469a.72.72,0,0,0,.614-.3.391.391,0,0,1,.38-.152c.238.014.477.008.726.01-.077-.3-.437-.357-.423-.662-.211-.077-.387-.309-.629-.228-.343.115-.585.43-.974.49-.134.021-.239.216-.4.372m-17.054-8.6a.8.8,0,0,0-.275-1.005.683.683,0,0,0-.942-.013c-.3.247-.69.492-.425,1.045.535-.452,1.073-.006,1.643-.027m18.116-.26c0,.2-.072.424.008.518a1.77,1.77,0,0,0,.663.507,1.48,1.48,0,0,0,.723,0c.084-.014.171-.165.2-.27a1.328,1.328,0,0,0,.012-.366.333.333,0,0,0-.346-.369c-.413-.022-.826-.014-1.265-.018M8.906,114.773c-.262-.1-.448-.042-.554.144a1.231,1.231,0,0,0-.2.807.37.37,0,0,0,.385.337.362.362,0,0,0,.353-.366c.013-.3.008-.592.012-.921m9.608,3.906c.3-.009.419-.141.418-.452s-.159-.461-.507-.437c-.276.02-.4.175-.382.489.015.287.158.408.471.4M7.66,122.488a1.6,1.6,0,0,0,.358.219.373.373,0,0,0,.451-.149.349.349,0,0,0-.027-.457.629.629,0,0,0-.776-.236c0,.211,0,.425-.006.623m2.593,5.423a.776.776,0,0,0,.9-.631.508.508,0,0,0-.71-.2c-.316.175-.17.511-.194.831M8.61,126.258c.011-.073,0-.156.036-.2.084-.111.237-.189.09-.359a.492.492,0,0,0-.373-.175c-.325-.024-.417.225-.568.339l.158.392.658.007M42.5,114.634l.4,0a1.007,1.007,0,0,0,.145,0,.37.37,0,0,0,.349-.431.388.388,0,0,0-.473-.3,2.306,2.306,0,0,0-.414.216c0,.144,0,.289-.005.513M21.084,125.047c.667.015.667.015.743-.493l-.461-.232c-.35.137-.28.42-.282.725m0,1.972a.464.464,0,0,0-.533-.335c-.242.015-.325.155-.4.408a3.31,3.31,0,0,0,.435.186c.215.058.369-.054.5-.259M46.3,114.112c-.158-.143-.29-.416-.623-.324l-.2.385.459.414.363-.475m-34.227-.7.376-.185c0-.225,0-.437.007-.646-.65.011-.683.087-.383.831m9.486,4.688.109-.166c-.231-.1-.275-.425-.625-.41,0,.227,0,.406-.006.571l.522.005m-4.928-5.271c.28.241.28.241.566.006-.28-.269-.28-.269-.566-.006" transform="translate(-2.517 -59.219)" fill="#333"/><path d="M18.779,29.656c1.48.015,2.86.035,4.24.04a1.231,1.231,0,0,1,.9.339,6.663,6.663,0,0,0,.64.478l1.007-.786a2.318,2.318,0,0,1,1.074.147.8.8,0,0,0,.506,0,1.727,1.727,0,0,1,1.55.106,1.182,1.182,0,0,0,1.475-.11.95.95,0,0,1,.969-.043,1.842,1.842,0,0,0,.622.1q.7.03,1.4.015c.206,0,.412.065.626-.1a.816.816,0,0,1,.57-.022,4.22,4.22,0,0,0,2.1.028,4.782,4.782,0,0,1,1.253.014c.14.014.264.184.408.291a3.311,3.311,0,0,1,1.345-.294c1.77.038,3.541.044,5.354.063-.013.315-.038.611.259.8.184.115.34.154.508-.013.209-.209.422-.414.621-.609.637,0,1.241-.209,1.876-.152a15.249,15.249,0,0,0,1.848.023,3.625,3.625,0,0,1,1.243.227c.216.069.537.155.679.052.512-.37,1.068-.192,1.6-.242a1.138,1.138,0,0,1,.406.8,15.679,15.679,0,0,1,.092,2.829c.007.961-.016,1.922-.026,2.883q-.074,7.247-.149,14.493c-.008.813-.023.823-.8.617a.346.346,0,0,0-.14-.016,6.739,6.739,0,0,1-1.931-.194,11.461,11.461,0,0,1-2.716-.577,1.224,1.224,0,0,1-.485-.259c-.74-.759-1.533-1.473-2.21-2.284a27.1,27.1,0,0,1-1.932-2.382,10.55,10.55,0,0,0-.872-1.05,18.778,18.778,0,0,1-1.229-1.424,19.836,19.836,0,0,0-2.032-2.2,11.24,11.24,0,0,0-2.742-2.094c-.259-.142-.491-.332-.765-.47a1.452,1.452,0,0,1-.78-1.2,6.116,6.116,0,0,0-.3-1.357c-.141-.435-.236-.882-.377-1.319a10.215,10.215,0,0,0-1.493-2.718,12.633,12.633,0,0,0-1.308-1.456,7.715,7.715,0,0,0-.726-.593,8.652,8.652,0,0,0-1.786,1.656,11.187,11.187,0,0,0-1.46,2.06A9.654,9.654,0,0,0,27,35.686c-.2.756-.385,1.517-.63,2.258a1.035,1.035,0,0,1-.548.583,18.523,18.523,0,0,0-2.809,1.821,15.669,15.669,0,0,0-2.18,2.047,26.067,26.067,0,0,0-2.143,2.492c-.27.392-.636.717-.941,1.086-.473.568-1,1.083-1.441,1.685a7.23,7.23,0,0,1-.836.835c-.546.535-1.1,1.058-1.633,1.609a2.077,2.077,0,0,1-1.049.516c-.673.182-1.384.162-2.042.411-.022.008-.049,0-.073,0q-.931.064-1.862.129a.953.953,0,0,0-.549.116c-.147.1-.417.016-.658.013.01-1,.018-1.955.034-2.912a2.248,2.248,0,0,1,.075-.338c.03-.186.128-.406.065-.555a4.28,4.28,0,0,1-.113-1.647,6.607,6.607,0,0,1,.039-1.694A3.863,3.863,0,0,0,7.815,42.5a11.518,11.518,0,0,1-.1-1.61c.2-.1.48-.155.543-.3a1.088,1.088,0,0,0-.023-.684c-.121-.414-.32-.805-.44-1.22a1.081,1.081,0,0,1-.03-.708,2.567,2.567,0,0,0,.14-1.057c.028-.279-.051-.561.14-.836a.5.5,0,0,0-.092-.538,1.243,1.243,0,0,1-.178-.809c.028-1.553.037-3.106.054-4.727a1.715,1.715,0,0,0,.247-.2c.235-.255.474-.392.819-.172A.493.493,0,0,0,9.3,29.7a2.67,2.67,0,0,1,1.278-.12,4.31,4.31,0,0,1,1.323.033,5.9,5.9,0,0,0,1.645.132c.3.006.6-.131.9-.12.744.028,1.488.092,2.229.171a.833.833,0,0,1,.462.252,5.182,5.182,0,0,1,.46.621l.461,0,.717-1.015m22.547,2.008c-.33,0-.65-.016-.971-.008a.71.71,0,0,0-.738.731q-.028.96-.02,1.922a.709.709,0,0,0,.723.745c.32.015.641.009.969.012l.521-.525c.008-.777.016-1.565.024-2.339l-.51-.538m-4.637-.024c-.012,1.154-.023,2.256-.035,3.364l.426,0q.006-.591.011-1.15l.859.009c.058.111.113.213.166.314.128.243.245.493.388.726.079.128.2.222.368.022l-.631-1.272c.275-.147.595-.259.611-.566a1.556,1.556,0,0,1,.325-.831.787.787,0,0,0-.068-.883,2.023,2.023,0,0,0-.686-.623c-.2-.129-.33-.471-.68-.275a.4.4,0,0,0,.251.564,1.61,1.61,0,0,1,.351.3c-.3.254-.3.254-1.655.294m-26.364.608.1-.032c.158.249.335.487.469.747.3.588.581,1.189.875,1.781.14.282.3.552.7.443q.021-2.058.042-4.1l-.429,0c-.01.941-.02,1.863-.028,2.778-.075.008-.1.011-.122.012s-.066.008-.071,0c-.487-.929-.97-1.86-1.473-2.827l-.483.022c-.015,1.4-.028,2.748-.042,4.1l.424,0c.01-.985.02-1.958.031-2.929M46.9,37.361c.224-.417-.182-.783-.071-1.177-.3-.313-.059-.728-.212-1.088a5.828,5.828,0,0,1-.239-1.164c-.4.011-.781-.028-1.157.011,0,.306.089.62-.029.781-.19.259-.011.565-.156.747-.2.252-.013.557-.16.746-.2.255-.069.515-.131.762a2.481,2.481,0,0,1-.119.244c-.008.023.034.065.036.069l.343,0c.083-.393.159-.755.246-1.169.176.029.419,0,.521.1.242.249.373-.221.624.008a5,5,0,0,1,.12.681.414.414,0,0,0,.382.443M13.69,35.213c.006-.633.013-1.26.02-1.909.365,0,.681.009,1,.009s.621,0,.9,0c0-.226,0-.391.007-.578-.342,0-.659,0-.975-.011a4.657,4.657,0,0,1-.9-.037c0-.411.007-.773.011-1.179.732.007,1.438.015,2.144.02.016,0,.033-.033.022-.022,0-.145,0-.26,0-.4-.9.006-1.768-.039-2.613,0-.015,1.405-.028,2.75-.042,4.109l.42,0M46.5,41.931c.005-.492.009-.9.014-1.336.491.005.957.014,1.422.013.238,0,.209-.131.111-.306l-1.521-.016c0-.407.008-.788.012-1.193l1.875.02c0-.093,0-.159,0-.245l-2.189-.023c-.012,1.18-.024,2.332-.036,3.49l2.18.022c0-.149,0-.264,0-.407L46.5,41.931M44.089,41.9c-.232,0-.4-.007-.577-.006-.275,0-.275,0-.269.41l2.168.022c0-.146,0-.263,0-.431l-.844-.008c.01-.958.019-1.863.029-2.794.242,0,.46.006.678.007.237,0,.217-.123.128-.294-.659-.007-1.323-.019-1.986-.018-.238,0-.205.137-.1.31l.795.008c-.009.931-.019,1.836-.028,2.794m7.264-1.257c-.516-.006-1.028-.014-1.539-.015-.287,0-.413.221-.517.434a1.148,1.148,0,0,0-.146.525,1.468,1.468,0,0,0,.2.506.707.707,0,0,0,.681.461c.222,0,.445-.006.666.009a.341.341,0,0,1,.352.365q0,.185,0,.37c-.015.32-.12.438-.424.442-.438.005-.878-.006-1.36-.011.006.171.011.3.016.444.418,0,.787.021,1.155.005.13-.006.256-.129.384-.129.276,0,.387-.223.5-.379s.221-.459.146-.574c-.158-.235-.059-.6-.388-.735a1.781,1.781,0,0,0-.711-.258c-.789,0-.789-.02-.779-.819,0-.048,0-.1,0-.142.543-.392,1.174-.113,1.763-.235,0-.078,0-.146,0-.264M17.727,31.575c-.013,1.239-.025,2.456-.038,3.679l.442,0c.013-1.229.025-2.445.039-3.711l1.155.012c0-.166,0-.282,0-.393-.881-.009-1.734-.018-2.588-.024-.016,0-.033.033-.022.021,0,.146,0,.261,0,.4l1.012.011m31.181.807c-.223-.24-.43-.552-.822-.211-.056.048-.192.017-.289,0a.676.676,0,0,0-.8.467c.052.076.137.147.151.228.068.415.371.591.69.8s.564-.031.843-.005c.018,0,.038-.024.074-.048.09-.377-.077-.8.15-1.231m.814,4.978.089-.108c-.075-.059-.145-.162-.225-.169-.268-.024-.54-.011-.81-.017s-.519-.019-.8-.03c.011-1.059.022-2.059.032-3.072l-.395,0c-.011,1.13-.023,2.247-.035,3.377l2.143.022m-7.331-5.7-.136.106c.232.47.466.939.7,1.41a1.448,1.448,0,0,1,.207.8c-.035.36-.015.725-.019,1.093l.3,0c0-.327.019-.642.007-.957a1.669,1.669,0,0,1,.27-1,16.025,16.025,0,0,0,.718-1.445c-.182.056-.328.058-.361.119-.238.45-.452.911-.68,1.38-.477-.438-.411-1.205-1-1.51m8.568,5.712c.011-1.031.022-2.05.032-3.093l.847.008c.233,0,.222-.117.132-.294l-1.974-.02c-.234,0-.22.12-.127.3l.829.008c-.011,1.043-.022,2.061-.032,3.088l.294,0M11.9,48.674c.164,0,.3.043.39,0,.364-.184.718-.39,1.069-.6a.868.868,0,0,0,.2-.639.474.474,0,0,0-.489-.232,4.747,4.747,0,0,1-.65,0c-.091.26-.173.494-.256.728s-.163.459-.266.747m36.985.044c.051-.754,0-.835-.4-.859a.69.69,0,0,0-.559.223.723.723,0,0,0-.161.759.742.742,0,0,0,1.121-.123M8.732,32.809c-.147.345-.277.711-.459,1.049-.106.2,0,.282.112.356a.505.505,0,0,0,.731-.174A1.887,1.887,0,0,0,9.272,33a.642.642,0,0,0-.053-.185l-.487-.005m15.43,2.973c.229.337.48.583.856.417.3-.134.223-.431.179-.679-.577-.233-.577-.233-1.035.262m-9.52,2.871c.448-.146.8-.318.6-.9-.256.061-.587-.14-.778.18a.5.5,0,0,0,.182.723m36.34,10.77c-.006-.218-.169-.349-.442-.352-.334,0-.467.142-.447.492a.371.371,0,0,0,.4.395.654.654,0,0,0,.492-.535M36.028,35.161c.025.277-.091.531.151.657a.777.777,0,0,0,.468.077.339.339,0,0,0,.276-.356.345.345,0,0,0-.27-.363,3.08,3.08,0,0,0-.626-.016M47.413,46.937c.464.5.684.46,1.08-.158a.488.488,0,0,0-.469-.256c-.3,0-.393.239-.611.414M21.038,40.467c-.02-.785-.025-.788-.873-.667-.079.249.08.392.227.554.179.2.39.106.646.113M19.105,42.68c-.2-.34-.443-.55-.874-.415,0,.224-.005.452-.008.7.333-.028.693.136.881-.289m-7.577-5.7a1.927,1.927,0,0,0-.3,0c-.27.039-.407.2-.375.419s.177.316.4.322c.241.006.433-.037.486-.307-.063-.127-.125-.249-.218-.433m23.549-5.938c0,.376,0,.376.422.718l.552-.323c-.2-.49-.575-.473-.974-.4m-17.893,10c0,.316-.084.618.257.721a1.352,1.352,0,0,0,.45-.011c0-.267.005-.48.008-.7l-.714-.008m7.522-8.253a1,1,0,0,0,.967-.283l-.715-.436c-.364.19-.315.454-.252.719m18.061,9.687a3.194,3.194,0,0,0,0-.435.336.336,0,0,0-.4-.309.368.368,0,0,0-.342.366c-.006.232.137.333.335.369a2.658,2.658,0,0,0,.4.008m-26.515.4c0-.126,0-.24,0-.366L15.6,42.51l-.192.367c.271.465.57.09.841.006M42.7,37.314c0,.225,0,.389-.006.583l.544-.02c0-.216,0-.38.006-.557l-.544-.005m6.437,2.452c-.476-.145-.464.235-.631.514l.626.006c0-.2,0-.365.005-.521M15.9,34.184c-.011-.192.154-.443-.094-.549a.348.348,0,0,0-.477.28c.227.256.227.256.571.269m-2.895,6.25a6.621,6.621,0,0,0,.468.468,1.379,1.379,0,0,0,.378.121c-.188-.426-.347-.69-.847-.59m38.833-2.408-.418,0c0,.154,0,.268,0,.413l.418-.034c0-.146,0-.243,0-.375m-11.036.61.614-.075-.32-.426-.295.5" transform="translate(-2.794 -29.533)" fill="#333"/></g></g><g transform="translate(6.206 0.748)" opacity="0.5"><g clip-path="url(#d)"><path d="M21.2,5.9c.178,0,.335.005.493.009.216.005.218.008.268.256l.778.014.756.013.151.234.908.106a.232.232,0,0,0,.256.19c.567,0,1.134.016,1.7.027l.316.006a.681.681,0,0,1,.08.13,1.468,1.468,0,0,0,.251.523c.111.123-.026.181-.013.269-.179.023-.2.208-.311.306a8.744,8.744,0,0,0-.677.658c-.072.079-.2.076-.235.208-.032.111-.19.128-.251.233a.464.464,0,0,1-.255.2c-.032.2-.251.23-.345.382a2.614,2.614,0,0,1-.261.262c-.1.11-.209.206-.316.308l-.294.285c-.174.168-.34.344-.524.5-.152.128-.309.272-.551.2-.009.507-.017,1-.026,1.5l.232.111c-.008.461-.016.93-.025,1.4a1.7,1.7,0,0,1,.2.076c.082.044.051.128.051.2,0,.326-.011.651-.016.974l.249.2c-.008.456-.016.9-.023,1.332l.189.127c-.007.038,0,.065-.015.076-.165.163-.329.325-.5.481-.075.069-.107.053-.193-.058-.044-.056-.087-.111-.177-.1a3,3,0,0,1-.311,0c-.038-.2.041-.4-.065-.583a.116.116,0,0,1,0-.093c.123-.233.039-.487.079-.712l-.37-.383c-.177,0-.376,0-.575-.013a.523.523,0,0,0-.357.13,5.292,5.292,0,0,1-.467.323.443.443,0,0,1-.483-.051c-.117-.079-.19-.218-.369-.185-.043.008-.109-.047-.147-.088-.1-.108-.252-.119-.359-.193a2.775,2.775,0,0,1-.352-.219c-.255,0-.383-.287-.641-.278l-.243-.252-.318-.005c-.123.106-.227.251-.428.249-.068,0-.135.073-.2.111a1,1,0,0,1-.233.122.618.618,0,0,0-.292.136.26.26,0,0,1-.073.05,1.759,1.759,0,0,0-.378.149,1.108,1.108,0,0,1-.373.172c-.09.023-.158.123-.247.163a3.1,3.1,0,0,0-.382.137.746.746,0,0,1-.373.173.346.346,0,0,0-.176.1.523.523,0,0,1-.29.141.437.437,0,0,0-.21.1.7.7,0,0,1-.319.149.571.571,0,0,0-.3.192.792.792,0,0,1-.5.309c-.07.008-.135.079-.2.125A.145.145,0,0,1,12.9,17.5c-.072-.076-.146-.151-.232-.241.008-.456.015-.927.027-1.4a.426.426,0,0,1,.054-.166c.159-.322.261-.669.437-.984a.394.394,0,0,0,.033-.175c.007-.22.008-.441.013-.661a.461.461,0,0,1,.056-.2c.071-.148.211-.26.225-.444,0-.053.115-.105.185-.145a.847.847,0,0,1,.485-.12c.084.006.168,0,.252.006a.77.77,0,0,0,.6-.228c.08-.069.152-.146.234-.225,0-.19.007-.386.01-.58a.561.561,0,0,0-.376-.1c-.409,0-.817-.013-1.217-.02l-.162-.159c0-.192.007-.381.01-.585l-.331-.006-2.414-2.5a4.116,4.116,0,0,0-.464-.469c-.157-.118-.224-.32-.423-.4-.052-.021-.073-.155-.082-.24a2.808,2.808,0,0,1,0-.349,4.851,4.851,0,0,1,.584-.5.79.79,0,0,1,.417-.135c.166.005.333.006.511.009,0-.079,0-.149,0-.212.018-.016.025-.024.034-.03a.063.063,0,0,1,.027-.009l1.707.03c0-.083,0-.153,0-.23a.5.5,0,0,1,.094-.02l1.481.025a.3.3,0,0,0,.256-.072.453.453,0,0,1,.268-.1,1.246,1.246,0,0,0,.825-.559,3.5,3.5,0,0,0,.247-.466.6.6,0,0,0,.16-.38c-.007-.094.118-.2.177-.3.132-.228.259-.458.387-.688a2.3,2.3,0,0,1,.3-.41,2.069,2.069,0,0,0,.228-.409c.145-.257.154-.564.323-.812.116-.171.167-.383.344-.518a.552.552,0,0,1,.644-.067c.043.023.085.063.129.066.173.011.221.135.252.268a2.565,2.565,0,0,0,.137.29c.1.295.3.547.378.854.03.116.14.207.182.335a2.475,2.475,0,0,0,.225.444,3.354,3.354,0,0,0,.2.423c.1.126.1.292.19.426a.723.723,0,0,1,.175.4c.157.162.173.4.291.57a1.052,1.052,0,0,1,.2.572m-4.161,6.545c-.081-.079-.081-.079-.2,0l.138,0a.155.155,0,0,0,.187.13c.065.117.16.049.254.067-.008-.2-.133-.193-.252-.193l-.127,0m2.055,1.423-.053.02.052.044c0,.142-.005.285-.008.419.173.082.228-.061.318-.132,0-.072.005-.145,0-.217-.005-.2-.115-.247-.313-.134m-3.155-3.4-.064.062c0,.23-.012.459-.011.688a.3.3,0,0,0,.328.321.832.832,0,0,0,.263-.117.12.12,0,0,0,.034-.075c-.11-.071.005-.135.009-.2a.582.582,0,0,0-.186-.519,1.9,1.9,0,0,1-.148-.156l-.225,0M14.478,8.306c-.053.08-.1.142-.138.211s-.045.129-.077.188a.846.846,0,0,1-.132.195.321.321,0,0,0-.011.5.655.655,0,0,1,.065.13,1.29,1.29,0,0,0,.649.6,1.738,1.738,0,0,0,.6.156.741.741,0,0,0,.641-.642,1.807,1.807,0,0,1,.063-.509A.809.809,0,0,0,16.2,8.6a.347.347,0,0,1-.105-.047.782.782,0,0,0-.627-.238c-.324.013-.649-.007-.995-.013M18.585,4.59a.616.616,0,0,0,.487-.107.662.662,0,0,0,.189-.794.193.193,0,0,0-.181-.1c-.206.006-.413,0-.564-.007l-.192.215a.322.322,0,0,0,0,.518c.084.094.174.181.26.27m3.446,5.849c-.05-.209-.215-.308-.337-.443a.22.22,0,0,0-.274-.016c-.073.055-.145.113-.218.169a.5.5,0,0,0,.252.482.565.565,0,0,0,.576-.192M15,14.5c-.049.132-.1.267-.148.4a.131.131,0,0,0,0,.092c.052.094.111.184.168.275a.245.245,0,0,0,.036.039l.306.005a3.285,3.285,0,0,0,.054-.381c.007-.278-.106-.393-.415-.432" transform="translate(-9.809 -1.182)" fill="#333"/><path d="M21.114,18.953H21.05l-.137,0c.119-.075.119-.075.2,0" transform="translate(-13.888 -7.687)" fill="#333"/><path d="M19.454,15.869l-.064.062.064-.062" transform="translate(-13.328 -6.576)" fill="#333"/><path d="M24.448,21.237c0,.021,0,.042,0,.063l-.051-.044.053-.02" transform="translate(-15.167 -8.548)" fill="#333"/></g></g><g transform="translate(31.469)" opacity="0.5"><g clip-path="url(#e)"><path d="M66.632,6.2l.008.227c.02.009.037.025.055.025q.677.014,1.355.025c.04,0,.089-.008.094.049a.119.119,0,0,1-.034.079c-.057.061-.12.118-.18.176q-1.9,1.838-3.805,3.679c-.164.159-.319.3-.578.214-.009.508-.018,1-.027,1.5.053.061.147-.008.23.04-.008.484-.017.974-.025,1.456.077.08.172.011.26.068-.006.344-.013.7-.018,1.053,0,.085-.026.16.1.213s.143.2.139.344c-.009.336-.013.672-.02,1.008,0,.074,0,.119.1.154a.222.222,0,0,1,.151.245c-.008.039.009.08-.029.115-.123.115-.235.242-.366.345a.184.184,0,0,1-.251-.017.769.769,0,0,0-.407-.238.391.391,0,0,1-.221-.148c-.059-.085-.149-.148-.214-.23a.275.275,0,0,0-.268-.118.306.306,0,0,1-.156-.006.225.225,0,0,1-.1-.113c-.02-.045.032-.069.058-.1.04-.05.116-.027.155-.085a.49.49,0,0,1,.519-.193c.166.015.335.008.506.011.056-.074.018-.161.032-.24a.268.268,0,0,0-.1-.276.43.43,0,0,1-.149-.285.486.486,0,0,0-.108-.239.505.505,0,0,0-.5-.237.855.855,0,0,1-.189,0c-.1-.006-.2-.023-.236.118a.22.22,0,0,1-.162.131c-.063.014-.111.063-.165-.019a2.108,2.108,0,0,0-.151-.161.189.189,0,0,0-.185-.085.252.252,0,0,1-.264-.122c-.087-.125-.25-.189-.287-.357-.007-.032-.044-.037-.077-.037a1.707,1.707,0,0,0-.22,0c-.352.046-.511-.187-.663-.441a.193.193,0,0,1-.035-.142.152.152,0,0,0-.091-.18c-.144-.052-.158-.158-.154-.282,0-.156.005-.312.008-.485-.157,0-.3,0-.446-.01a.172.172,0,0,0-.187.122c-.1.223-.318.359-.431.574-.037.07-.108.049-.168.048-.221,0-.441-.008-.661-.011a.371.371,0,0,0-.394.364.929.929,0,0,0,0,.157.667.667,0,0,1-.193.525c-.133.158-.321.24-.439.4a.125.125,0,0,1-.108.046,1.218,1.218,0,0,1-.959-.351c-.037-.037-.067-.094-.111-.108-.2-.063-.208-.225-.208-.386,0-.263.006-.525.013-.787,0-.085,0-.136-.1-.181a.254.254,0,0,1-.147-.282c.025-.16.022-.172.26-.209,0-.117,0-.24.007-.363a.462.462,0,0,0-.142-.448c-.089-.07-.053-.135.088-.188a.325.325,0,0,0,.093-.257.485.485,0,0,0-.126-.264.46.46,0,0,1-.136-.444.058.058,0,0,1,.094-.039c.079.068.145.152.222.223a3.306,3.306,0,0,0,.608.569.154.154,0,0,1,.069.161c-.01.168-.011.336-.011.5a.371.371,0,0,0,.309.321c.452.011.9.017,1.355.025a.268.268,0,0,0,.06,0c.039-.2.319-.236.3-.476-.015-.166,0-.334.006-.526-.159,0-.314-.01-.468-.007a.251.251,0,0,1-.217-.089q-.23-.259-.481-.5a.259.259,0,0,1-.081-.22c.011-.4.016-.8.023-1.217-.227-.015-.455-.073-.609.195a5.889,5.889,0,0,1-.605-.6.209.209,0,0,1,.019-.275A2.625,2.625,0,0,1,56.31,8.4a.432.432,0,0,1,.3-.111c.178.009.357.009.535.011.08,0,.161.022.228-.059a.507.507,0,0,0,.155-.282c.011-.168.009-.336.011-.5,0-.03.008-.059-.02-.087-.113-.108-.216-.226-.336-.326a.214.214,0,0,0-.29-.005,1.329,1.329,0,0,0-.36.378.2.2,0,0,1-.225.116,2.43,2.43,0,0,0-.346-.007.443.443,0,0,1-.46-.187.139.139,0,0,0-.156-.078.265.265,0,0,1-.291-.132.407.407,0,0,0-.267-.18.681.681,0,0,0-.356.112.318.318,0,0,0-.174.3c0,.546-.011,1.092-.027,1.638a.3.3,0,0,0,.1.273,1.283,1.283,0,0,1,.368.637c.058.17-.042.3-.1.447a2.089,2.089,0,0,1-.548.649c-.015.015-.056.008-.083,0-.011,0-.02-.034-.02-.052,0-.136,0-.273.006-.41-.05-.058-.118-.03-.176-.032a.4.4,0,0,1-.293-.132q-.14-.149-.285-.294a.6.6,0,0,1-.242-.469.126.126,0,0,0-.14-.131.506.506,0,0,1-.39-.2q-1.29-1.338-2.582-2.674c-.066-.068-.133-.132-.106-.24.008-.028,0-.059.025-.085.117-.1.223-.221.348-.312a.455.455,0,0,1,.288-.065c.449.016.9.019,1.357.027.006-.085.011-.156.018-.248l1.751.031.015-.245,1.718.03c.082-.077.016-.171.058-.243a.206.206,0,0,1,.056-.018c.179,0,.357.009.536.008.078,0,.163.034.234-.041a.446.446,0,0,0,.175-.3.605.605,0,0,1,.165-.407.344.344,0,0,0,.1-.208.378.378,0,0,1,.115-.234.582.582,0,0,0,.15-.286.444.444,0,0,1,.1-.206.578.578,0,0,0,.159-.315.327.327,0,0,1,.118-.2.355.355,0,0,0,.138-.355.491.491,0,0,1,.185-.459.762.762,0,0,0,.142-.225c.076-.121.149-.245.316-.254a.075.075,0,0,0,.054-.019,1.3,1.3,0,0,1,.492-.344c.153-.075.218-.212.152-.332-.055-.1.012-.283-.19-.311-.082-.011-.066-.121-.014-.175.177-.18.358-.355.543-.526a.291.291,0,0,1,.294-.022c.087.025.1.121.087.211-.009.073,0,.148-.007.22a.338.338,0,0,0,.129.357c.034.023.038.073.058.1.082.116.047.276.157.378a.6.6,0,0,1,.156.346c.015.073.084.132.124.2a.585.585,0,0,1,.108.24.408.408,0,0,0,.109.237.581.581,0,0,1,.135.292.423.423,0,0,0,.081.185.59.59,0,0,1,.165.345c.006.07.073.136.112.2a.962.962,0,0,1,.122.232.627.627,0,0,0,.135.292.253.253,0,0,1,.051.074,1.818,1.818,0,0,0,.148.378,1.169,1.169,0,0,1,.172.373c.037.138.153.244.2.392.025.084,0,.161.039.26l.736.013c0,.092.006.163.008.245l1.713.03c.085.079.014.171.058.256l.731.013c0,.256-.009.5-.013.747.219.049.361.027.467-.192a.95.95,0,0,1,.308-.375c0-.183.141-.055.211-.087.021-.01.049.029.042.066-.017.093.018.127.116.125.208,0,.416.005.631.009M60.365,4.565c0-.132,0-.248.009-.361a.334.334,0,0,0-.086-.246,2.005,2.005,0,0,1-.45-.6c-.223-.139-.215-.356-.2-.578.007-.094-.006-.19.008-.282a.424.424,0,0,0-.161-.407c-.118-.1-.166-.119-.285-.01-.163.148-.318.3-.476.457-.113.109-.271.2-.326.332a1.419,1.419,0,0,0-.028.495c-.007.333-.006.333.225.566.037.037.066.1.11.109.136.039.135.151.149.251a1.608,1.608,0,0,1,0,.252l1.513.027M58.848,4.8a3.783,3.783,0,0,1-.41-.01A.47.47,0,0,0,58,4.956a.466.466,0,0,0-.174.4,2.376,2.376,0,0,1,0,.251c0,.112-.051.175-.163.173-.064,0-.094.013-.095.084,0,.3-.009.6-.015.925l.664.011c.03,0,.066.013.084-.023.1-.209.368-.347.274-.642a.586.586,0,0,1,0-.156c0-.111.049-.181.161-.175.1.005.1-.044.1-.113,0-.292.009-.583.015-.9M62.8,9.4a.56.56,0,0,1-.432-.092c-.188-.167-.412-.283-.59-.468a.856.856,0,0,0-.476-.287c-.007.4-.014.774-.02,1.148,0,.039-.011.079.025.115.173.171.309.39.616.333a2.473,2.473,0,0,1,.469,0,.369.369,0,0,0,.4-.355c.011-.123.006-.248.009-.4M61.085,6.584c0-.245.008-.494.013-.743a.227.227,0,0,0-.043-.14,4.365,4.365,0,0,1-.266-.55.856.856,0,0,0-.379-.387c-.118.134-.027.294-.056.44a.62.62,0,0,0,0,.157.117.117,0,0,1-.046.108c-.039.033,0,.123-.108.12-.034,0-.082.1-.1.163a1.074,1.074,0,0,0-.018.183c0,.016-.027.031-.044.044a.587.587,0,0,0-.2.6l1.174.02a.447.447,0,0,0,.075-.016m-.337,4.782c0-.1,0-.189.005-.282.007-.384.006-.383-.266-.643a.213.213,0,0,0-.16-.073c-.345,0-.69-.009-1.035-.016-.04,0-.086-.011-.1.04s.017.078.049.1c.124.1.2.252.366.323a.762.762,0,0,1,.28.224.79.79,0,0,0,.864.322m1.84-4.233c0,.209-.008.387-.009.564,0,.039-.019.082.016.118.171.171.3.385.612.347.143-.017.263-.064.3-.166.072-.185.212-.382.047-.6a.464.464,0,0,1-.506-.2.14.14,0,0,0-.133-.058c-.1,0-.206,0-.33,0m-2.55,1.215c-.213,0-.419,0-.624-.015a.309.309,0,0,0-.317.182.348.348,0,0,0-.054.306l.987.017c0-.167.006-.32.009-.49" transform="translate(-49.736 0)" fill="#333"/><path d="M54.63,24.171c0-.212.01-.39.009-.568,0-.111.046-.182.155-.182.085,0,.1-.028.105-.107.005-.461.015-.921.023-1.377.076-.065.169.006.251-.052.007-.4.015-.8.022-1.205.077-.051.151-.016.252-.028.012-.408.015-.822.025-1.256.195,0,.382.02.566.006a.586.586,0,0,1,.486.206.578.578,0,0,1,.2.521c-.022.177-.008.356-.015.535,0,.119-.013.232-.166.275a.153.153,0,0,0-.1.177.71.71,0,0,1,0,.22c-.054.276.116.422.316.539a1.015,1.015,0,0,1,.4.385,1.07,1.07,0,0,0,.207.3.2.2,0,0,1,.005.295c-.161.148-.289.342-.548.361-.062,0-.156.1-.227.128a1.9,1.9,0,0,0-.792.53c-.079-.022-.112.08-.192.069a.27.27,0,0,0-.235.105.4.4,0,0,1-.388.135c-.114-.008-.228-.005-.363-.008" transform="translate(-51.534 -7.124)" fill="#333"/><path d="M66.828,24.046c-.082.03-.159-.033-.228-.121-.019-.025-.04-.06-.066-.066a3.821,3.821,0,0,1-.65-.33,1.7,1.7,0,0,1-.339-.174.325.325,0,0,0-.241-.1c-.037.005-.092.025-.114-.023s-.135-.008-.135-.1a.136.136,0,0,1,.113-.128.446.446,0,0,0,.214-.169.26.26,0,0,1,.3-.054,1.527,1.527,0,0,1,.511.282,2.856,2.856,0,0,0,.386.282.369.369,0,0,1,.171.2.738.738,0,0,0,.2.3c.046.043.145.085.087.171-.037.054-.116.014-.216.027" transform="translate(-55.363 -8.359)" fill="#333"/></g></g></g></g></svg>