<svg xmlns="http://www.w3.org/2000/svg" xmlns:xlink="http://www.w3.org/1999/xlink" width="53.95" height="99.983" viewBox="0 0 53.95 99.983"><defs><clipPath id="a"><rect width="53.95" height="99.983" fill="none"/></clipPath><clipPath id="c"><rect width="53.95" height="67.799" fill="none"/></clipPath><clipPath id="d"><rect width="16.985" height="16.168" fill="none"/></clipPath><clipPath id="e"><rect width="18.009" height="17.007" fill="none"/></clipPath><clipPath id="f"><rect width="17.982" height="16.856" fill="none"/></clipPath></defs><g clip-path="url(#a)"><g clip-path="url(#a)"><g transform="translate(0 32.184)" opacity="0.56"><g clip-path="url(#c)"><path d="M52.446,99.025a.7.7,0,0,1-.151.52,8.281,8.281,0,0,1-2.943,2,5.154,5.154,0,0,1-1.164.322,10.745,10.745,0,0,1-2.556.274,7.036,7.036,0,0,1-3.789-1.159,4.619,4.619,0,0,1-1.931-1.411,5.522,5.522,0,0,1-1.485-2.855c-.051-.272-.092-.538-.118-.813a4.079,4.079,0,0,0-.124-.538,3.4,3.4,0,0,0,.784-1.383c.024-.127-.053-.278-.015-.4a4.526,4.526,0,0,1,.252-.472c.065-.141.094-.3.156-.441a.665.665,0,0,1,.159-.222,3.82,3.82,0,0,0,.883-1.512c.2-.516.436-1.023.632-1.545.125-.333.115-.713.409-.99a7.98,7.98,0,0,0,.676-.8,1.279,1.279,0,0,0,.18-.286,7.219,7.219,0,0,0,.653-1.245c.036-.156.14-.371.075-.46-.274-.383.015-.615.146-.922a1.325,1.325,0,0,1,.605-.6c-.166-.8.394-1.451.664-2.186a6.748,6.748,0,0,0,.572-1.281,4.266,4.266,0,0,1,.14-.511,1.993,1.993,0,0,0-.873-.268,7.931,7.931,0,0,1-1.687-.459,15.232,15.232,0,0,1-2.384-1.224,17.528,17.528,0,0,1-1.776-1.1c-.412,0-.7-.287-1.045-.442a.99.99,0,0,0-.328-.009c0,.137.038.326-.01.352-.406.22-.409.657-.559,1a7.237,7.237,0,0,1-1.3,1.986,8.27,8.27,0,0,1-.68.794,11.363,11.363,0,0,1-3.582,2.182c-.4.142-.8.281-1.21.384-.3.076-.391.193-.392.474,0,.915-.016,1.831-.026,2.8a6.292,6.292,0,0,0,.656.556,1.751,1.751,0,0,1,.6.748,1.84,1.84,0,0,1,.152.8,2.03,2.03,0,0,1-.15.73,3,3,0,0,1-.36.572c-.253.367-.244.357-.034.7a1,1,0,0,1,.242.7.585.585,0,0,0,.206.638.253.253,0,0,1,.068.184,4.892,4.892,0,0,1-.04,1.436c-.164.516-.26,1.05-.391,1.567-.167.654-.423,1.286-.528,1.96a8.835,8.835,0,0,0-.258,1.266c-.013,1.156-.024,2.313-.036,3.519.228.01.46.024.692.03s.482.014.723.006a1.208,1.208,0,0,1,.826.286,1.358,1.358,0,0,1,.473.891c.046.274.172.626-.193.849.217.22.316.519.642.446.234-.053.448.352.677.014a1.867,1.867,0,0,1,1.609.809c.06.143.014.327.057.481a4.018,4.018,0,0,1-.134,2.185,1.131,1.131,0,0,1-1.138.724q-4.877-.061-9.755-.1c-1.3-.014-2.6-.025-3.9-.041a1.107,1.107,0,0,1-1.169-.864,2.1,2.1,0,0,1-.161-.88,5.522,5.522,0,0,0,.019-.865c.007-.558.062-.661.56-1.056a.758.758,0,0,0,.1-.1,1.32,1.32,0,0,1,1.127-.428c1.242.036,1.14.135,1.116-1.086a1.215,1.215,0,0,1,.364-1,1.365,1.365,0,0,1,1-.352,11.971,11.971,0,0,0,1.27.022,3.32,3.32,0,0,0,.13-.815c-.061-.669.19-1.3.179-1.963,0-.192.017-.376-.171-.512a.332.332,0,0,1-.107-.239c0-.3-.107-.6-.116-.882-.028-.813-.379-1.549-.46-2.342-.216-.168-.088-.4-.108-.6s.057-.439-.185-.575c-.04-.023-.1-.075-.1-.1.121-.538-.415-1.082.012-1.616a1.543,1.543,0,0,1,.44-1.193,1.642,1.642,0,0,0,.155-.44c.049-.148.1-.3.16-.491-.079-.081-.181-.176-.273-.281a1.188,1.188,0,0,1-.314-.813A2.318,2.318,0,0,0,23.426,88c-.044-.1.095-.323.2-.435.312-.315.653-.6,1.046-.959.009-.888.015-1.872.032-2.856a.422.422,0,0,0-.37-.49,10.107,10.107,0,0,1-2.231-.888,9.745,9.745,0,0,1-2.171-1.554,9.986,9.986,0,0,1-1.7-2.052,21.083,21.083,0,0,1-.963-1.986c-.179-.414-.2-.446-.64-.252-.8.352-1.541.824-2.307,1.245a16.265,16.265,0,0,1-3.475,1.553,4.663,4.663,0,0,1-1.007.174,1.174,1.174,0,0,0-.891.412c.313.674.635,1.359.951,2.047.2.445.412.89.595,1.344a.557.557,0,0,1-.056.59c-.308.413-.26.671.133.938.109.075.246.186.356.171.446-.057.506.33.582.566a5.026,5.026,0,0,0,.251.621c.69,1.449,1.285,2.939,1.97,4.391a11.8,11.8,0,0,1,.759,1.706c.176.612.556,1.119.766,1.708.014.04.059.069.151.172a2.913,2.913,0,0,0-.539,0,2.57,2.57,0,0,0-.473.208l.316.394.678-.336c.375.463.2.994.231,1.49a19.38,19.38,0,0,1-.847,2.181,5.9,5.9,0,0,1-2.381,2.4,15.387,15.387,0,0,1-2.216.938,6.688,6.688,0,0,1-.873.147,7.119,7.119,0,0,1-1.813.171,9.821,9.821,0,0,1-1.669-.2,5.217,5.217,0,0,1-1.438-.531,5.782,5.782,0,0,1-2-1.367c.085-.179.184-.378.274-.581.137-.305.057-.431-.261-.574a2.912,2.912,0,0,0-1.171-.151l-.105-.09a3.376,3.376,0,0,1-.978-2.127A6.5,6.5,0,0,1,0,95.257a3.132,3.132,0,0,1,.331-1.318c.213-.513.513-.99.768-1.486a3.933,3.933,0,0,0,.271-.612c.132-.413.343-.823.852-.894a.436.436,0,0,0,0-.091,2.171,2.171,0,0,1-.116-.66,1.749,1.749,0,0,1,.3-.593c.164-.271.355-.525.513-.8a1.573,1.573,0,0,0,.193-.5c.08-.448.412-.8.465-1.258.013-.113.2-.2.283-.312a1.06,1.06,0,0,0,.142-.3,6.241,6.241,0,0,1,.313-.954,2.986,2.986,0,0,1,.54-.583C4.981,84.143,4.8,84,5.9,83.032A12.741,12.741,0,0,1,6.971,79.85c-.2-.266-.646-.313-.682-.711a.847.847,0,0,0-.362-.646c-.275-.2-.25-.527-.373-.789-.106-.223.077-.439.167-.645.125-.286.268-.564.417-.838a1.634,1.634,0,0,1,1.555-.927,2.826,2.826,0,0,1,1.554.276.754.754,0,0,0,.614-.014,18.493,18.493,0,0,0,3.079-1.815l.4.491a1.174,1.174,0,0,1,.31-.172c.278-.05.273-.245.329-.463.139-.528.45-1.036,1-1.087a3.282,3.282,0,0,0,1.108-.489,1.374,1.374,0,0,0,.562-.548,1.759,1.759,0,0,0,.224-.769,1.142,1.142,0,0,1,.422-.839.486.486,0,0,0,.143-.63c-.111-.186-.072-.25.026-.415.339-.577.6-1.2.956-1.766a9.2,9.2,0,0,1,2.3-2.426,13.206,13.206,0,0,1,3.854-1.878,1.074,1.074,0,0,1,.2-.015,5.641,5.641,0,0,0,0-.693,6.94,6.94,0,0,1,.346-1.821c.045-.3.365-.561.544-.85a8.268,8.268,0,0,0,1.048-1.8.531.531,0,0,1,.5-.425c.273,0,.6-.073.648.347a14.267,14.267,0,0,1,1.346,1.977c.087.124.442,1.2.5,1.381a1.844,1.844,0,0,1-.007,1.4.394.394,0,0,0,.274.557,5.236,5.236,0,0,0,.886.32,3.683,3.683,0,0,1,1.1.472c.3.156.562.379.864.53a4.289,4.289,0,0,1,1.228.865,1.551,1.551,0,0,0,.649.519A24.921,24.921,0,0,1,36.3,67.676a11.279,11.279,0,0,1,1.015,2.4,5.085,5.085,0,0,1,.244.983,1.144,1.144,0,0,0,.714,1.1c.79.367,1.52.862,2.274,1.305.248.146.413.485.258.671-.255.3-.232.595,1.537,2.058,1.563,1.048,1.522.975,1.461.949a13.319,13.319,0,0,1-2.094-1.207c-.167-.112-.358-.187-.52-.3-.177-.129-.43-.26-.478-.436-.088-.319-.423.014-.483-.244,0-.02-.03-.038-.049-.052a21.792,21.792,0,0,0-2.372-1.475c-.2.052-.073.39-.35.3a.5.5,0,0,0,.02.866,1.277,1.277,0,0,0,.212.093c-.187.356-.174.509.035.627.115.066.248.1.368.156a14.637,14.637,0,0,1,1.786.9A24.1,24.1,0,0,0,42.8,78.009a4.219,4.219,0,0,0,.439.159c.039.573.087.654.4.675a.638.638,0,0,0,.629-.444c.056-.313-.179-.39-.412-.464,0-.21-.092-.43-1.514-1.742-1.234-1.17-.894-1.337-.688-1.768.111.084.174.163.253.187a2.484,2.484,0,0,1,1.236.675,1.327,1.327,0,0,0,.564.362c.4.075.725.438,1.172.316a2.048,2.048,0,0,0,.317-.1,2.767,2.767,0,0,1,1.843-.085,2.029,2.029,0,0,1,1.29,1.09,2.439,2.439,0,0,1-.267,2.756c-.106.159-.332.235-.5.358-.281.213-.254.27-.165.7a6.879,6.879,0,0,0,.706,1.586,1.5,1.5,0,0,1,.153,1.038.6.6,0,0,0,.43.648c.2.089.232.228.3.413.182.477.46.915.66,1.386a2.267,2.267,0,0,1,.3,1.335c.553.337.64.964.907,1.486.74,1.447,1.262,2.994,2.04,4.423.087.7.686,1.212.744,1.928.406.089.3.409.274.663a3.906,3.906,0,0,1-.083.756,9.2,9.2,0,0,1-.66,1.823c-.147.276-.3.551-.47.812-.034.053-.171.037-.27.057a1.513,1.513,0,0,1,.065-.27c.078-.208.24-.42.225-.62a2.019,2.019,0,0,0-.276-.886,1.21,1.21,0,0,1-.114-.744c0-.108.1-.215.176-.373l-.51,0-11.621-.12a1.63,1.63,0,0,0-.36,0,2.7,2.7,0,0,0-.391.145c.124.374.218.695.337,1.006a6.15,6.15,0,0,0,3.428,3.09,3.3,3.3,0,0,1,.926.362.91.91,0,0,0,.641.214,2.214,2.214,0,0,1,1.774.44c.045.046.253.011.321-.054a1.964,1.964,0,0,1,1.023-.651,6.57,6.57,0,0,0,2.532-1.39.917.917,0,0,1,1.014-.274c.292.147.554.057.82.124M31.788,64.937c-.056.1-.1.152-.092.172a1.089,1.089,0,0,0,.138.171c-.012-.095-.025-.189,0,0,0,.072-.032.181,0,.21.3.244.365.622.56.924.083.127.1.294.183.425a.349.349,0,0,0,.586.067c.153-.138.286-.3.459-.481-.4-.351-.768-.672-1.138-.985a.735.735,0,0,0-.294-.15c-.114-.027-.238-.009-.4-.352M27.324,82.145a2.848,2.848,0,0,0,0,.43c.028.193.229.353.4.287a.615.615,0,0,0,.312-.305.328.328,0,0,0-.278-.4,3.43,3.43,0,0,0-.477-.009,7.655,7.655,0,0,0,.868-2.327,7.152,7.152,0,0,0,.344-2.559c-.388-.069-.762.051-1.125-.156a.7.7,0,0,0-.625,0c-.233.177-.454.094-.679.114-.315.028-.281.019-.287.442a10.052,10.052,0,0,0,.28,2.049,12.168,12.168,0,0,0,.679,2.1c.133.339.33.342.593.342m-20.1.54c-.285.528-.513.913-.7,1.316a8.1,8.1,0,0,1-.494,1.162,7.082,7.082,0,0,0-.576,1.208c-.244.549-.533,1.075-.748,1.64s-.562,1.053-.766,1.632c-.2.559-.534,1.07-.773,1.625-.422.981-.933,1.923-1.4,2.883-.015.03.021.085.035.133l.394.073a1.994,1.994,0,0,0,0,.242c.038.319-.04.555-.4.618-.062.01-.113.073-.172.105-.364.2-.415.419-.179.78.05.076.134.143.151.226A4.951,4.951,0,0,0,2.643,98.2c.237.32.422.713.891.768a13.757,13.757,0,0,0,1.735,1.035,1.413,1.413,0,0,0,.537.263c.281.046.577,0,.863.025s.585.1.878.148a8.015,8.015,0,0,0,2.1-.147,2.154,2.154,0,0,0,1.09-.293c.7-.557,1.619-.794,2.2-1.532a1.3,1.3,0,0,1,.773-.533.67.67,0,0,0,.69-.528,4.882,4.882,0,0,1-.368-.83c-.037-.151.1-.337.129-.513a1.513,1.513,0,0,0-.023-.348L3.481,95.608c0-.236,0-.449.007-.663.014-.362.107-.462.454-.464q.686,0,1.371.014c.444.011.858-.193,1.315-.143.391.042.477-.077.482-.5.018-1.371.019-2.743.049-4.114a2.74,2.74,0,0,1,.14-1.317.679.679,0,0,0,0-.562,1.6,1.6,0,0,1-.112-.96c.017-.342-.125-.712.142-1.026a.217.217,0,0,0,0-.208c-.258-.32-.111-.687-.122-1.028-.019-.6,0-1.195.013-1.954M29.978,91.91c-.148-.117-.281-.3-.443-.332a1.542,1.542,0,0,1-.863-.535,1.111,1.111,0,0,0-.858-.37c-.746.009-1.492-.01-2.242-.018a2.029,2.029,0,0,0-.35.356,3.772,3.772,0,0,0-.579,1.124,4.707,4.707,0,0,0,.159,2.226,3.887,3.887,0,0,1,.208,1.445c.382.127.275.5.345.772a7.576,7.576,0,0,1,.357,2.087c-.022.914-.025,1.829-.03,2.743,0,.461.057.517.536.527.574.011,1.148.013,1.7.019a1.267,1.267,0,0,0,.223-.881c0-.746.025-1.491.017-2.237a5.9,5.9,0,0,1,.452-2.564,7.481,7.481,0,0,0,.451-1.473c.1-.427.109-.872.171-1.307a1.092,1.092,0,0,1,.114-.24,1.255,1.255,0,0,0,.169-.431,1.26,1.26,0,0,1,.46-.91m10.038,2.75c.174.034.372.014.427.093a.736.736,0,0,0,.905.234,2.979,2.979,0,0,1,1.323-.1c.81.063,1.6-.166,2.4-.14a.322.322,0,0,0,.342-.357,1.009,1.009,0,0,1,.132-.6.588.588,0,0,0-.007-.549.842.842,0,0,1-.1-.61c-.006-.65.023-1.3.009-1.951a1.714,1.714,0,0,1,.19-.793,1.584,1.584,0,0,0,.259-.9c-.04-.261-.2-.507-.224-.768-.031-.363-.326-.716-.142-1.062a1.406,1.406,0,0,0,.108-.536,7.093,7.093,0,0,0-.122-1.387c-.025-.528.006-1.059.008-1.589,0-.195-.012-.389-.025-.744-.609,1.31-1.138,2.464-1.679,3.612q-.91,1.935-1.836,3.862a3.794,3.794,0,0,0-.394.772,9.661,9.661,0,0,1-.654,1.467c-.189.5-.482.954-.714,1.437a5.146,5.146,0,0,0-.2.6M8.626,82.557l-.1,0c0,.211,0,.422-.006.633q-.053,5.127-.108,10.253a1.385,1.385,0,0,0,.174.9c.2.048.376.1.554.13.206.033.485.14.611.048.255-.188.5-.112.75-.112q1.444,0,2.888.03c.208,0,.376-.023.461-.153-.227-.564-.408-1.114-.665-1.625-.54-1.076-.981-2.195-1.478-3.288-.554-1.215-1.113-2.427-1.627-3.66-.248-.6-.536-1.175-.807-1.761-.215-.465-.433-.928-.65-1.392m38.256.4c-.009.016-.049.054-.051.094a9.874,9.874,0,0,1-.168,2.468c-.035.109-.059.291,0,.35.23.229.121.5.122.745.006.77-.011,1.54-.019,2.311q-.028,2.672-.054,5.344c0,.416.079.5.478.512s.77.011,1.156.013a.665.665,0,0,1,.7.387.333.333,0,0,0,.582.091.862.862,0,0,1,.666-.3,14.2,14.2,0,0,0,1.777-.159,3.889,3.889,0,0,0-.091-.412c-.151-.443-.375-.855-.556-1.287-.257-.616-.548-1.216-.808-1.833-.268-.634-.591-1.244-.841-1.892-.264-.684-.654-1.32-.92-2-.092-.237-.245-.436-.324-.661-.359-1.034-.922-1.978-1.294-3.005-.1-.267-.242-.517-.359-.761M19.827,78.5a6.722,6.722,0,0,0,.593-.4.729.729,0,0,1,.492-.224.557.557,0,0,0,.538-.6,1.085,1.085,0,0,0-.325-.807,1.411,1.411,0,0,1-.371-.565,5.2,5.2,0,0,1-.135-1.309,15.553,15.553,0,0,1,.148-3.048,12.984,12.984,0,0,0,.182-1.883,1.371,1.371,0,0,1,.046-.27,1.378,1.378,0,0,0-.693-1.773c-.151-.083-.3-.174-.421-.248a7.7,7.7,0,0,0-.644.953,14.58,14.58,0,0,0-.916,2,13.82,13.82,0,0,0-.409,2.208,10.376,10.376,0,0,0,.1,2.031c.312.234-.034.663.268.9a6.064,6.064,0,0,0,.531,1.44,4.373,4.373,0,0,0,1.021,1.6m14.531.219c.534-.307.667-.871,1.019-1.276a4.462,4.462,0,0,0,.976-2.692c.056-.791.028-1.588.033-2.383a2.345,2.345,0,0,0-.025-.494,3.908,3.908,0,0,1-.228-.977,1.836,1.836,0,0,0-.405-1.286c-.025-.033-.015-.09-.035-.129-.288-.556-.569-1.115-.871-1.663a.361.361,0,0,0-.591-.1c-.253.2-.5.412-.765.6a.486.486,0,0,0-.215.557,3.966,3.966,0,0,1,.268,1.546c.285.257.082.588.132.881a6.689,6.689,0,0,1,.13.88c.019.481-.041.966,0,1.443a12.622,12.622,0,0,1-.174,1.456,5.937,5.937,0,0,1-.319,1.75,2.561,2.561,0,0,0-.136.852l1.2,1.03M20,106.009c0,.265-.012.53-.006.795.007.3.116.412.428.418.6.012,1.2.017,1.806.019a.983.983,0,0,1,.7.247c.524.44.553.4,1.323.066.04-.018.111.019.141,0a1.653,1.653,0,0,1,1.114-.276c.578.015,1.158-.013,1.734.028a6.693,6.693,0,0,1,1.612.3.909.909,0,0,0,.943-.04.8.8,0,0,1,.252-.087q1.343-.067,2.687-.118c.262-.01.525,0,.774.006a1.836,1.836,0,0,0,.219-1.224l-.351-.367c-2.436-.025-4.868-.044-7.3-.081a2.713,2.713,0,0,1-1.318-.14.682.682,0,0,0-.564,0,2.071,2.071,0,0,1-1.106.114c-.746.011-1.494.016-2.239-.028a.862.862,0,0,0-.849.381M28.748,70.2a.638.638,0,0,0-.18-.033,5.256,5.256,0,0,1-2.553-.027.363.363,0,0,0-.447.324c-.015.143-.006.289-.007.433-.014,1.347-.023,2.7-.046,4.043,0,.2.1.438-.129.6,0,.42-.339.887.182,1.225.1-.138.3-.135.422-.347a1.221,1.221,0,0,1,.742-.59,2.719,2.719,0,0,1,1.536.075c.192.087.31.009.344-.1.1-.346.16-.707.235-1.062-.237-.182-.129-.438-.134-.664-.009-.409,0-.818.009-1.227.009-.884.019-1.768.027-2.643m-6.254-1.019a1.645,1.645,0,0,0-.237.474,20.541,20.541,0,0,0-.328,2.694,6.05,6.05,0,0,1-.014,1.01,12.992,12.992,0,0,0,.144,2.181,6.1,6.1,0,0,0,.286,1.2l1.346-.152.266.591a.361.361,0,0,0,.52-.225.354.354,0,0,0-.29-.478c-.1-.026-.186-.134-.3-.221l.277-.091c.014-.018.039-.035.041-.054a5.173,5.173,0,0,1,.16-1.818.222.222,0,0,0-.015-.2c-.213-.174-.121-.4-.111-.6a8.753,8.753,0,0,1,.154-2.325c.142-.439-.153-.856-.147-1.31l-1.752-.664m9.475,7.686a5.553,5.553,0,0,1,.247-1.273,3.553,3.553,0,0,0,.253-1.414,2.431,2.431,0,0,1,.145-1.24.424.424,0,0,0,0-.35,2.883,2.883,0,0,1-.262-1.474.51.51,0,0,0,0-.214,10.729,10.729,0,0,1-.305-1.53c-.287-.157-.527.04-.778.122-.21.069-.4.205-.614.253-.437.1-.619.254-.6.692a13.468,13.468,0,0,0,.1,2.9,3.364,3.364,0,0,1,0,1.006,2.561,2.561,0,0,1-.13,1.029c-.118.252-.106.69.167.832a4.645,4.645,0,0,0,1.786.664M10.478,77.9a2.2,2.2,0,0,0,1.375-.289.709.709,0,0,1,.89.082,1.188,1.188,0,0,0,.344.208c.318.142.544-.016.556-.37a.963.963,0,0,0-.128-.379.6.6,0,0,1,.491-.779,2.055,2.055,0,0,0,1.2-.594,1.687,1.687,0,0,1,.5-.348,2.229,2.229,0,0,0,1.012-.745c-.062-.472-.129-.972-.2-1.475-.584.323-1.168.608-1.714.954-.8.51-1.563,1.1-2.38,1.585a2.948,2.948,0,0,1-1.411.609.789.789,0,0,0-.7.944,3.3,3.3,0,0,0,.154.6M22.916,103.22c0,.252,0,.488-.009.724-.01.254.1.41.358.415a.316.316,0,0,1,.347.279c.011.346.242.469.511.672.112-.136.2-.253.294-.356.167-.173.338-.343.515-.506.263-.241.458.148.705.085a.7.7,0,0,1,.144,0c.3-.008.612.077.88-.135.458.074.942-.127,1.388.15a.441.441,0,0,0,.413,0c.192-.195.4-.112.606-.116.527-.007,1.055.007,1.529.012a.823.823,0,0,0,.061-1.138l-7.742-.08m5.7-34.41c0-.205.088-.474-.01-.619-.252-.378.043-.848-.26-1.192.111-.339-.211-.639-.122-.947.115-.394-.214-.593-.3-.894-.122-.422-.3-.828-.44-1.2a.425.425,0,0,0-.561.25,7.263,7.263,0,0,0-.7,1.943A6.882,6.882,0,0,0,25.9,68.8a4.718,4.718,0,0,0,2.714.009M28,86.546a1.874,1.874,0,0,1,.269-1.273.488.488,0,0,0,0-.465,1.829,1.829,0,0,1-.234-1.249,5.039,5.039,0,0,1-.918.161,5.033,5.033,0,0,1-.888-.156c-.1.182-.211.3-.214.417-.024.77-.034,1.541-.022,2.311,0,.109.141.3.228.308.58.046,1.166.415,1.782-.054m-1.734-24.07c.559.006,1.087,0,1.615.02a.476.476,0,0,0,.53-.328,1.226,1.226,0,0,0,.06-.849,4.805,4.805,0,0,0-.651-1.459c-.15-.246-.223-.621-.616-.727-.294.538-.565,1.073-.874,1.584a1.846,1.846,0,0,0-.064,1.758M29,89.389c-.1-.35.318-.383.293-.71s-.241-.428-.417-.621c-.426.179-.808-.156-1.266-.012a2.277,2.277,0,0,1-1.349-.014c-.458-.159-.839.184-1.229,0-.093.091-.168.154-.23.227a.562.562,0,0,0,.278.938,4.939,4.939,0,0,0,1.017.155c.935.029,1.871.026,2.9.036M6.994,77.238a2.244,2.244,0,0,0,0,.577c.056.21.144.517.3.574.347.13.381.4.487.669a2.391,2.391,0,0,0,.245.4.362.362,0,0,0,.426.172.374.374,0,0,0,.258-.443,1.176,1.176,0,0,1,.221-.842.855.855,0,0,0-.053-1.227c-.158-.18-.333-.343-.482-.5l-.757-.008-.645.621m24.428,1.088c-.356-.206-.715-.434-1.092-.625a.352.352,0,0,0-.493.329c.032.3-.2.535-.156.8a2.094,2.094,0,0,1-.175.874,8.5,8.5,0,0,1-.353,1.439,2.517,2.517,0,0,0-.093.487,9.443,9.443,0,0,1,1.349-1.164c.128-.066.194-.244.28-.376a6.149,6.149,0,0,0,.733-1.766M25.029,81.44a1.747,1.747,0,0,0-.043-.572,2.221,2.221,0,0,1-.232-1.339,4.327,4.327,0,0,0-.282-1.611.368.368,0,0,0-.485-.282c-.428.184-.846.391-1.236.574a8.3,8.3,0,0,0,2.278,3.231m4.257-16.915a.585.585,0,0,0-.045.172,1.744,1.744,0,0,0,.061.261,5.48,5.48,0,0,1,.208.7c.059.379-.151.821.276,1.113.023.015,0,.09.007.137.043.389.089.778.132,1.166a.364.364,0,0,0,.539.328c.349-.142.693-.3,1.094-.471a7.949,7.949,0,0,0-2.273-3.411m-4.048.021a7.12,7.12,0,0,0-1.668,1.9c-.256.457-.661.871-.569,1.456.365.155.689.3,1.021.431.349.133.522,0,.558-.365a6.9,6.9,0,0,1,.08-.9c.179-.789.35-1.583.577-2.514M45.786,79.01l.867.009c.776-.759.865-1.166.348-1.687a1.015,1.015,0,0,0-1.527-.016c-.527.51-.447.919.313,1.694m-24.944.807a11.668,11.668,0,0,0,1.871,1.315c-.235-.71-.795-1.171-.864-1.865-.014-.144-.384-.3-.471-.213-.221.222-.592.352-.536.763m11.768-.779c-.172.361-.337.723-.515,1.078s-.423.651-.624,1.108a6.452,6.452,0,0,0,1.978-1.468l-.839-.718m-9.879-13.92a3.666,3.666,0,0,0-1.816,1.245c.324.19.418.634.842.545l.974-1.789" transform="translate(0 -54.007)" fill="#333"/><path d="M25.483,150.47a1.218,1.218,0,0,0-.319-1.109c-1.042-.168-1.312.261-1.439.931a50.159,50.159,0,0,1-6.5.116c-.158,0-.339.06-.458-.121a.137.137,0,0,0-.129-.025c-.567.293-1.168.083-1.75.116s-1.156,0-1.734-.01a.262.262,0,0,1-.056-.037c-.563-.65-.64-.475-1.121.025-1.527-.016-3.067-.029-4.606-.049-.466-.006-.522-.065-.518-.545q.036-3.938.083-7.877c0-.134.062-.266.074-.4.023-.274.045-.549.04-.824,0-.13-.121-.276-.089-.386a1.324,1.324,0,0,1,.3-.591.749.749,0,0,0,.138-1.06,3.2,3.2,0,0,1-.423-1.921c.048-1.129.033-2.261.045-3.438a1.284,1.284,0,0,1,.867.132,1.069,1.069,0,0,0,.441.149,4.841,4.841,0,0,0,.577.012,9.261,9.261,0,0,1,1.605.137,2.1,2.1,0,0,0,1.247-.086c.345-.147.768.043,1.171-.132.273-.119.642.024.946-.154.184-.108.309.338.557.056a1.5,1.5,0,0,1,.537-.258,2.5,2.5,0,0,1,1.211-.215.39.39,0,0,1,.386.328,6.564,6.564,0,0,0,.55,1.507,6.948,6.948,0,0,0,1.02,1.46c.274.27.523.57.815.819a4.971,4.971,0,0,0,.9.621,6.253,6.253,0,0,0,1.229.515,12.887,12.887,0,0,0,2.328.355c.63.056,1.274.036,1.89.148a37.526,37.526,0,0,0,4.639.174c.336.02.676-.006,1.011.017a3.272,3.272,0,0,1,.907.079,3.466,3.466,0,0,0,.983.077c.137,0,.316.023.406-.051.349-.286.748-.2,1.139-.223.463-.027.924-.1,1.387-.121.481-.019.964.019,1.445,0a1.721,1.721,0,0,0,.59-.137c.411-.172.8-.4,1.217-.551a3.624,3.624,0,0,1,.816-.313,1.153,1.153,0,0,0,.612-.42,14.569,14.569,0,0,0,1.449-1.994,9.312,9.312,0,0,0,.9-2.184,11.387,11.387,0,0,1,1.423.441,6.953,6.953,0,0,0,1.535.484,5.193,5.193,0,0,0,.517.144,1.3,1.3,0,0,0,.5,0,17.98,17.98,0,0,1,3.194-.114,6.34,6.34,0,0,0,1.693-.257,1.391,1.391,0,0,1,.437,0c-.03,2.892-.059,5.752-.088,8.616-.342.219-.868-.216-1.16.336a1.492,1.492,0,0,0,1.154.76c-.025,2.439-.05,4.865-.075,7.317l-26.44-.272M42.932,143.3c-.017,1.7-.035,3.367-.051,5.029.737.135,1.483-.113,2.186.19.062.027.171-.036.252-.071a1.667,1.667,0,0,0,.724-1.049c.019-1.032.038-2.064.029-3.095a1.073,1.073,0,0,0-.978-.977c-.715-.024-1.431-.019-2.163-.027m-20.955-.215c-.018,1.731-.035,3.384-.052,5.064l.581-.032c.007-.643.013-1.238.019-1.842.4.294.849.049,1.191.17.278.486.539.93.787,1.38.226.41.22.413.748.231l-.977-1.847a3.763,3.763,0,0,0,.334-.222,1.294,1.294,0,0,0,.512-1.161c-.028-.356,0-.716,0-1.059a2.339,2.339,0,0,0-.425-.42,1.172,1.172,0,0,0-.62-.248c-.694.01-1.388-.008-2.1-.015m12.571.129c-.018,1.724-.035,3.377-.052,5.063l.58-.022c.006-.595.012-1.141.018-1.71a2.226,2.226,0,0,0,.3,0,1.545,1.545,0,0,0,.257-.072.541.541,0,0,1,.735.323c.185.356.358.719.549,1.071.261.482.34.507.842.337-.251-.5-.489-1-.762-1.486-.116-.206-.115-.362.064-.493a1.57,1.57,0,0,0,.612-1.552c-.012-.119.007-.24,0-.36a1.09,1.09,0,0,0-1.035-1.074c-.694-.014-1.388-.016-2.111-.023m-20.1,4.71c-.082-.345-.146-.586-.2-.829a1.125,1.125,0,0,1,.262-.809l1.448.227c.119.557.227,1.064.331,1.551l.578.006a6.025,6.025,0,0,0-.214-1.373c-.123-.31.046-.635-.13-.879-.154-.213-.01-.433-.1-.611a1.087,1.087,0,0,1-.125-.668,2.324,2.324,0,0,0-.2-1.072c-.07-.218-.112-.458-.363-.561.022-.439-.348-.559-.585-.8a1.814,1.814,0,0,0-.193.174c-.224.281-.2.731-.612.889a.144.144,0,0,0-.055.117,2.8,2.8,0,0,1-.143.808c-.1.4-.051.846-.184,1.231-.305.88-.274,1.82-.642,2.778l1.124-.184m27.578.416c-.069-.286-.137-.5-.169-.725s.065-.475-.142-.663c.037-.681-.381-1.365.015-2.048a.285.285,0,0,0-.026-.267c-.274-.266-.165-.715-.486-.965-.08-.062-.057-.254-.08-.371l-1.7-.017c0,.206.072.454-.02.571-.253.321-.083.71-.26,1.056a4.4,4.4,0,0,0-.186,1.151c-.062.331-.176.651-.246.98-.08.379-.14.763-.2,1.146-.006.035.038.078.053.105l.509.006a4.67,4.67,0,0,0,.156-.669.973.973,0,0,1,.3-.673c.123-.115.241-.235.361-.354a1.87,1.87,0,0,1,1.2.186,7.534,7.534,0,0,0,.364,1.545l.562.006M9.917,145.876c.439-.058.8-.126,1.168-.148s.757,0,1.094.006c.134.252.231.454.345.645a.549.549,0,0,0,.617.229.4.4,0,0,0,.253-.453,2.3,2.3,0,0,1,0-.321,2.153,2.153,0,0,0-1.851-.83c-.524.006-1.048-.009-1.578-.014,0-.5.01-.969.015-1.459l2.682.027c0-.2,0-.38.006-.583l-.945-.01c-.138-.684-.465-1.08-.937-1.146a1.589,1.589,0,0,0-1.663.863l.568.221-.284.1c-.017,1.668-.034,3.338-.051,5l.538.006c.007-.71.015-1.4.022-2.127m37.74,1.962c.007-.624.012-1.172.018-1.743l2.257.023c0-.253,0-.48.007-.731l-2.248-.023c.006-.494.01-.962.015-1.454l2.572.027c-.01-.205-.019-.383-.025-.529l-3.137-.032c-.017,1.682-.034,3.338-.051,5l3.142.032c0-.193,0-.355.006-.542l-2.555-.026m-28.627-4.205c-.014,1.346-.027,2.616-.04,3.91l-1.245-.013c0,.2,0,.383-.006.555l3.26.033c0-.2,0-.377.006-.58l-1.411-.015c.013-1.274.026-2.523.04-3.772a.112.112,0,0,1,.026-.061.741.741,0,0,1,.084-.074l1.318.014c0-.189,0-.351.006-.519l-3.286-.033c0,.193,0,.355-.006.542l1.254.013m12.621.132c-.015,1.535-.031,2.994-.046,4.486l.577-.022c.015-1.507.03-2.967.046-4.475l1.258.013c0-.211,0-.372.006-.525l-3.134-.032c0,.2,0,.357-.006.542l1.3.013m-4.336,5.3c.248.233.358.468.688.458a.7.7,0,0,0,.6-.291.382.382,0,0,1,.371-.149c.232.014.466.007.709.01-.075-.294-.426-.349-.413-.647-.206-.075-.378-.3-.614-.223-.335.112-.572.42-.951.479-.13.02-.234.211-.389.363m-16.659-8.4a.778.778,0,0,0-.269-.982.667.667,0,0,0-.92-.012c-.289.241-.674.48-.415,1.02.523-.442,1.048-.006,1.6-.026m17.7-.254c0,.2-.07.414.008.506a1.729,1.729,0,0,0,.648.5,1.446,1.446,0,0,0,.706,0c.082-.014.167-.161.2-.264a1.3,1.3,0,0,0,.012-.358.325.325,0,0,0-.338-.36c-.4-.021-.807-.014-1.236-.018m-19.492-3.2c-.256-.095-.438-.041-.541.14a1.2,1.2,0,0,0-.192.788.362.362,0,0,0,.376.329.354.354,0,0,0,.345-.358c.012-.289.008-.578.012-.9m9.386,3.815c.29-.009.41-.138.408-.442s-.156-.451-.5-.426c-.269.019-.388.171-.373.478.014.281.154.4.46.391m-10.6,3.721a1.556,1.556,0,0,0,.35.214.364.364,0,0,0,.441-.145.341.341,0,0,0-.026-.446.615.615,0,0,0-.758-.231c0,.206,0,.415-.006.608m2.533,5.3a.758.758,0,0,0,.883-.617.5.5,0,0,0-.693-.2c-.309.171-.166.5-.189.812M8.569,148.43c.011-.071,0-.153.035-.2.082-.109.231-.185.088-.351a.481.481,0,0,0-.365-.171c-.317-.023-.407.219-.555.331l.154.383.643.007m33.1-11.354.389,0a.983.983,0,0,0,.142,0,.361.361,0,0,0,.341-.422.379.379,0,0,0-.462-.3,2.257,2.257,0,0,0-.4.211c0,.141,0,.282,0,.5M20.754,147.247c.651.015.651.015.726-.481l-.451-.227c-.342.134-.273.41-.276.708m0,1.926a.453.453,0,0,0-.52-.327c-.236.014-.318.151-.394.4a3.232,3.232,0,0,0,.425.182c.21.057.36-.053.489-.253m24.639-12.608c-.154-.14-.283-.406-.608-.316l-.2.376.449.4.355-.464m-33.435-.685.367-.18c0-.22,0-.426.007-.631-.635.011-.668.085-.374.812m9.267,4.58.106-.162c-.226-.1-.269-.415-.611-.4,0,.221,0,.4-.006.557l.51,0m-4.814-5.149c.274.235.274.235.553.006-.274-.263-.274-.263-.553-.006" transform="translate(-2.617 -82.943)" fill="#333"/><path d="M18.52,52.193c1.446.015,2.794.034,4.142.039a1.2,1.2,0,0,1,.878.331,6.509,6.509,0,0,0,.625.467l.983-.768a2.264,2.264,0,0,1,1.049.143.779.779,0,0,0,.494,0,1.687,1.687,0,0,1,1.514.1,1.155,1.155,0,0,0,1.441-.108.928.928,0,0,1,.947-.042,1.8,1.8,0,0,0,.608.1q.685.03,1.372.014c.2,0,.4.063.611-.1a.8.8,0,0,1,.557-.021,4.122,4.122,0,0,0,2.051.027,4.671,4.671,0,0,1,1.224.014c.137.014.258.18.4.284a3.234,3.234,0,0,1,1.313-.287c1.729.037,3.459.043,5.23.061-.012.308-.037.6.253.779.18.112.333.151.5-.013.2-.2.412-.4.606-.6.622,0,1.212-.2,1.833-.148a14.9,14.9,0,0,0,1.8.022,3.541,3.541,0,0,1,1.214.222c.211.067.524.151.663.051.5-.362,1.043-.188,1.561-.236a1.112,1.112,0,0,1,.4.78,15.315,15.315,0,0,1,.09,2.763c.007.939-.015,1.878-.025,2.816q-.072,7.079-.146,14.158c-.008.794-.022.8-.786.6a.338.338,0,0,0-.137-.016,6.582,6.582,0,0,1-1.886-.19,11.2,11.2,0,0,1-2.653-.564,1.2,1.2,0,0,1-.474-.253c-.723-.741-1.5-1.439-2.159-2.231a26.475,26.475,0,0,1-1.887-2.326,10.306,10.306,0,0,0-.852-1.025,18.346,18.346,0,0,1-1.2-1.391,19.376,19.376,0,0,0-1.985-2.145,10.981,10.981,0,0,0-2.679-2.046c-.253-.139-.48-.324-.747-.459a1.419,1.419,0,0,1-.762-1.177,5.975,5.975,0,0,0-.294-1.325c-.138-.425-.231-.862-.368-1.289a9.979,9.979,0,0,0-1.458-2.655A12.341,12.341,0,0,0,31.1,53.142a7.536,7.536,0,0,0-.709-.579,8.451,8.451,0,0,0-1.744,1.617,10.928,10.928,0,0,0-1.426,2.012,9.431,9.431,0,0,0-.669,1.891c-.2.739-.376,1.482-.616,2.206a1.011,1.011,0,0,1-.535.57,18.1,18.1,0,0,0-2.744,1.779,15.307,15.307,0,0,0-2.129,2,25.462,25.462,0,0,0-2.093,2.435c-.264.383-.621.7-.92,1.061-.462.555-.981,1.058-1.408,1.646a7.063,7.063,0,0,1-.816.815c-.533.522-1.079,1.033-1.6,1.572a2.029,2.029,0,0,1-1.025.5c-.658.177-1.352.158-2,.4-.021.008-.048,0-.072,0q-.909.062-1.819.126a.931.931,0,0,0-.536.113c-.143.1-.407.015-.643.013.01-.975.017-1.91.033-2.845a2.2,2.2,0,0,1,.073-.33c.03-.182.125-.4.064-.542A4.181,4.181,0,0,1,7.666,68,6.454,6.454,0,0,1,7.7,66.343a3.774,3.774,0,0,0,.106-1.6,11.251,11.251,0,0,1-.1-1.573c.2-.1.468-.151.531-.294a1.063,1.063,0,0,0-.022-.668c-.119-.4-.312-.787-.43-1.192a1.056,1.056,0,0,1-.029-.692A2.507,2.507,0,0,0,7.9,59.292c.028-.273-.05-.548.137-.816a.49.49,0,0,0-.09-.526,1.214,1.214,0,0,1-.174-.79c.027-1.517.036-3.034.053-4.618a1.676,1.676,0,0,0,.242-.194c.229-.249.463-.383.8-.168a.482.482,0,0,0,.4.053,2.608,2.608,0,0,1,1.248-.117,4.211,4.211,0,0,1,1.292.032,5.761,5.761,0,0,0,1.607.129c.292.006.589-.128.88-.117.727.027,1.454.09,2.177.167a.814.814,0,0,1,.451.247,5.062,5.062,0,0,1,.449.607l.451,0,.7-.991m22.025,1.961c-.322,0-.635-.016-.948-.007a.693.693,0,0,0-.721.714q-.027.938-.019,1.878a.692.692,0,0,0,.706.728c.312.015.626.009.947.012l.509-.513c.008-.759.016-1.529.023-2.285l-.5-.526m-4.53-.023c-.012,1.127-.023,2.2-.034,3.286l.417,0q.006-.578.011-1.123l.839.009c.057.108.11.208.162.307.125.237.239.481.379.71.077.125.2.217.36.021L37.532,56.1c.268-.144.581-.253.6-.553a1.519,1.519,0,0,1,.317-.812.769.769,0,0,0-.067-.863,1.976,1.976,0,0,0-.671-.608c-.193-.126-.323-.46-.664-.268a.388.388,0,0,0,.245.551,1.572,1.572,0,0,1,.342.294c-.295.248-.295.248-1.616.287m-25.753.594.1-.032c.154.243.328.476.458.73.3.575.567,1.161.855,1.74.137.276.292.54.687.433q.02-2.01.041-4l-.419,0c-.01.919-.019,1.82-.028,2.714-.073.007-.1.011-.119.012s-.064.008-.07,0c-.475-.908-.947-1.816-1.439-2.761l-.472.022c-.014,1.368-.027,2.685-.041,4.007l.414,0c.01-.962.02-1.912.03-2.862m35.726,4.995c.219-.407-.177-.765-.07-1.15-.294-.305-.058-.711-.207-1.062a5.693,5.693,0,0,1-.233-1.137c-.392.01-.763-.027-1.13.01,0,.3.087.606-.028.763-.186.253-.011.552-.152.73-.2.246-.012.544-.156.729-.193.249-.067.5-.128.745a2.422,2.422,0,0,1-.116.239c-.008.022.033.063.035.067l.335,0c.081-.384.156-.738.24-1.142.172.028.409,0,.509.1.237.243.364-.216.61.007a4.883,4.883,0,0,1,.117.666.4.4,0,0,0,.373.433m-32.439-2.1c.006-.618.012-1.231.019-1.865.357,0,.666.009.974.009s.606,0,.881,0c0-.221,0-.382.007-.565-.334,0-.643,0-.952-.011a4.551,4.551,0,0,1-.876-.036c0-.4.007-.755.011-1.152.715.007,1.4.014,2.095.019.016,0,.032-.032.022-.021,0-.142,0-.254,0-.389-.876.006-1.727-.038-2.553,0-.014,1.373-.028,2.687-.041,4.014l.41,0M45.6,64.184c0-.48.009-.883.014-1.305.48,0,.935.014,1.389.013.232,0,.2-.128.108-.3l-1.486-.015c0-.4.008-.769.012-1.165l1.832.019c0-.091,0-.156,0-.24l-2.138-.022c-.012,1.153-.023,2.278-.035,3.409l2.13.022c0-.145,0-.258,0-.4L45.6,64.184m-2.352-.028c-.226,0-.395-.007-.564-.006-.268,0-.268,0-.263.4l2.118.022c0-.143,0-.256,0-.421l-.824-.008c.01-.936.019-1.82.028-2.729.236,0,.449.006.663.007.231,0,.212-.121.125-.287-.644-.007-1.292-.019-1.94-.017-.232,0-.2.134-.1.3l.776.007c-.009.91-.019,1.794-.028,2.729m7.1-1.228c-.5-.006-1-.014-1.5-.014-.281,0-.4.216-.5.424a1.121,1.121,0,0,0-.142.513,1.434,1.434,0,0,0,.192.494.691.691,0,0,0,.665.45c.217,0,.434-.006.65.009a.333.333,0,0,1,.344.357q0,.181,0,.362c-.014.312-.117.428-.414.432-.428,0-.858-.006-1.328-.011.006.167.011.3.015.434.409,0,.769.02,1.128,0,.127-.006.25-.126.375-.126.269,0,.378-.218.493-.37s.216-.449.142-.561c-.154-.23-.058-.585-.379-.718a1.74,1.74,0,0,0-.694-.252c-.771,0-.771-.02-.761-.8,0-.047,0-.095,0-.138.53-.383,1.147-.111,1.722-.229,0-.077,0-.142,0-.258m-32.847-8.86c-.012,1.211-.024,2.4-.037,3.594l.431,0c.012-1.2.025-2.388.038-3.625l1.128.012c0-.163,0-.276,0-.384-.86-.009-1.694-.017-2.528-.023-.015,0-.032.032-.021.02,0,.142,0,.255,0,.391l.989.011m30.459.789c-.218-.235-.42-.54-.8-.206-.054.047-.188.017-.282,0a.66.66,0,0,0-.779.456c.051.074.134.143.147.223.066.405.363.577.674.781s.551-.03.823,0c.017,0,.037-.023.072-.047.088-.368-.075-.785.146-1.2m.795,4.863.087-.105c-.073-.057-.142-.158-.219-.165-.262-.023-.527-.01-.791-.017s-.507-.019-.781-.029c.011-1.034.021-2.012.031-3l-.386,0c-.011,1.1-.023,2.2-.034,3.3l2.093.022M41.585,54.15l-.133.1c.227.459.455.917.68,1.377a1.414,1.414,0,0,1,.2.784c-.035.352-.015.708-.019,1.067l.289,0c0-.32.019-.627.007-.935a1.63,1.63,0,0,1,.263-.978,15.653,15.653,0,0,0,.7-1.412c-.177.055-.32.056-.352.116-.232.439-.442.89-.664,1.348-.466-.428-.4-1.177-.975-1.475m8.37,5.58c.011-1.007.021-2,.032-3.021l.827.008c.227,0,.217-.114.129-.287l-1.928-.02c-.229,0-.214.117-.124.293l.81.008c-.011,1.019-.021,2.014-.031,3.016l.287,0M11.8,70.77c.16,0,.292.042.381,0,.356-.18.7-.381,1.044-.586a.848.848,0,0,0,.2-.624.463.463,0,0,0-.478-.227,4.637,4.637,0,0,1-.635,0c-.089.254-.169.483-.25.711s-.159.448-.26.729m36.129.043c.05-.736,0-.815-.392-.839a.674.674,0,0,0-.546.218.706.706,0,0,0-.157.742.725.725,0,0,0,1.095-.121M8.706,55.273c-.143.337-.271.695-.448,1.025-.1.191,0,.276.109.347a.494.494,0,0,0,.714-.17,1.844,1.844,0,0,0,.151-1.016.627.627,0,0,0-.051-.181l-.476,0m15.073,2.9c.224.329.469.57.836.407.3-.131.218-.421.175-.663-.564-.227-.564-.227-1.011.256m-9.3,2.8c.438-.143.785-.31.582-.882-.25.06-.574-.137-.76.176a.49.49,0,0,0,.177.706M49.977,71.5c-.006-.213-.165-.341-.431-.344-.326,0-.456.139-.437.481a.362.362,0,0,0,.388.386.639.639,0,0,0,.48-.523M35.37,57.57c.025.271-.089.519.147.642a.759.759,0,0,0,.457.075.332.332,0,0,0,.27-.347.337.337,0,0,0-.263-.355,3.01,3.01,0,0,0-.611-.015m11.121,11.5c.453.492.668.449,1.055-.155a.476.476,0,0,0-.459-.25c-.289,0-.384.234-.6.4m-25.764-6.32c-.019-.766-.025-.77-.852-.651-.077.244.078.383.221.541.175.193.381.1.631.111m-1.888,2.162c-.193-.333-.433-.538-.854-.405,0,.219,0,.442-.007.688.325-.028.677.133.861-.282m-7.4-5.568a1.885,1.885,0,0,0-.289,0c-.263.038-.4.193-.366.409s.173.309.394.315.423-.036.475-.3c-.062-.124-.122-.243-.213-.423m23-5.8c0,.367,0,.367.412.7l.54-.315c-.193-.479-.562-.462-.952-.386M16.962,63.32c0,.308-.082.6.251.7a1.321,1.321,0,0,0,.439-.011c0-.261,0-.469.007-.687l-.7-.007m7.347-8.062a.972.972,0,0,0,.944-.277l-.7-.426c-.356.186-.308.443-.246.7m17.642,9.463a3.121,3.121,0,0,0,0-.425.329.329,0,0,0-.387-.3.359.359,0,0,0-.334.357c-.006.227.134.326.327.361a2.6,2.6,0,0,0,.392.008m-25.9.392c0-.123,0-.234,0-.357l-.638-.007-.187.358c.265.454.557.088.821.006m25.832-5.44c0,.219,0,.38-.006.569l.532-.02c0-.211,0-.371.006-.545l-.532,0m6.288,2.4c-.465-.142-.453.229-.616.5l.611.006c0-.2,0-.357,0-.509M15.709,56.616c-.011-.188.15-.433-.091-.536a.34.34,0,0,0-.466.274c.222.25.222.25.557.263m-2.828,6.105a6.467,6.467,0,0,0,.457.457,1.348,1.348,0,0,0,.37.119c-.184-.417-.339-.674-.827-.576m37.933-2.352-.409,0c0,.15,0,.262,0,.4l.409-.033c0-.142,0-.237,0-.366m-10.781.6.6-.074-.312-.417-.288.49" transform="translate(-2.905 -52.073)" fill="#333"/></g></g><g transform="translate(6.681 14.044)" opacity="0.5"><g clip-path="url(#d)"><path d="M21.932,27.333c.174,0,.328,0,.481.009.211,0,.213.008.261.25l.76.014.739.013.148.229.887.1a.227.227,0,0,0,.25.186c.554,0,1.108.016,1.661.026l.309.006a.665.665,0,0,1,.078.127,1.434,1.434,0,0,0,.245.511c.109.12-.025.177-.013.263-.175.022-.2.2-.3.3a8.543,8.543,0,0,0-.661.643c-.07.077-.194.074-.23.2-.031.108-.185.125-.245.228a.453.453,0,0,1-.249.2c-.031.194-.245.224-.337.373a2.553,2.553,0,0,1-.255.256c-.095.108-.2.2-.308.3l-.287.278c-.17.164-.333.336-.512.489-.148.125-.3.266-.538.193-.009.5-.017.975-.025,1.467l.227.108c-.008.45-.016.909-.024,1.363a1.658,1.658,0,0,1,.2.074c.08.043.05.125.049.193,0,.318-.011.636-.016.951l.244.193c-.008.445-.015.876-.023,1.3l.185.124c-.007.037,0,.064-.014.074-.161.159-.321.317-.487.47-.073.067-.1.051-.189-.056-.043-.054-.085-.108-.173-.1a2.933,2.933,0,0,1-.3,0c-.037-.2.04-.394-.063-.57a.113.113,0,0,1,0-.091c.12-.228.038-.476.077-.7l-.361-.374c-.172,0-.368,0-.562-.012a.511.511,0,0,0-.349.127,5.171,5.171,0,0,1-.456.316.433.433,0,0,1-.472-.049c-.114-.077-.185-.213-.36-.18-.042.007-.106-.046-.144-.086-.1-.106-.247-.116-.35-.189a2.71,2.71,0,0,1-.344-.214c-.249,0-.375-.281-.626-.272l-.237-.246-.31,0c-.12.1-.221.245-.418.243-.066,0-.132.072-.2.109a.979.979,0,0,1-.227.119.6.6,0,0,0-.285.133.254.254,0,0,1-.072.049,1.718,1.718,0,0,0-.369.145,1.083,1.083,0,0,1-.365.168c-.088.022-.155.12-.242.159a3.027,3.027,0,0,0-.373.134.729.729,0,0,1-.365.169.338.338,0,0,0-.172.1.51.51,0,0,1-.284.138.427.427,0,0,0-.205.094.682.682,0,0,1-.312.146.558.558,0,0,0-.293.188.774.774,0,0,1-.492.3c-.069.008-.132.077-.195.122a.142.142,0,0,1-.211-.009c-.07-.074-.142-.148-.227-.235.008-.446.014-.905.027-1.365a.416.416,0,0,1,.053-.162c.156-.315.255-.654.427-.962a.385.385,0,0,0,.032-.171c.007-.215.008-.431.013-.646a.451.451,0,0,1,.054-.194c.069-.145.206-.254.22-.434,0-.052.112-.1.18-.142a.827.827,0,0,1,.473-.117c.082.006.164,0,.246.006a.752.752,0,0,0,.584-.223c.078-.067.148-.142.229-.219,0-.185.007-.377.01-.567a.548.548,0,0,0-.367-.093c-.4,0-.8-.013-1.189-.02l-.158-.156c0-.188.007-.372.01-.571l-.323-.006L11.761,29.94a4.021,4.021,0,0,0-.454-.458c-.153-.115-.219-.312-.413-.389-.051-.02-.071-.151-.08-.235a2.743,2.743,0,0,1,0-.341,4.738,4.738,0,0,1,.57-.491.772.772,0,0,1,.407-.132c.163,0,.326.006.5.009,0-.077,0-.146,0-.207.018-.015.025-.023.033-.029a.061.061,0,0,1,.027-.009l1.668.029c0-.081,0-.15,0-.224a.488.488,0,0,1,.092-.02l1.446.025a.293.293,0,0,0,.25-.07.443.443,0,0,1,.261-.1,1.218,1.218,0,0,0,.806-.546,3.416,3.416,0,0,0,.241-.456.584.584,0,0,0,.156-.371c-.007-.092.115-.191.173-.29.129-.223.253-.447.378-.672a2.248,2.248,0,0,1,.29-.4,2.021,2.021,0,0,0,.223-.4c.142-.251.151-.551.315-.794.114-.167.163-.374.336-.506a.539.539,0,0,1,.629-.066c.042.023.083.061.126.064.169.011.216.132.247.262a2.506,2.506,0,0,0,.134.283c.1.288.292.534.37.834.03.114.137.2.177.327A2.418,2.418,0,0,0,20.9,25a3.276,3.276,0,0,0,.192.413c.095.123.1.285.185.417a.706.706,0,0,1,.171.39c.153.158.169.392.284.557a1.028,1.028,0,0,1,.2.559m-4.064,6.394c-.079-.077-.079-.077-.2,0l.135,0a.152.152,0,0,0,.182.127c.063.114.156.048.248.066-.008-.2-.13-.189-.246-.189l-.124,0m2.007,1.39-.051.019.051.043c0,.139,0,.278-.007.409.169.08.223-.06.31-.129,0-.07,0-.142,0-.212,0-.2-.112-.241-.305-.13M16.793,31.8l-.062.061c0,.224-.012.448-.011.672a.294.294,0,0,0,.321.313.813.813,0,0,0,.257-.114.117.117,0,0,0,.033-.073c-.108-.07,0-.132.009-.2a.569.569,0,0,0-.182-.507,1.852,1.852,0,0,1-.145-.152l-.219,0M15.37,29.681c-.051.078-.1.139-.135.206s-.044.126-.075.184a.827.827,0,0,1-.129.19.314.314,0,0,0-.011.486.639.639,0,0,1,.064.127,1.261,1.261,0,0,0,.634.587,1.7,1.7,0,0,0,.588.152.724.724,0,0,0,.626-.627,1.765,1.765,0,0,1,.061-.5.791.791,0,0,0,.064-.516.339.339,0,0,1-.1-.046.764.764,0,0,0-.612-.232c-.316.012-.634-.007-.972-.013m4.012-3.63a.6.6,0,0,0,.476-.1.647.647,0,0,0,.185-.776.188.188,0,0,0-.177-.093c-.2.006-.4,0-.551-.007l-.188.21a.314.314,0,0,0,0,.506c.082.091.17.177.254.264m3.367,5.713c-.049-.2-.21-.3-.329-.433a.215.215,0,0,0-.268-.016c-.072.054-.142.11-.213.165a.487.487,0,0,0,.246.471.552.552,0,0,0,.563-.187m-6.871,3.964c-.048.129-.1.261-.145.394a.128.128,0,0,0,0,.09c.051.091.108.18.164.268a.239.239,0,0,0,.035.038l.3,0a3.209,3.209,0,0,0,.053-.372c.007-.272-.1-.384-.405-.422" transform="translate(-10.809 -22.722)" fill="#333"/><path d="M22.109,40.492h-.062l-.134,0c.116-.074.116-.074.2,0" transform="translate(-15.05 -29.487)" fill="#333"/><path d="M20.452,37.409l-.062.061.062-.061" transform="translate(-14.469 -28.332)" fill="#333"/><path d="M25.446,42.777c0,.02,0,.041,0,.062l-.05-.043.051-.019" transform="translate(-16.38 -30.382)" fill="#333"/></g></g><g transform="translate(19.59)" opacity="0.5"><g clip-path="url(#e)"><path d="M49.643,6.614A9.84,9.84,0,0,1,48.5,7.7c-.094.074-.111.234-.267.24-.036.175-.215.226-.314.35a4.33,4.33,0,0,1-.421.377c-.094.09-.137.235-.29.26A.37.37,0,0,1,47,9.16c-.078.042-.119.146-.187.213q-.516.505-1.039,1a.677.677,0,0,1-.562.23c-.009.478-.017.956-.026,1.45l.224.108c-.007.449-.015.907-.023,1.357.081.037.168.053.213.105a.323.323,0,0,1,.035.2c0,.316-.01.633-.015.925l.242.19c-.007.443-.015.873-.023,1.3a.332.332,0,0,1,.244.388,2.785,2.785,0,0,0-.009.377l-.6-.011a.488.488,0,0,0-.321-.21.432.432,0,0,1-.313-.2c-.061-.1-.248-.069-.234-.238l-.288-.206.539-.447c0-.142,0-.273.007-.411l-.826-.015a.829.829,0,0,0-.09.144c-.054.137-.1.307-.257.326a.657.657,0,0,1-.591-.129.862.862,0,0,0-.255-.123c-.052-.023-.127-.028-.154-.067-.109-.162-.312-.15-.447-.26a1.59,1.59,0,0,0-.434-.211c-.122-.049-.218-.171-.341-.211a.9.9,0,0,1-.356-.184.679.679,0,0,0-.208-.087c-.062-.025-.15-.033-.179-.079-.129-.2-.32-.187-.514-.179,0-.159.006-.319.008-.48l-.252,0c.016.169-.018.326.011.48l.171,0c0,.061,0,.123,0,.185-.027.02-.051.051-.082.057a1.131,1.131,0,0,0-.23.036c-.19.088-.368.2-.567.269-.138.051-.259.151-.412.2-.125.036-.224.161-.349.2a.853.853,0,0,0-.362.172.366.366,0,0,1-.182.077.575.575,0,0,0-.286.133.434.434,0,0,1-.2.1.738.738,0,0,0-.287.128,2.519,2.519,0,0,1-.261.114.865.865,0,0,0-.2.1.672.672,0,0,1-.313.145.658.658,0,0,0-.266.171c-.156.135-.282.312-.519.317a.139.139,0,0,0-.074.043.953.953,0,0,1-.807.163c0-.162.016-.324.006-.485-.009-.142.032-.23.177-.263.026-.006.045-.04.078-.072.008-.447.016-.906.024-1.362.235-.048.247-.059.251-.259.007-.318.012-.636.017-.957a1.2,1.2,0,0,0,.206-.084c.087-.054.04-.151.043-.227.011-.307.02-.615.016-.923a.616.616,0,0,1,.522-.513c.278,0,.411-.078.472-.35a.425.425,0,0,1,.377-.374c.108-.02.112-.046.124-.232l-.721-.012c.022.222-.151.339-.292.477l-.184,0c-.007-.007-.02-.014-.02-.021,0-.233.007-.466.012-.71l-.341-.006c-1.057-1.1-2.1-2.182-3.154-3.264A2.4,2.4,0,0,0,31.7,6.58c.043-.058.064-.116.1-.13a1.054,1.054,0,0,0,.408-.35.352.352,0,0,1,.3-.158c.389.008.779.014,1.186.021.008-.077.015-.153.025-.24l1.711.03c0-.087,0-.163,0-.25l1.716.03c0-.079,0-.148,0-.239.118,0,.227,0,.336,0s.205,0,.307,0c.188,0,.245-.064.3-.254.036-.127.064-.258.112-.384s.207-.131.205-.279.1-.226.177-.327a.459.459,0,0,0,.078-.336.5.5,0,0,1,.178-.45.244.244,0,0,0,.076-.09,3.476,3.476,0,0,1,.643-1.022.471.471,0,0,0,.122-.32,2.061,2.061,0,0,1,.007-.276c0-.045.025-.11.057-.126a.335.335,0,0,0,.2-.316A.189.189,0,0,1,40.02.992.623.623,0,0,0,40.206.41c.1-.251.451-.13.523-.41l.2,0a.676.676,0,0,0,.087.143.6.6,0,0,1,.176.481A.4.4,0,0,0,41.3.957a.92.92,0,0,1,.128.313c0,.009,0,.025,0,.03.187.161.183.421.318.609.012.016.034.028.038.046.072.3.287.535.362.836a2.9,2.9,0,0,0,.185.355,3.941,3.941,0,0,0,.211.405,2.582,2.582,0,0,0,.191.414c.1.121.1.284.185.416a.864.864,0,0,1,.174.39.115.115,0,0,0,.039.075.747.747,0,0,1,.21.549c.159,0,.321,0,.482.009.2.006.211.015.26.25.5.009,1,.016,1.5.028.161,0,.17.018.206.249l.662.012c.277,0,.554.008.831.015.184,0,.189.012.233.25.414.007.833.011,1.25.025A2,2,0,0,1,49.1,6.3a.1.1,0,0,1,.049.029c.067.071.081.218.235.159.084.083.172-.009.257,0,0,.041,0,.082,0,.123M41.748,3.888l-.061-.062a.5.5,0,0,0-.3.08c0,.151,0,.3-.008.457l.744.013c-.017-.069-.014-.139-.048-.176-.1-.111-.216-.209-.325-.312m-4.414,5.9.184,0,.063-.06A.676.676,0,0,0,37.813,9l-.941-.017c-.056.121-.139.229-.023.35s.242.257.365.384c.01.011.04,0,.06,0l.061.062m2.787-4.44c0,.21-.007.394-.011.6l-.487.469c0,.135,0,.265-.007.387l.971.017c0-.079,0-.15,0-.219,0-.23,0-.23-.262-.3.029-.063.041-.153.087-.175a2.233,2.233,0,0,0,.427-.358c0-.139,0-.27.007-.405l-.729-.013M43.507,8.61,43.019,8.6c-.009.48-.017.949-.025,1.418a.051.051,0,0,0,.009.027c.006.009.014.015.01.011l.467.008c.009-.489.017-.967.026-1.456m-6.645-.627c.006-.339.011-.655.017-.978l-1.053-.018A.042.042,0,0,0,35.8,7a.1.1,0,0,0-.017.021l.342.354a.655.655,0,0,1,.273.6l.463.008m-.089,6.258c0,.129,0,.258-.007.4l.374.007c.119,0,.237,0,.355,0,.006-.33.011-.636.015-.943,0-.007-.011-.015-.02-.026-.189-.035-.336-.017-.427.2a1.687,1.687,0,0,1-.29.365m4.519-5.188c.117,0,.21,0,.3.007a.387.387,0,0,0,.32-.1.343.343,0,0,0,.106-.372L41.3,8.571c0,.161-.006.31-.009.481m-2.378.938c-.14-.163-.247-.29-.358-.413a.273.273,0,0,0-.373-.089.236.236,0,0,1-.1.015c0,.169-.006.319-.009.473l.834.015M40.64,3.86a2.378,2.378,0,0,0,.481.007c0-.173.006-.324.009-.483-.168,0-.326-.014-.481,0,0,.168-.006.311-.009.475m4.13,3.782c0,.093,0,.182,0,.281l.2.2.271,0c0-.165.006-.322.008-.478l-.47-.009M42.565,6.13l-.226,0q-.006.375-.013.718l.226,0c0-.242.008-.474.012-.718m-1.087,6.626c0,.176-.006.326-.009.488l.227-.007c0-.172.006-.322.009-.478l-.227,0" transform="translate(-31.696)" fill="#333"/><path d="M45.368,23.167c0-.062,0-.123,0-.185h.062c-.025.06.054.157-.065.184" transform="translate(-36.918 -8.778)" fill="#333"/><path d="M60.733,10.624c0-.041,0-.082,0-.123l.06.077-.062.046" transform="translate(-42.787 -4.011)" fill="#333"/><path d="M47.922,6.252l-.061-.062.061.062" transform="translate(-37.87 -2.364)" fill="#333"/><path d="M40.72,15.727l.061.062-.061-.062" transform="translate(-35.143 -6.007)" fill="#333"/><path d="M41.116,15.8l.062-.061-.062.061" transform="translate(-35.294 -6.01)" fill="#333"/></g></g><g transform="translate(31.358 13.313)" opacity="0.5"><g clip-path="url(#f)"><path d="M67.241,27.592l.008.222c.02.009.036.024.054.025q.661.014,1.323.024c.04,0,.087-.008.092.048a.116.116,0,0,1-.033.077c-.056.06-.117.115-.176.172q-1.86,1.8-3.717,3.593c-.16.156-.311.29-.565.209-.009.5-.017.975-.026,1.47.051.059.144-.007.224.039-.008.473-.017.952-.025,1.422.075.078.168.011.254.067-.006.336-.012.683-.017,1.029,0,.083-.025.156.1.208s.14.2.136.336c-.009.328-.012.656-.019.985,0,.072,0,.116.093.15a.216.216,0,0,1,.147.239c-.007.038.009.078-.028.112-.12.112-.229.237-.358.337a.18.18,0,0,1-.245-.017.751.751,0,0,0-.4-.232.382.382,0,0,1-.216-.145c-.058-.083-.146-.145-.209-.225a.268.268,0,0,0-.261-.116.3.3,0,0,1-.152-.006.22.22,0,0,1-.093-.11c-.02-.044.032-.067.056-.1.039-.049.114-.026.151-.083a.478.478,0,0,1,.507-.189c.163.015.328.008.494.011.055-.072.018-.157.031-.235a.262.262,0,0,0-.095-.269.42.42,0,0,1-.146-.278.475.475,0,0,0-.106-.233.494.494,0,0,0-.491-.232.835.835,0,0,1-.184,0c-.1-.006-.191-.022-.231.116a.215.215,0,0,1-.158.128c-.061.014-.108.062-.161-.019a2.061,2.061,0,0,0-.147-.157.185.185,0,0,0-.181-.083.246.246,0,0,1-.258-.119c-.085-.122-.244-.185-.28-.349-.007-.031-.043-.036-.075-.036a1.666,1.666,0,0,0-.215,0c-.344.045-.5-.182-.648-.431a.188.188,0,0,1-.034-.139.149.149,0,0,0-.089-.176c-.141-.051-.154-.155-.151-.275,0-.152,0-.3.008-.474-.153,0-.295,0-.436-.01a.168.168,0,0,0-.183.119c-.1.218-.31.351-.421.561-.036.069-.106.048-.164.047-.216,0-.431-.008-.646-.011a.363.363,0,0,0-.385.356.907.907,0,0,0,0,.153.651.651,0,0,1-.188.512c-.13.155-.313.234-.429.392a.122.122,0,0,1-.105.045,1.19,1.19,0,0,1-.937-.342c-.036-.036-.066-.091-.109-.105-.195-.061-.2-.22-.2-.377,0-.257.006-.513.013-.769,0-.083,0-.133-.1-.177A.248.248,0,0,1,56.294,34c.024-.156.021-.168.254-.2,0-.114,0-.235.007-.355a.452.452,0,0,0-.138-.438c-.087-.068-.051-.132.086-.184a.317.317,0,0,0,.091-.251.473.473,0,0,0-.123-.258.449.449,0,0,1-.133-.434.057.057,0,0,1,.092-.038c.077.066.142.149.217.218a3.229,3.229,0,0,0,.594.556.15.15,0,0,1,.067.157c-.01.164-.011.328-.011.493a.362.362,0,0,0,.3.314c.441.011.882.017,1.323.024a.262.262,0,0,0,.059,0c.038-.191.312-.231.291-.465-.014-.162,0-.326.006-.514-.156,0-.307-.01-.457-.007a.245.245,0,0,1-.212-.087q-.224-.253-.47-.487a.253.253,0,0,1-.079-.215c.011-.389.015-.779.022-1.189-.221-.014-.444-.071-.6.19a5.753,5.753,0,0,1-.591-.585.2.2,0,0,1,.019-.269,2.565,2.565,0,0,1,.245-.234.422.422,0,0,1,.294-.108c.174.009.349.009.523.011.078,0,.157.022.223-.058a.5.5,0,0,0,.151-.275c.011-.164.009-.328.011-.492,0-.029.008-.057-.02-.085-.111-.105-.211-.221-.328-.318a.209.209,0,0,0-.283,0,1.3,1.3,0,0,0-.352.369.192.192,0,0,1-.219.113,2.373,2.373,0,0,0-.338-.007.433.433,0,0,1-.449-.182.136.136,0,0,0-.152-.076.259.259,0,0,1-.284-.129.4.4,0,0,0-.261-.176.665.665,0,0,0-.347.109.31.31,0,0,0-.17.294c0,.533-.011,1.067-.027,1.6a.293.293,0,0,0,.1.267,1.254,1.254,0,0,1,.36.622c.056.166-.041.3-.1.437a2.041,2.041,0,0,1-.535.634c-.015.014-.055.008-.081,0-.011,0-.02-.033-.02-.051,0-.133,0-.266.006-.4-.049-.057-.115-.029-.172-.031a.39.39,0,0,1-.286-.129q-.137-.146-.278-.287a.585.585,0,0,1-.237-.459.123.123,0,0,0-.137-.128.494.494,0,0,1-.381-.2Q52.108,29.3,50.845,28c-.064-.067-.13-.129-.1-.235.007-.028,0-.057.025-.083.114-.1.218-.216.34-.3a.444.444,0,0,1,.281-.064c.438.015.878.019,1.326.027.006-.083.011-.152.018-.242l1.711.03.015-.239,1.678.03c.08-.075.016-.167.056-.237a.2.2,0,0,1,.055-.017c.175,0,.349.009.523.007.077,0,.159.033.229-.04a.435.435,0,0,0,.171-.3.591.591,0,0,1,.161-.4.336.336,0,0,0,.1-.2.369.369,0,0,1,.112-.229.569.569,0,0,0,.146-.279.434.434,0,0,1,.1-.2.565.565,0,0,0,.155-.308.32.32,0,0,1,.116-.193.347.347,0,0,0,.135-.347.48.48,0,0,1,.181-.448.744.744,0,0,0,.138-.219c.074-.119.145-.24.309-.248a.074.074,0,0,0,.053-.019,1.27,1.27,0,0,1,.48-.336c.15-.074.213-.207.148-.324-.054-.1.012-.277-.185-.3-.08-.011-.065-.119-.014-.171.172-.176.35-.347.531-.514a.284.284,0,0,1,.287-.021c.085.025.1.118.085.206-.009.071,0,.145-.007.215a.33.33,0,0,0,.126.349c.033.022.037.071.056.1.08.113.046.27.153.369a.587.587,0,0,1,.152.338c.014.071.082.129.121.2a.572.572,0,0,1,.105.234.4.4,0,0,0,.106.232.568.568,0,0,1,.132.286.413.413,0,0,0,.079.181.577.577,0,0,1,.161.337c.006.069.072.133.109.2a.941.941,0,0,1,.119.227.612.612,0,0,0,.132.285.247.247,0,0,1,.049.072,1.777,1.777,0,0,0,.145.369,1.142,1.142,0,0,1,.168.364c.036.135.15.238.193.383.025.082,0,.158.038.254l.719.012c0,.09.006.159.008.24l1.674.03c.083.077.014.167.057.25l.714.012c0,.25-.009.491-.013.73.214.048.352.027.456-.187a.928.928,0,0,1,.3-.366c0-.179.138-.054.206-.085.02-.01.048.028.041.064-.017.091.018.124.113.122.2,0,.406,0,.616.009M61.119,26c0-.129,0-.242.009-.352a.326.326,0,0,0-.084-.24,1.959,1.959,0,0,1-.44-.591c-.218-.136-.21-.347-.193-.564.007-.092-.006-.185.007-.276a.414.414,0,0,0-.158-.4c-.116-.1-.162-.116-.279-.01-.159.145-.311.3-.465.447-.11.106-.265.195-.319.324a1.386,1.386,0,0,0-.027.483c-.007.326-.006.326.22.553.036.036.065.095.108.106.133.038.132.148.146.245a1.57,1.57,0,0,1,0,.247L61.119,26m-1.482.228a3.7,3.7,0,0,1-.4-.01.572.572,0,0,0-.6.558,2.325,2.325,0,0,1,0,.245c0,.109-.05.171-.159.169-.062,0-.092.013-.093.082,0,.295-.009.59-.015.9l.649.011c.029,0,.065.013.082-.022.1-.2.36-.339.268-.627a.574.574,0,0,1,0-.153c0-.108.048-.177.157-.171s.095-.043.1-.111c0-.285.009-.57.015-.875m3.862,4.5a.547.547,0,0,1-.422-.09c-.184-.163-.4-.277-.577-.457a.836.836,0,0,0-.465-.281c-.007.391-.014.757-.019,1.122,0,.038-.011.077.025.112.169.167.3.381.6.326a2.416,2.416,0,0,1,.458,0,.36.36,0,0,0,.389-.347c.01-.121.006-.242.009-.389m-1.676-2.752c0-.239.008-.483.013-.726a.222.222,0,0,0-.042-.137,4.262,4.262,0,0,1-.26-.538.836.836,0,0,0-.37-.378c-.116.13-.026.287-.055.43a.605.605,0,0,0,0,.153.114.114,0,0,1-.045.105c-.038.032,0,.121-.105.117-.033,0-.08.1-.1.159a1.048,1.048,0,0,0-.018.179c0,.016-.027.03-.043.043a.574.574,0,0,0-.191.59l1.146.02a.436.436,0,0,0,.073-.016m-.329,4.671c0-.093,0-.184,0-.275.007-.375.006-.374-.26-.629a.208.208,0,0,0-.156-.071c-.337,0-.674-.009-1.011-.015-.039,0-.084-.011-.1.04s.017.076.048.1c.121.1.2.246.357.315a.745.745,0,0,1,.273.219.772.772,0,0,0,.844.315m1.8-4.135c0,.2-.008.378-.009.551,0,.038-.019.08.016.115.167.167.3.376.6.339.14-.017.256-.062.3-.163.07-.181.207-.373.046-.585a.453.453,0,0,1-.494-.2.137.137,0,0,0-.13-.057c-.1,0-.2,0-.323,0M60.8,29.7c-.208,0-.41,0-.61-.014a.3.3,0,0,0-.31.178.34.34,0,0,0-.053.3l.964.017c0-.163.006-.313.009-.479" transform="translate(-50.736 -21.54)" fill="#333"/><path d="M55.63,45.6c0-.207.01-.381.009-.555,0-.109.045-.177.151-.178.083,0,.1-.028.1-.1,0-.45.014-.9.022-1.345.074-.063.165.006.245-.051.007-.389.014-.786.021-1.177.075-.049.148-.016.247-.028.012-.4.015-.8.025-1.227.19,0,.373.019.553.006a.572.572,0,0,1,.475.2.565.565,0,0,1,.194.509c-.021.172-.007.348-.014.522,0,.116-.013.227-.162.268a.149.149,0,0,0-.093.173.693.693,0,0,1,0,.214c-.053.269.113.412.309.527a.992.992,0,0,1,.393.376,1.045,1.045,0,0,0,.2.29.192.192,0,0,1,0,.288c-.158.145-.282.334-.535.353-.061,0-.153.1-.221.125a1.851,1.851,0,0,0-.773.517c-.077-.022-.109.078-.188.067a.264.264,0,0,0-.229.1.39.39,0,0,1-.379.132c-.111-.007-.223,0-.354-.007" transform="translate(-52.605 -28.948)" fill="#333"/><path d="M67.787,45.556c-.08.029-.156-.032-.223-.118-.019-.024-.039-.059-.064-.065a3.733,3.733,0,0,1-.635-.322,1.658,1.658,0,0,1-.331-.17.317.317,0,0,0-.235-.1c-.036,0-.09.025-.111-.022s-.132-.008-.132-.1a.133.133,0,0,1,.11-.125.435.435,0,0,0,.209-.165.254.254,0,0,1,.3-.053,1.492,1.492,0,0,1,.5.276,2.79,2.79,0,0,0,.377.275.36.36,0,0,1,.167.2.72.72,0,0,0,.2.29c.045.042.142.083.085.167-.036.053-.114.014-.211.026" transform="translate(-56.587 -30.232)" fill="#333"/></g></g></g></g></svg>