<svg xmlns="http://www.w3.org/2000/svg" xmlns:xlink="http://www.w3.org/1999/xlink" width="54.447" height="88.092" viewBox="0 0 54.447 88.092"><defs><clipPath id="a"><rect width="54.447" height="88.092" fill="none"/></clipPath><clipPath id="c"><rect width="54.447" height="68.423" fill="none"/></clipPath><clipPath id="d"><rect width="18.147" height="17.012" fill="none"/></clipPath></defs><g clip-path="url(#a)"><g clip-path="url(#a)"><g transform="translate(0 19.669)" opacity="0.56"><g clip-path="url(#c)"><path d="M52.929,78.871a.709.709,0,0,1-.152.525,8.357,8.357,0,0,1-2.97,2.017,5.2,5.2,0,0,1-1.175.325,10.844,10.844,0,0,1-2.579.277,7.1,7.1,0,0,1-3.824-1.17,4.662,4.662,0,0,1-1.949-1.424,5.572,5.572,0,0,1-1.5-2.881c-.052-.274-.093-.543-.119-.82a4.118,4.118,0,0,0-.125-.543,3.434,3.434,0,0,0,.792-1.4c.024-.128-.053-.281-.016-.4a4.568,4.568,0,0,1,.254-.477c.065-.142.095-.3.157-.445a.671.671,0,0,1,.16-.224,3.856,3.856,0,0,0,.891-1.526c.206-.521.44-1.032.638-1.559.127-.336.116-.719.413-1a8.053,8.053,0,0,0,.682-.8,1.29,1.29,0,0,0,.182-.288A7.284,7.284,0,0,0,43.35,65.8c.037-.157.141-.374.076-.465-.276-.387.016-.621.147-.931a1.337,1.337,0,0,1,.611-.605c-.168-.81.4-1.465.671-2.206a6.811,6.811,0,0,0,.577-1.292,4.3,4.3,0,0,1,.142-.516,2.011,2.011,0,0,0-.881-.271,8,8,0,0,1-1.7-.463,15.373,15.373,0,0,1-2.406-1.236A17.688,17.688,0,0,1,38.79,56.7c-.415,0-.706-.29-1.055-.446a1,1,0,0,0-.331-.009c0,.138.039.329-.01.355-.41.222-.413.663-.564,1.014a7.3,7.3,0,0,1-1.315,2,8.346,8.346,0,0,1-.686.8,11.468,11.468,0,0,1-3.615,2.2c-.4.143-.811.283-1.221.387-.3.077-.395.2-.4.478,0,.924-.016,1.848-.026,2.821a6.35,6.35,0,0,0,.662.561,1.768,1.768,0,0,1,.61.755,1.857,1.857,0,0,1,.153.8,2.049,2.049,0,0,1-.152.737,3.03,3.03,0,0,1-.363.577c-.256.37-.246.361-.034.707a1.012,1.012,0,0,1,.244.7.59.59,0,0,0,.208.644.255.255,0,0,1,.069.186,4.937,4.937,0,0,1-.04,1.45c-.165.521-.262,1.06-.395,1.581-.169.66-.427,1.3-.533,1.978a8.916,8.916,0,0,0-.26,1.277c-.013,1.167-.024,2.334-.037,3.551.23.01.464.024.7.03s.487.014.729.006a1.219,1.219,0,0,1,.833.288,1.37,1.37,0,0,1,.477.9c.047.277.173.632-.2.856.219.222.319.523.647.45.236-.053.452.356.683.014a1.884,1.884,0,0,1,1.624.816c.061.144.014.33.057.486a4.055,4.055,0,0,1-.135,2.206,1.141,1.141,0,0,1-1.148.73q-4.922-.062-9.845-.1c-1.313-.014-2.625-.025-3.938-.042a1.117,1.117,0,0,1-1.18-.872,2.123,2.123,0,0,1-.162-.888,5.573,5.573,0,0,0,.019-.873c.007-.563.063-.667.565-1.065a.763.763,0,0,0,.1-.1,1.332,1.332,0,0,1,1.137-.432c1.254.037,1.151.137,1.126-1.1a1.226,1.226,0,0,1,.367-1,1.378,1.378,0,0,1,1.014-.356,12.077,12.077,0,0,0,1.282.022,3.35,3.35,0,0,0,.132-.823c-.062-.676.191-1.315.18-1.981,0-.193.017-.379-.173-.516a.335.335,0,0,1-.108-.241c0-.3-.108-.606-.117-.89-.029-.821-.382-1.564-.465-2.364-.218-.169-.089-.4-.109-.608s.057-.443-.187-.581c-.041-.023-.1-.076-.1-.1.122-.543-.419-1.092.012-1.63a1.557,1.557,0,0,1,.444-1.2,1.657,1.657,0,0,0,.156-.444c.05-.15.1-.3.162-.5-.08-.082-.183-.178-.276-.283a1.2,1.2,0,0,1-.317-.82,2.339,2.339,0,0,0-.059-1.062c-.045-.1.1-.326.206-.439.315-.318.659-.608,1.055-.967.009-.9.015-1.889.032-2.882a.426.426,0,0,0-.374-.494,10.2,10.2,0,0,1-2.252-.9,9.834,9.834,0,0,1-2.191-1.568,10.078,10.078,0,0,1-1.72-2.071,21.276,21.276,0,0,1-.972-2c-.181-.418-.2-.45-.646-.254-.811.355-1.556.831-2.328,1.256a16.416,16.416,0,0,1-3.507,1.567,4.705,4.705,0,0,1-1.016.176,1.184,1.184,0,0,0-.9.416c.316.681.641,1.372.96,2.066.206.449.415.9.6,1.356a.562.562,0,0,1-.056.6c-.311.417-.262.677.134.947.11.075.248.188.359.173.45-.058.511.333.587.571a5.072,5.072,0,0,0,.253.626c.7,1.462,1.3,2.967,1.988,4.431a11.913,11.913,0,0,1,.766,1.722c.178.618.561,1.13.773,1.724.014.041.06.07.153.173a2.943,2.943,0,0,0-.544,0,2.6,2.6,0,0,0-.478.21l.319.4.684-.339c.379.467.2,1,.233,1.5a19.557,19.557,0,0,1-.855,2.2,5.951,5.951,0,0,1-2.4,2.425,15.526,15.526,0,0,1-2.237.947,6.747,6.747,0,0,1-.881.148,7.184,7.184,0,0,1-1.829.173,9.91,9.91,0,0,1-1.685-.205,5.266,5.266,0,0,1-1.451-.536,5.835,5.835,0,0,1-2.014-1.379c.086-.181.185-.382.277-.586.138-.308.057-.435-.263-.579a2.938,2.938,0,0,0-1.182-.153l-.106-.09a3.407,3.407,0,0,1-.987-2.146A6.556,6.556,0,0,1,0,75.068a3.161,3.161,0,0,1,.334-1.33c.215-.518.518-1,.775-1.5a3.969,3.969,0,0,0,.273-.618c.133-.417.346-.831.86-.9a.441.441,0,0,0,0-.092,2.191,2.191,0,0,1-.117-.666,1.765,1.765,0,0,1,.3-.6c.166-.273.358-.53.518-.806a1.587,1.587,0,0,0,.195-.5c.08-.452.415-.8.47-1.27.013-.114.2-.2.286-.315a1.071,1.071,0,0,0,.143-.3A6.3,6.3,0,0,1,4.36,65.2a3.014,3.014,0,0,1,.545-.588c.122-.763-.059-.9,1.049-1.884a12.858,12.858,0,0,1,1.082-3.211c-.2-.268-.652-.316-.689-.718a.855.855,0,0,0-.365-.652c-.278-.2-.252-.532-.376-.8-.107-.225.078-.443.168-.651.126-.289.271-.569.421-.846a1.649,1.649,0,0,1,1.569-.936,2.852,2.852,0,0,1,1.569.279.761.761,0,0,0,.62-.014,18.664,18.664,0,0,0,3.108-1.832l.4.5a1.185,1.185,0,0,1,.313-.174c.28-.051.275-.247.332-.467.14-.533.454-1.046,1.013-1.1a3.312,3.312,0,0,0,1.118-.493,1.386,1.386,0,0,0,.567-.553,1.776,1.776,0,0,0,.226-.777,1.153,1.153,0,0,1,.425-.846.49.49,0,0,0,.144-.636c-.112-.188-.072-.253.026-.419.342-.582.608-1.21.964-1.783a9.279,9.279,0,0,1,2.322-2.449,13.328,13.328,0,0,1,3.889-1.9,1.084,1.084,0,0,1,.2-.016,5.692,5.692,0,0,0,0-.7,7,7,0,0,1,.349-1.838c.046-.306.369-.566.549-.858a8.345,8.345,0,0,0,1.058-1.82.536.536,0,0,1,.5-.429c.275,0,.6-.074.654.35a14.4,14.4,0,0,1,1.358,2c.087.125.446,1.214.509,1.393a1.861,1.861,0,0,1-.007,1.418.4.4,0,0,0,.276.563,5.285,5.285,0,0,0,.894.322,3.718,3.718,0,0,1,1.108.476c.3.157.568.383.872.535a4.329,4.329,0,0,1,1.239.873,1.566,1.566,0,0,0,.655.524,25.15,25.15,0,0,1,1.609,2.184,11.383,11.383,0,0,1,1.025,2.421,5.131,5.131,0,0,1,.246.992,1.154,1.154,0,0,0,.721,1.111c.8.37,1.534.869,2.3,1.317.25.147.417.49.261.677-.257.308-.234.6,1.551,2.077,1.577,1.058,1.536.984,1.475.957A13.44,13.44,0,0,1,42.1,55.568c-.168-.113-.362-.189-.525-.308-.179-.13-.434-.262-.483-.44-.089-.322-.427.014-.488-.246,0-.021-.03-.039-.049-.052a21.993,21.993,0,0,0-2.394-1.488c-.2.052-.074.394-.354.3a.5.5,0,0,0,.021.874,1.288,1.288,0,0,0,.214.094c-.188.359-.176.513.035.633.116.066.251.1.371.157a14.772,14.772,0,0,1,1.8.909,24.317,24.317,0,0,0,2.951,1.66,4.261,4.261,0,0,0,.443.161c.039.578.087.66.4.681a.643.643,0,0,0,.635-.448c.056-.316-.181-.394-.416-.468,0-.212-.093-.434-1.528-1.758-1.245-1.181-.9-1.35-.694-1.784.112.085.175.165.255.188a2.507,2.507,0,0,1,1.247.681,1.34,1.34,0,0,0,.569.366c.405.076.732.442,1.183.319a2.067,2.067,0,0,0,.32-.105,2.792,2.792,0,0,1,1.86-.085,2.048,2.048,0,0,1,1.3,1.1,2.461,2.461,0,0,1-.269,2.781c-.107.16-.335.237-.5.362-.283.215-.256.273-.167.7a6.943,6.943,0,0,0,.712,1.6A1.513,1.513,0,0,1,48.71,63a.61.61,0,0,0,.434.654c.2.09.234.23.306.417.184.481.465.924.666,1.4a2.288,2.288,0,0,1,.3,1.347c.558.341.646.972.915,1.5.747,1.46,1.274,3.021,2.059,4.464.088.711.692,1.223.751,1.945.41.09.3.413.277.669a3.942,3.942,0,0,1-.084.763A9.283,9.283,0,0,1,53.665,78c-.148.279-.3.556-.475.82-.034.053-.172.037-.273.057a1.528,1.528,0,0,1,.065-.273c.079-.21.243-.424.227-.626a2.037,2.037,0,0,0-.278-.894,1.221,1.221,0,0,1-.115-.751c0-.109.1-.217.178-.377l-.515,0-11.728-.121a1.647,1.647,0,0,0-.364,0,2.725,2.725,0,0,0-.395.147c.125.377.22.7.341,1.015a6.207,6.207,0,0,0,3.46,3.119,3.335,3.335,0,0,1,.935.366.918.918,0,0,0,.647.216,2.234,2.234,0,0,1,1.79.444c.046.047.255.011.324-.055a1.983,1.983,0,0,1,1.033-.657,6.631,6.631,0,0,0,2.555-1.4.925.925,0,0,1,1.024-.277c.3.148.56.057.827.125M32.08,44.469c-.057.1-.1.153-.093.173a1.1,1.1,0,0,0,.139.172c-.012-.1-.026-.191,0,0,0,.073-.032.183,0,.211.3.246.368.627.565.932.084.129.1.3.185.429a.353.353,0,0,0,.591.067c.154-.14.289-.3.463-.485-.408-.354-.775-.679-1.149-.994a.742.742,0,0,0-.3-.151c-.115-.027-.24-.009-.407-.356m-4.5,17.366a2.875,2.875,0,0,0,0,.434c.028.195.231.356.4.289a.62.62,0,0,0,.314-.308.331.331,0,0,0-.281-.406,3.46,3.46,0,0,0-.481-.009,7.726,7.726,0,0,0,.876-2.348,7.218,7.218,0,0,0,.347-2.583c-.391-.069-.769.051-1.135-.157a.7.7,0,0,0-.631,0c-.235.179-.458.095-.686.115-.317.028-.284.019-.289.446a10.144,10.144,0,0,0,.283,2.068,12.279,12.279,0,0,0,.685,2.118c.135.342.333.345.6.345M7.293,62.38c-.288.533-.518.922-.71,1.329a8.177,8.177,0,0,1-.5,1.173A7.147,7.147,0,0,0,5.5,66.1c-.246.554-.538,1.085-.755,1.655s-.568,1.063-.773,1.647c-.2.564-.539,1.08-.78,1.64-.425.99-.941,1.94-1.415,2.909-.015.031.021.085.035.134l.4.074a2.013,2.013,0,0,0,0,.245c.039.322-.041.56-.405.624-.062.011-.114.074-.174.106-.367.2-.419.423-.181.787.051.077.135.145.153.228a5,5,0,0,0,1.063,1.894c.239.323.425.719.9.775a13.883,13.883,0,0,0,1.751,1.044,1.427,1.427,0,0,0,.542.265c.284.047.583,0,.871.026s.591.1.886.149a8.088,8.088,0,0,0,2.124-.148,2.173,2.173,0,0,0,1.1-.3c.71-.562,1.634-.8,2.222-1.546a1.312,1.312,0,0,1,.78-.538.677.677,0,0,0,.7-.533,4.928,4.928,0,0,1-.372-.838c-.037-.152.1-.341.13-.518a1.528,1.528,0,0,0-.023-.351l-10.762-.11c0-.238,0-.453.007-.669.014-.366.108-.466.458-.468q.692,0,1.384.014c.448.011.866-.195,1.327-.145.395.042.481-.078.487-.5.018-1.383.019-2.768.05-4.152a2.766,2.766,0,0,1,.141-1.329.686.686,0,0,0,0-.568,1.616,1.616,0,0,1-.113-.969c.017-.345-.127-.719.143-1.035a.219.219,0,0,0,0-.21c-.261-.323-.112-.693-.123-1.038-.019-.6,0-1.206.013-1.972m22.96,9.31c-.149-.118-.284-.307-.447-.335a1.557,1.557,0,0,1-.871-.54,1.121,1.121,0,0,0-.866-.374c-.753.009-1.506-.011-2.263-.018a2.048,2.048,0,0,0-.354.359,3.807,3.807,0,0,0-.584,1.135,4.751,4.751,0,0,0,.16,2.246,3.922,3.922,0,0,1,.21,1.458c.385.128.278.5.349.779a7.646,7.646,0,0,1,.361,2.106c-.022.923-.026,1.846-.03,2.768,0,.465.057.522.541.531.579.011,1.159.013,1.718.019a1.278,1.278,0,0,0,.225-.889c0-.753.025-1.505.017-2.258a5.951,5.951,0,0,1,.456-2.587,7.55,7.55,0,0,0,.455-1.486c.1-.431.11-.88.172-1.319a1.1,1.1,0,0,1,.115-.243,1.266,1.266,0,0,0,.17-.435,1.272,1.272,0,0,1,.464-.918m10.13,2.775c.176.034.375.014.431.094a.742.742,0,0,0,.914.236,3.007,3.007,0,0,1,1.335-.1c.817.064,1.61-.167,2.421-.141a.325.325,0,0,0,.346-.361,1.018,1.018,0,0,1,.133-.605.593.593,0,0,0-.007-.554.85.85,0,0,1-.1-.616c-.006-.656.023-1.313.009-1.969a1.729,1.729,0,0,1,.192-.8,1.6,1.6,0,0,0,.261-.909c-.04-.264-.2-.512-.226-.775-.031-.366-.329-.722-.143-1.072a1.419,1.419,0,0,0,.109-.541,7.158,7.158,0,0,0-.124-1.4c-.025-.533.006-1.069.008-1.6,0-.2-.012-.393-.025-.751-.614,1.322-1.149,2.486-1.694,3.645q-.919,1.953-1.853,3.9a3.828,3.828,0,0,0-.4.779,9.75,9.75,0,0,1-.66,1.48c-.191.5-.487.963-.72,1.45a5.193,5.193,0,0,0-.206.61M8.705,62.251l-.1,0c0,.213,0,.426-.006.639q-.053,5.174-.109,10.347a1.4,1.4,0,0,0,.175.913c.2.049.379.1.56.131.208.034.49.141.616.049.257-.19.507-.113.757-.114q1.458,0,2.915.03c.21,0,.38-.023.465-.155-.23-.569-.412-1.124-.671-1.64-.545-1.086-.99-2.215-1.492-3.318-.559-1.226-1.123-2.449-1.642-3.694-.25-.6-.541-1.186-.815-1.777-.217-.469-.437-.937-.656-1.405m38.608.4c-.009.016-.049.054-.052.095a9.966,9.966,0,0,1-.17,2.491c-.036.11-.059.294,0,.354.232.231.122.5.124.752.006.777-.011,1.554-.019,2.332q-.028,2.7-.054,5.394c0,.42.08.506.483.517s.777.011,1.166.013a.671.671,0,0,1,.709.39.336.336,0,0,0,.587.092.87.87,0,0,1,.672-.306,14.324,14.324,0,0,0,1.793-.161,3.919,3.919,0,0,0-.092-.415c-.153-.447-.379-.863-.561-1.3-.259-.621-.553-1.228-.815-1.849-.27-.639-.6-1.256-.848-1.909-.266-.691-.66-1.332-.929-2.022-.093-.24-.248-.44-.327-.667-.362-1.044-.931-2-1.306-3.033-.1-.269-.245-.521-.362-.768m-27.3-4.491a6.791,6.791,0,0,0,.6-.409.736.736,0,0,1,.5-.226.562.562,0,0,0,.543-.608,1.094,1.094,0,0,0-.328-.814,1.424,1.424,0,0,1-.374-.57,5.249,5.249,0,0,1-.136-1.321,15.7,15.7,0,0,1,.149-3.076,13.1,13.1,0,0,0,.184-1.9,1.384,1.384,0,0,1,.046-.273,1.39,1.39,0,0,0-.7-1.789c-.152-.084-.3-.176-.425-.251a7.768,7.768,0,0,0-.65.962,14.716,14.716,0,0,0-.924,2.022,13.948,13.948,0,0,0-.413,2.228,10.472,10.472,0,0,0,.1,2.05c.315.236-.034.669.271.907a6.121,6.121,0,0,0,.536,1.453,4.413,4.413,0,0,0,1.03,1.614m14.664.221c.539-.31.673-.879,1.028-1.287a4.5,4.5,0,0,0,.985-2.717c.057-.8.028-1.6.034-2.4a2.367,2.367,0,0,0-.025-.5,3.944,3.944,0,0,1-.23-.986,1.853,1.853,0,0,0-.409-1.3c-.025-.034-.015-.091-.035-.13-.291-.561-.574-1.125-.879-1.678a.364.364,0,0,0-.6-.1c-.255.205-.508.415-.772.608a.49.49,0,0,0-.217.562,4,4,0,0,1,.27,1.561c.288.259.082.594.133.889a6.751,6.751,0,0,1,.132.888c.019.485-.041.975,0,1.456a12.738,12.738,0,0,1-.175,1.47,5.991,5.991,0,0,1-.322,1.766,2.585,2.585,0,0,0-.137.86l1.215,1.039M20.18,85.919c0,.268-.012.535-.006.8.007.306.117.415.432.422.607.012,1.215.017,1.823.019a.992.992,0,0,1,.706.25c.529.444.558.408,1.335.067.041-.018.112.019.142,0a1.668,1.668,0,0,1,1.124-.279c.583.015,1.168-.013,1.75.028a6.754,6.754,0,0,1,1.627.3.917.917,0,0,0,.951-.041.81.81,0,0,1,.254-.088q1.356-.067,2.711-.119c.264-.01.53,0,.782.006a1.853,1.853,0,0,0,.221-1.235l-.354-.371c-2.458-.026-4.913-.044-7.367-.082a2.738,2.738,0,0,1-1.33-.141.689.689,0,0,0-.569,0,2.09,2.09,0,0,1-1.116.115c-.753.011-1.508.016-2.259-.029a.87.87,0,0,0-.856.385m8.832-36.143a.643.643,0,0,0-.182-.034,5.3,5.3,0,0,1-2.576-.027.366.366,0,0,0-.451.327c-.015.145-.006.291-.007.437-.014,1.36-.023,2.72-.046,4.08,0,.2.1.442-.13.6,0,.424-.342.9.184,1.236.105-.139.308-.137.425-.35a1.233,1.233,0,0,1,.749-.6,2.744,2.744,0,0,1,1.551.075c.194.087.313.009.347-.1.1-.349.162-.714.237-1.072-.24-.183-.13-.442-.135-.67-.009-.412,0-.825.009-1.238.009-.893.019-1.785.027-2.667M22.7,48.748a1.66,1.66,0,0,0-.239.478,20.731,20.731,0,0,0-.331,2.719,6.106,6.106,0,0,1-.014,1.019,13.112,13.112,0,0,0,.145,2.2,6.161,6.161,0,0,0,.288,1.207l1.358-.153.269.6a.364.364,0,0,0,.525-.227.357.357,0,0,0-.293-.482c-.1-.026-.188-.135-.3-.223l.279-.092c.014-.018.039-.035.042-.055a5.221,5.221,0,0,1,.162-1.835.224.224,0,0,0-.015-.2c-.215-.176-.122-.409-.112-.609a8.834,8.834,0,0,1,.155-2.347c.143-.443-.155-.864-.148-1.322L22.7,48.748M32.264,56.5a5.6,5.6,0,0,1,.249-1.284,3.585,3.585,0,0,0,.255-1.427,2.453,2.453,0,0,1,.146-1.252.428.428,0,0,0,0-.353,2.91,2.91,0,0,1-.264-1.488.515.515,0,0,0,0-.216,10.827,10.827,0,0,1-.308-1.544c-.29-.158-.531.04-.785.123-.212.069-.4.207-.619.255-.441.1-.625.256-.607.7a13.592,13.592,0,0,0,.1,2.925,3.4,3.4,0,0,1,0,1.015,2.585,2.585,0,0,1-.132,1.039c-.119.254-.107.7.169.84a4.688,4.688,0,0,0,1.8.67m-21.69,1.05a2.218,2.218,0,0,0,1.388-.292.716.716,0,0,1,.9.083,1.2,1.2,0,0,0,.347.21c.321.143.549-.016.561-.374a.972.972,0,0,0-.129-.383.609.609,0,0,1,.5-.786,2.074,2.074,0,0,0,1.211-.6,1.7,1.7,0,0,1,.508-.351,2.249,2.249,0,0,0,1.022-.752c-.063-.476-.13-.981-.2-1.488-.589.326-1.179.614-1.73.963-.812.515-1.577,1.107-2.4,1.6A2.975,2.975,0,0,1,11.121,56a.8.8,0,0,0-.7.953,3.332,3.332,0,0,0,.155.6M23.127,83.1c0,.254,0,.492-.009.73-.01.256.1.414.362.419a.319.319,0,0,1,.35.282c.011.349.245.473.515.678.113-.137.2-.255.3-.359.168-.175.341-.346.52-.51.266-.243.462.149.712.086a.706.706,0,0,1,.145,0c.3-.008.618.077.888-.137.462.075.951-.128,1.4.151a.445.445,0,0,0,.417,0c.193-.2.408-.114.611-.117.532-.007,1.065.007,1.543.012a.83.83,0,0,0,.061-1.149l-7.814-.08m5.754-34.727c0-.207.089-.478-.01-.625-.254-.381.044-.856-.263-1.2.112-.342-.213-.645-.124-.956.116-.4-.216-.6-.3-.9-.123-.426-.3-.835-.444-1.206a.429.429,0,0,0-.566.252,7.33,7.33,0,0,0-.706,1.96,6.945,6.945,0,0,0-.323,2.671,4.762,4.762,0,0,0,2.739.009m-.621,17.9a1.891,1.891,0,0,1,.271-1.284.492.492,0,0,0,0-.47,1.846,1.846,0,0,1-.236-1.261,5.085,5.085,0,0,1-.926.163,5.08,5.08,0,0,1-.9-.158c-.1.183-.213.3-.216.421-.024.777-.034,1.555-.022,2.332,0,.11.142.3.23.311.585.047,1.176.419,1.8-.055M26.51,41.985c.564.006,1.1,0,1.63.021a.481.481,0,0,0,.535-.331,1.238,1.238,0,0,0,.061-.856,4.85,4.85,0,0,0-.657-1.472c-.152-.248-.225-.627-.621-.734-.3.543-.57,1.083-.882,1.6a1.863,1.863,0,0,0-.065,1.774m2.762,27.161c-.1-.353.321-.387.3-.717s-.243-.432-.421-.627c-.43.18-.815-.158-1.277-.012a2.3,2.3,0,0,1-1.362-.014c-.462-.161-.847.185-1.24,0-.094.092-.17.155-.232.229a.567.567,0,0,0,.28.946,4.984,4.984,0,0,0,1.027.156c.944.029,1.889.026,2.93.037M7.058,56.883a2.265,2.265,0,0,0,0,.582c.056.211.145.521.3.579.351.132.385.407.492.676a2.414,2.414,0,0,0,.247.405.365.365,0,0,0,.43.174.377.377,0,0,0,.26-.447A1.187,1.187,0,0,1,9.012,58a.863.863,0,0,0-.053-1.238c-.159-.182-.336-.346-.487-.5l-.764-.008-.651.627m24.652,1.1c-.359-.208-.722-.438-1.1-.631a.355.355,0,0,0-.5.332c.032.3-.2.54-.157.81a2.114,2.114,0,0,1-.177.882,8.582,8.582,0,0,1-.356,1.452,2.54,2.54,0,0,0-.094.492,9.528,9.528,0,0,1,1.361-1.175c.129-.066.2-.246.283-.38a6.205,6.205,0,0,0,.74-1.783M25.26,61.124a1.763,1.763,0,0,0-.044-.578,2.242,2.242,0,0,1-.234-1.352,4.366,4.366,0,0,0-.285-1.626.372.372,0,0,0-.489-.285c-.432.185-.854.395-1.247.579a8.376,8.376,0,0,0,2.3,3.261m4.3-17.071a.591.591,0,0,0-.046.173,1.76,1.76,0,0,0,.062.264,5.532,5.532,0,0,1,.21.71c.06.383-.152.828.279,1.123.023.016,0,.091.007.138.044.392.09.785.133,1.177a.367.367,0,0,0,.544.331c.352-.143.7-.3,1.1-.475a8.022,8.022,0,0,0-2.294-3.442m-4.085.021a7.186,7.186,0,0,0-1.683,1.914c-.258.462-.667.879-.574,1.469.369.157.7.308,1.03.435.352.135.527,0,.563-.369a6.961,6.961,0,0,1,.081-.913c.181-.8.353-1.6.582-2.537m20.737,14.6.874.009c.783-.766.873-1.177.351-1.7a1.024,1.024,0,0,0-1.541-.016c-.532.515-.452.928.316,1.71m-25.173.814a11.775,11.775,0,0,0,1.889,1.327c-.238-.717-.8-1.182-.872-1.882-.014-.145-.387-.3-.475-.215-.223.225-.6.356-.541.77M32.91,58.7c-.173.364-.34.73-.52,1.088s-.427.657-.63,1.118a6.512,6.512,0,0,0,2-1.482L32.91,58.7M22.94,44.652a3.7,3.7,0,0,0-1.833,1.256c.327.192.422.64.85.55l.983-1.806" transform="translate(0 -33.438)" fill="#333"/><path d="M25.655,130.092a1.229,1.229,0,0,0-.322-1.12c-1.052-.17-1.324.263-1.452.94a50.622,50.622,0,0,1-6.561.117c-.159,0-.342.061-.462-.122a.138.138,0,0,0-.13-.025c-.572.3-1.178.084-1.766.117s-1.166,0-1.75-.01a.263.263,0,0,1-.057-.037c-.568-.656-.646-.48-1.131.026-1.541-.016-3.1-.029-4.649-.049-.47-.006-.527-.065-.523-.55q.036-3.975.084-7.949c0-.135.063-.269.075-.405.023-.276.045-.555.041-.831,0-.132-.122-.278-.09-.389a1.337,1.337,0,0,1,.3-.6.755.755,0,0,0,.139-1.07,3.227,3.227,0,0,1-.427-1.939c.049-1.14.033-2.282.046-3.47a1.3,1.3,0,0,1,.874.133,1.079,1.079,0,0,0,.445.15,4.9,4.9,0,0,0,.583.012,9.343,9.343,0,0,1,1.62.138,2.115,2.115,0,0,0,1.258-.087c.349-.148.775.044,1.181-.133.276-.12.648.024.954-.156.186-.109.312.341.562.056a1.512,1.512,0,0,1,.542-.261,2.524,2.524,0,0,1,1.223-.217.394.394,0,0,1,.389.331,6.624,6.624,0,0,0,.555,1.521,7.013,7.013,0,0,0,1.03,1.473c.277.273.528.575.822.826a5.016,5.016,0,0,0,.9.626,6.312,6.312,0,0,0,1.241.52,13,13,0,0,0,2.35.358c.636.056,1.286.036,1.907.15a37.88,37.88,0,0,0,4.681.175c.339.02.682-.006,1.02.017a3.3,3.3,0,0,1,.915.08,3.5,3.5,0,0,0,.992.078c.138,0,.319.023.41-.051.352-.289.755-.2,1.15-.225.467-.027.933-.1,1.4-.122.485-.019.973.019,1.458,0a1.736,1.736,0,0,0,.6-.138c.415-.173.807-.4,1.228-.556a3.657,3.657,0,0,1,.824-.316,1.164,1.164,0,0,0,.618-.424,14.7,14.7,0,0,0,1.462-2.012,9.4,9.4,0,0,0,.905-2.2,11.5,11.5,0,0,1,1.436.445,7.017,7.017,0,0,0,1.549.488,5.232,5.232,0,0,0,.522.145,1.316,1.316,0,0,0,.508,0,18.147,18.147,0,0,1,3.224-.115,6.4,6.4,0,0,0,1.708-.259,1.4,1.4,0,0,1,.441,0c-.03,2.919-.059,5.8-.089,8.7-.345.221-.876-.218-1.171.339a1.505,1.505,0,0,0,1.165.767c-.026,2.462-.051,4.91-.076,7.384l-26.683-.274m17.609-7.233c-.017,1.715-.035,3.4-.052,5.075.744.136,1.5-.114,2.206.191.063.027.172-.037.254-.072A1.682,1.682,0,0,0,46.4,127c.019-1.041.038-2.083.029-3.123a1.083,1.083,0,0,0-.987-.986c-.722-.024-1.444-.019-2.183-.027m-21.148-.217c-.018,1.747-.035,3.415-.052,5.111l.586-.032c.007-.649.013-1.249.019-1.859.4.3.857.049,1.2.172.281.49.544.938.795,1.393.228.414.222.417.755.233l-.986-1.864a3.788,3.788,0,0,0,.337-.224,1.306,1.306,0,0,0,.516-1.171c-.029-.359,0-.723,0-1.068a2.36,2.36,0,0,0-.429-.424,1.183,1.183,0,0,0-.626-.25c-.7.011-1.4-.008-2.123-.016m12.686.13c-.018,1.74-.035,3.408-.052,5.109l.586-.022c.006-.6.012-1.151.018-1.726a2.249,2.249,0,0,0,.305,0,1.561,1.561,0,0,0,.259-.072.546.546,0,0,1,.742.326c.187.359.361.725.554,1.081.264.487.343.511.85.34-.253-.5-.493-1.01-.769-1.5-.117-.208-.116-.366.064-.5a1.585,1.585,0,0,0,.618-1.566c-.012-.12.007-.243,0-.364a1.1,1.1,0,0,0-1.044-1.083c-.7-.014-1.4-.016-2.131-.024m-20.285,4.753c-.083-.348-.147-.591-.2-.837a1.135,1.135,0,0,1,.264-.816l1.461.23c.12.563.229,1.074.334,1.566l.583.006a6.081,6.081,0,0,0-.216-1.386c-.124-.312.047-.641-.132-.887-.155-.215-.01-.437-.1-.616a1.1,1.1,0,0,1-.127-.674,2.345,2.345,0,0,0-.2-1.082c-.07-.22-.113-.462-.367-.566.022-.443-.351-.564-.591-.806a1.833,1.833,0,0,0-.2.176c-.226.284-.206.738-.618.9a.145.145,0,0,0-.056.119,2.83,2.83,0,0,1-.144.816c-.1.4-.051.854-.185,1.243-.308.888-.277,1.837-.648,2.8l1.135-.185m27.832.42c-.069-.289-.138-.508-.171-.732s.065-.479-.143-.669c.037-.687-.385-1.377.015-2.066a.287.287,0,0,0-.026-.269c-.277-.268-.167-.722-.49-.974-.08-.062-.058-.256-.08-.375l-1.714-.017c0,.208.072.458-.021.576-.255.324-.084.717-.263,1.066a4.436,4.436,0,0,0-.188,1.161c-.062.334-.178.657-.248.989-.081.383-.141.77-.2,1.156-.006.036.039.079.053.106l.514.006a4.711,4.711,0,0,0,.158-.676.982.982,0,0,1,.3-.679c.124-.116.243-.237.364-.357a1.887,1.887,0,0,1,1.21.188,7.6,7.6,0,0,0,.367,1.559l.567.006m-32.4-2.49c.443-.059.81-.127,1.179-.149s.763,0,1.1.006c.135.254.233.458.349.651a.554.554,0,0,0,.623.231.4.4,0,0,0,.256-.457,2.325,2.325,0,0,1,0-.324,2.173,2.173,0,0,0-1.868-.838c-.529.006-1.058-.009-1.592-.014,0-.507.01-.978.015-1.472l2.706.027c0-.2,0-.384.006-.588l-.954-.01c-.14-.69-.469-1.09-.946-1.157a1.6,1.6,0,0,0-1.679.871l.573.223-.287.1c-.017,1.683-.034,3.369-.052,5.044l.543.006c.007-.716.015-1.413.022-2.147m38.087,1.98c.007-.63.012-1.183.018-1.759l2.278.023c0-.256,0-.485.007-.738l-2.269-.023c.006-.5.01-.971.016-1.468l2.6.027c-.01-.207-.019-.386-.026-.534l-3.166-.032c-.017,1.7-.034,3.368-.052,5.045l3.171.032c0-.2,0-.359.006-.547l-2.579-.026m-28.891-4.244c-.014,1.359-.027,2.64-.041,3.946l-1.257-.013c0,.206,0,.387-.006.56l3.29.034c0-.2,0-.38.006-.586l-1.424-.015c.013-1.286.026-2.546.041-3.807a.113.113,0,0,1,.026-.062.751.751,0,0,1,.085-.075l1.33.014c0-.191,0-.354.006-.523l-3.316-.034c0,.2,0,.358-.006.547l1.266.013m12.737.133c-.016,1.549-.031,3.021-.046,4.528l.582-.022c.016-1.521.031-2.994.047-4.517l1.269.013c0-.213,0-.376.006-.53l-3.162-.032c0,.2,0,.36-.006.547l1.31.013M27.5,128.674c.25.235.362.473.694.462a.709.709,0,0,0,.605-.294.385.385,0,0,1,.374-.15c.235.014.47.007.715.01-.075-.3-.43-.352-.417-.653-.208-.076-.381-.305-.62-.225-.338.113-.577.424-.96.483-.132.021-.236.213-.392.367M10.69,120.193a.785.785,0,0,0-.271-.991.673.673,0,0,0-.929-.012c-.292.243-.681.485-.419,1.03.528-.446,1.058-.006,1.619-.026m17.859-.256c0,.2-.071.418.008.511a1.745,1.745,0,0,0,.654.5,1.459,1.459,0,0,0,.713,0c.082-.014.169-.163.2-.266a1.309,1.309,0,0,0,.012-.361.328.328,0,0,0-.341-.364c-.407-.021-.815-.014-1.248-.018M8.877,116.711c-.258-.1-.442-.041-.546.142a1.213,1.213,0,0,0-.194.8.365.365,0,0,0,.38.332.357.357,0,0,0,.348-.361c.012-.291.008-.583.012-.908m9.472,3.85c.293-.009.414-.139.412-.446s-.157-.455-.5-.43c-.272.019-.392.172-.376.482.014.283.155.4.464.394m-10.7,3.755a1.572,1.572,0,0,0,.353.216.367.367,0,0,0,.445-.147.344.344,0,0,0-.026-.45.62.62,0,0,0-.765-.233c0,.208,0,.419-.006.614m2.557,5.346a.765.765,0,0,0,.891-.622.5.5,0,0,0-.7-.2c-.312.173-.168.5-.191.82m-1.621-1.63c.011-.072,0-.154.036-.2.083-.11.233-.187.089-.354a.485.485,0,0,0-.368-.172c-.32-.024-.411.221-.56.334l.155.386.649.007m33.407-11.459.392,0a.992.992,0,0,0,.143,0,.364.364,0,0,0,.344-.425.382.382,0,0,0-.467-.3,2.275,2.275,0,0,0-.408.213c0,.142,0,.285,0,.506m-21.11,10.265c.657.015.657.015.733-.486l-.455-.229c-.345.135-.276.414-.278.715m0,1.944a.457.457,0,0,0-.525-.33c-.238.014-.321.153-.4.4a3.26,3.26,0,0,0,.429.183c.212.057.364-.054.493-.256m24.866-12.724c-.155-.141-.286-.41-.614-.319l-.2.379.453.409.358-.468M12,115.367l.371-.182c0-.222,0-.43.007-.637-.641.011-.674.085-.377.819m9.352,4.622.107-.163c-.228-.1-.271-.419-.616-.4,0,.223,0,.4-.006.563l.515,0m-4.858-5.2c.276.238.276.238.558.006-.276-.265-.276-.265-.558-.006" transform="translate(-2.578 -61.943)" fill="#333"/><path d="M18.621,31.654c1.459.015,2.819.034,4.18.039a1.213,1.213,0,0,1,.886.334,6.57,6.57,0,0,0,.631.472l.992-.775a2.285,2.285,0,0,1,1.059.145.786.786,0,0,0,.5,0,1.7,1.7,0,0,1,1.528.1,1.166,1.166,0,0,0,1.455-.109.937.937,0,0,1,.956-.042,1.816,1.816,0,0,0,.613.1q.691.03,1.385.014c.2,0,.406.064.617-.1a.8.8,0,0,1,.562-.021,4.16,4.16,0,0,0,2.07.027,4.714,4.714,0,0,1,1.236.014c.138.014.261.182.4.287a3.264,3.264,0,0,1,1.325-.29c1.745.037,3.491.044,5.278.062-.012.311-.037.6.256.787.182.114.336.152.5-.013.206-.206.416-.409.612-.6.628,0,1.223-.206,1.849-.15a15.033,15.033,0,0,0,1.821.022,3.573,3.573,0,0,1,1.225.224c.213.068.529.153.669.051.5-.365,1.053-.19,1.575-.238a1.122,1.122,0,0,1,.4.787,15.457,15.457,0,0,1,.091,2.789c.007.947-.016,1.895-.026,2.842q-.073,7.144-.147,14.288c-.008.8-.022.811-.793.608a.341.341,0,0,0-.138-.016,6.643,6.643,0,0,1-1.9-.191,11.3,11.3,0,0,1-2.678-.569,1.207,1.207,0,0,1-.478-.255c-.73-.748-1.511-1.452-2.179-2.252a26.72,26.72,0,0,1-1.9-2.348,10.4,10.4,0,0,0-.86-1.035,18.514,18.514,0,0,1-1.211-1.4,19.554,19.554,0,0,0-2-2.165,11.081,11.081,0,0,0-2.7-2.065c-.255-.14-.484-.327-.754-.463a1.432,1.432,0,0,1-.769-1.188,6.03,6.03,0,0,0-.3-1.337c-.139-.429-.233-.87-.372-1.3a10.07,10.07,0,0,0-1.471-2.68,12.454,12.454,0,0,0-1.29-1.435,7.607,7.607,0,0,0-.715-.584,8.529,8.529,0,0,0-1.76,1.632,11.029,11.029,0,0,0-1.44,2.031,9.517,9.517,0,0,0-.675,1.908c-.2.745-.379,1.5-.621,2.226a1.02,1.02,0,0,1-.54.575A18.26,18.26,0,0,0,22.8,42.2a15.448,15.448,0,0,0-2.149,2.018,25.7,25.7,0,0,0-2.113,2.457c-.266.387-.627.707-.928,1.071-.467.56-.991,1.068-1.421,1.661a7.128,7.128,0,0,1-.824.823c-.538.527-1.088,1.043-1.61,1.586a2.047,2.047,0,0,1-1.034.508c-.664.179-1.365.16-2.013.4-.021.008-.048,0-.072,0q-.918.063-1.836.127a.94.94,0,0,0-.541.114c-.145.1-.411.016-.649.013.01-.984.017-1.927.033-2.871a2.216,2.216,0,0,1,.074-.333c.03-.183.127-.4.064-.547A4.219,4.219,0,0,1,7.667,47.6a6.513,6.513,0,0,1,.039-1.67,3.809,3.809,0,0,0,.107-1.615,11.355,11.355,0,0,1-.1-1.587c.2-.1.473-.153.536-.3a1.072,1.072,0,0,0-.022-.674c-.12-.408-.315-.794-.434-1.2a1.066,1.066,0,0,1-.029-.7A2.53,2.53,0,0,0,7.9,38.819c.028-.275-.051-.553.138-.824a.494.494,0,0,0-.091-.531,1.225,1.225,0,0,1-.176-.8c.027-1.531.037-3.062.053-4.66a1.691,1.691,0,0,0,.244-.2c.231-.251.467-.386.807-.17a.486.486,0,0,0,.4.053,2.632,2.632,0,0,1,1.26-.119,4.249,4.249,0,0,1,1.3.032,5.814,5.814,0,0,0,1.622.13c.3.006.594-.129.888-.118.734.027,1.467.09,2.2.169a.822.822,0,0,1,.455.249,5.109,5.109,0,0,1,.453.613l.455,0,.707-1m22.228,1.979c-.325,0-.641-.016-.957-.007a.7.7,0,0,0-.727.72q-.027.947-.019,1.895a.7.7,0,0,0,.713.735c.315.015.632.009.956.012l.514-.518c.008-.766.016-1.543.024-2.306l-.5-.531m-4.571-.024c-.012,1.138-.023,2.224-.034,3.316l.42,0q.006-.583.011-1.133l.846.009c.057.109.111.21.163.31.126.24.241.486.382.716.078.127.2.219.363.021L37.808,35.6c.271-.145.586-.255.6-.558a1.534,1.534,0,0,1,.32-.82.776.776,0,0,0-.067-.871,1.994,1.994,0,0,0-.677-.614c-.195-.127-.326-.465-.67-.271a.392.392,0,0,0,.247.556,1.587,1.587,0,0,1,.346.3c-.3.251-.3.251-1.631.29m-25.99.6.1-.032c.155.245.331.48.462.737.3.58.573,1.172.863,1.756.138.278.3.545.694.437q.021-2.028.042-4.038l-.423,0c-.01.928-.019,1.837-.028,2.739-.074.007-.1.011-.12.012s-.065.008-.07,0c-.48-.916-.956-1.833-1.452-2.787l-.477.022c-.014,1.381-.027,2.71-.041,4.044l.418,0c.01-.971.02-1.93.031-2.888M46.341,39.25c.221-.411-.179-.772-.07-1.16-.3-.308-.059-.717-.209-1.072a5.745,5.745,0,0,1-.235-1.148c-.4.011-.77-.027-1.14.011,0,.3.087.611-.029.77-.188.256-.011.557-.153.737-.2.248-.012.549-.158.735-.2.251-.068.508-.129.752a2.444,2.444,0,0,1-.117.241c-.008.022.033.064.036.068l.338,0c.082-.387.157-.745.243-1.153.173.029.413,0,.514.1.239.245.367-.218.616.007a4.927,4.927,0,0,1,.119.672.408.408,0,0,0,.377.437M13.6,37.132c.006-.624.012-1.242.019-1.882.36,0,.672.009.983.009s.612,0,.889,0c0-.223,0-.385.007-.57-.337,0-.649,0-.961-.011a4.592,4.592,0,0,1-.884-.036c0-.405.007-.762.011-1.163.722.007,1.418.014,2.114.019.016,0,.032-.032.022-.021,0-.143,0-.256,0-.392-.884.006-1.743-.039-2.576,0-.014,1.385-.028,2.711-.042,4.051l.414,0m32.343,6.624c0-.485.009-.891.014-1.317.484,0,.943.014,1.4.013.235,0,.206-.129.109-.3l-1.5-.016c0-.4.008-.777.012-1.176l1.849.019c0-.092,0-.157,0-.242l-2.158-.022c-.012,1.163-.024,2.3-.036,3.441l2.149.022c0-.147,0-.261,0-.4l-1.849-.019m-2.374-.029c-.228,0-.4-.007-.569-.006-.271,0-.271,0-.265.4l2.138.022c0-.144,0-.259,0-.425l-.832-.008c.01-.944.019-1.837.029-2.754.238,0,.453.006.669.007.233,0,.214-.122.126-.29-.65-.007-1.3-.019-1.958-.017-.235,0-.2.135-.1.306l.783.007c-.009.918-.019,1.81-.028,2.754m7.161-1.239c-.509-.006-1.013-.014-1.517-.014-.283,0-.407.218-.51.428a1.132,1.132,0,0,0-.143.518,1.447,1.447,0,0,0,.194.5.7.7,0,0,0,.671.454c.219,0,.438-.006.656.009a.336.336,0,0,1,.347.36q0,.182,0,.365c-.014.315-.118.432-.418.436-.432,0-.866-.006-1.34-.011.006.169.011.3.016.438.412,0,.776.021,1.138,0,.128-.006.253-.127.379-.127.272,0,.381-.22.5-.374s.218-.453.143-.566c-.155-.232-.059-.591-.383-.725a1.756,1.756,0,0,0-.7-.254c-.778,0-.778-.02-.768-.808,0-.047,0-.1,0-.14.535-.387,1.158-.112,1.738-.231,0-.077,0-.143,0-.26M17.584,33.546c-.012,1.222-.024,2.421-.037,3.627l.435,0c.012-1.211.025-2.41.038-3.658l1.138.012c0-.164,0-.278,0-.387-.868-.009-1.71-.017-2.551-.024-.016,0-.032.032-.021.021,0,.143,0,.257,0,.395l1,.011m30.739.8c-.22-.237-.424-.545-.81-.208-.055.047-.19.017-.284,0a.666.666,0,0,0-.786.46c.051.075.135.145.148.225.067.409.366.583.681.788s.556-.031.831,0c.017,0,.037-.024.073-.047.089-.372-.075-.792.148-1.214m.8,4.908.087-.106c-.074-.058-.143-.16-.221-.167-.264-.024-.532-.011-.8-.017s-.512-.019-.788-.029c.011-1.044.021-2.03.031-3.028l-.389,0c-.011,1.114-.023,2.216-.034,3.329l2.113.022M41.9,33.629l-.134.1c.229.463.459.926.686,1.39a1.427,1.427,0,0,1,.2.792c-.035.355-.015.715-.019,1.077l.292,0c0-.322.019-.633.007-.943a1.645,1.645,0,0,1,.266-.987,15.8,15.8,0,0,0,.708-1.425c-.179.056-.323.057-.356.117-.235.443-.446.9-.671,1.36-.47-.432-.4-1.188-.984-1.489m8.447,5.631c.011-1.017.021-2.021.032-3.049l.835.008c.23,0,.219-.115.13-.29l-1.946-.02c-.231,0-.216.118-.125.3l.817.008c-.011,1.028-.021,2.032-.031,3.044l.289,0M11.837,50.4c.162,0,.3.042.385,0,.359-.182.708-.384,1.054-.591a.856.856,0,0,0,.2-.63.468.468,0,0,0-.482-.229,4.683,4.683,0,0,1-.641,0c-.09.256-.17.487-.252.717s-.161.452-.262.736m36.461.044c.051-.743,0-.823-.4-.847a.68.68,0,0,0-.551.22.713.713,0,0,0-.158.748.731.731,0,0,0,1.1-.122M8.716,34.763c-.145.341-.273.7-.452,1.034-.1.193,0,.278.11.351a.5.5,0,0,0,.721-.172,1.861,1.861,0,0,0,.153-1.025.633.633,0,0,0-.052-.183l-.48,0m15.211,2.931c.226.332.473.575.844.411.3-.132.22-.425.177-.669-.569-.23-.569-.23-1.02.258m-9.386,2.83c.442-.144.792-.313.588-.89-.253.06-.579-.138-.767.177a.494.494,0,0,0,.179.713M50.367,51.141c-.006-.215-.167-.344-.435-.347-.329,0-.46.14-.441.485a.366.366,0,0,0,.392.389.645.645,0,0,0,.485-.528M35.625,37.081c.025.273-.09.523.148.648a.766.766,0,0,0,.462.076.335.335,0,0,0,.273-.351.34.34,0,0,0-.266-.358,3.037,3.037,0,0,0-.617-.016M46.849,48.69c.457.5.674.453,1.065-.156a.481.481,0,0,0-.463-.253c-.291,0-.387.236-.6.409m-26-6.378c-.019-.773-.025-.777-.86-.657-.078.246.079.386.223.546.177.2.384.1.637.112m-1.9,2.182c-.2-.336-.437-.543-.861-.409,0,.221,0,.446-.007.694.328-.028.683.134.869-.285m-7.47-5.619a1.9,1.9,0,0,0-.292,0c-.266.038-.4.2-.369.413s.175.312.4.317.427-.037.479-.3c-.062-.125-.124-.245-.215-.427m23.215-5.854c0,.371,0,.371.416.708l.545-.318c-.2-.483-.567-.467-.961-.39m-17.64,9.862c0,.311-.082.609.253.711a1.333,1.333,0,0,0,.443-.011c0-.263,0-.473.007-.693l-.7-.007m7.415-8.136a.981.981,0,0,0,.953-.279l-.7-.43c-.359.188-.311.447-.248.709m17.8,9.55a3.15,3.15,0,0,0,0-.429.332.332,0,0,0-.39-.3.362.362,0,0,0-.337.361c-.006.229.135.329.33.364a2.622,2.622,0,0,0,.4.008m-26.139.4c0-.124,0-.236,0-.361l-.644-.007-.189.362c.268.458.562.089.829.006M42.2,39.2c0,.221,0,.384-.006.574l.536-.02c0-.213,0-.375.006-.55l-.536,0m6.346,2.418c-.47-.143-.457.231-.622.507l.617.006c0-.2,0-.36,0-.513m-32.761-5.5c-.011-.19.152-.437-.092-.541a.343.343,0,0,0-.47.276c.224.252.224.252.563.265m-2.854,6.161a6.526,6.526,0,0,0,.462.462,1.36,1.36,0,0,0,.373.12c-.185-.42-.342-.68-.835-.581m38.283-2.374-.412,0c0,.152,0,.264,0,.407l.412-.034c0-.143,0-.24,0-.369m-10.88.6.606-.074-.315-.42-.291.495" transform="translate(-2.862 -31.533)" fill="#333"/></g></g><g transform="translate(18.548)" opacity="0.5"><g clip-path="url(#d)"><path d="M46.393,6.108l.008.224c.02.009.037.024.054.025q.667.014,1.335.024c.04,0,.088-.008.093.048a.117.117,0,0,1-.033.078c-.056.061-.118.116-.178.173Q45.8,8.493,43.921,10.307c-.162.157-.314.293-.57.211-.009.5-.017.984-.026,1.483.052.06.145-.007.226.039-.008.477-.017.961-.025,1.435.075.079.17.011.257.067-.006.339-.013.689-.018,1.039,0,.084-.026.158.1.21s.141.2.137.339c-.009.331-.012.662-.019.994,0,.073,0,.117.094.152a.218.218,0,0,1,.148.241c-.007.039.009.079-.029.114-.121.113-.231.239-.361.341a.182.182,0,0,1-.248-.017.758.758,0,0,0-.4-.235.385.385,0,0,1-.218-.146c-.059-.084-.147-.146-.211-.227a.27.27,0,0,0-.264-.117.3.3,0,0,1-.153-.006.222.222,0,0,1-.094-.111c-.02-.044.032-.068.057-.1.039-.049.115-.026.153-.084a.483.483,0,0,1,.511-.19c.164.015.331.008.5.011.056-.073.018-.158.031-.237a.264.264,0,0,0-.1-.272.424.424,0,0,1-.147-.281.48.48,0,0,0-.107-.235.5.5,0,0,0-.5-.234.843.843,0,0,1-.186,0c-.1-.006-.193-.022-.233.117a.217.217,0,0,1-.16.129c-.062.014-.109.062-.163-.019a2.077,2.077,0,0,0-.148-.158.186.186,0,0,0-.183-.084.249.249,0,0,1-.261-.12c-.086-.124-.246-.187-.283-.352-.007-.031-.043-.036-.075-.036a1.682,1.682,0,0,0-.217,0c-.347.046-.5-.184-.654-.435a.19.19,0,0,1-.034-.14.15.15,0,0,0-.09-.178c-.142-.051-.155-.156-.152-.278,0-.153,0-.308.008-.478-.155,0-.3,0-.44-.01a.17.17,0,0,0-.185.12c-.1.22-.313.354-.425.566-.037.069-.107.049-.166.047-.217,0-.435-.008-.652-.011a.366.366,0,0,0-.389.359.915.915,0,0,0,0,.155.657.657,0,0,1-.19.517c-.131.156-.316.236-.433.4a.123.123,0,0,1-.106.046,1.2,1.2,0,0,1-.946-.346c-.036-.036-.066-.092-.11-.106-.2-.062-.2-.222-.205-.38,0-.259.006-.518.013-.776,0-.084,0-.134-.1-.178a.251.251,0,0,1-.145-.278c.024-.158.021-.17.256-.206,0-.115,0-.237.007-.358a.456.456,0,0,0-.14-.442c-.088-.069-.052-.133.087-.185a.32.32,0,0,0,.092-.253.478.478,0,0,0-.124-.261.453.453,0,0,1-.134-.438.057.057,0,0,1,.093-.038c.078.067.143.15.219.22a3.259,3.259,0,0,0,.6.561.152.152,0,0,1,.068.158c-.01.165-.011.331-.011.5a.365.365,0,0,0,.305.317c.445.011.89.017,1.335.024a.265.265,0,0,0,.059,0c.039-.193.314-.233.294-.469-.014-.163,0-.329.006-.519-.157,0-.309-.01-.462-.007a.248.248,0,0,1-.214-.088q-.226-.255-.475-.492a.255.255,0,0,1-.08-.217c.011-.393.016-.786.022-1.2-.223-.014-.448-.072-.6.192a5.806,5.806,0,0,1-.6-.59.205.205,0,0,1,.019-.271,2.51,2.51,0,0,1,.246-.236.426.426,0,0,1,.3-.109c.175.009.352.009.528.011.079,0,.158.022.225-.059a.5.5,0,0,0,.153-.278c.011-.165.009-.331.011-.5,0-.029.008-.058-.02-.085-.112-.106-.213-.223-.331-.321a.211.211,0,0,0-.286,0,1.311,1.311,0,0,0-.355.372.194.194,0,0,1-.221.114,2.4,2.4,0,0,0-.341-.007.437.437,0,0,1-.453-.184.138.138,0,0,0-.153-.077.261.261,0,0,1-.287-.13.4.4,0,0,0-.263-.178.672.672,0,0,0-.351.11.313.313,0,0,0-.172.3c0,.538-.011,1.077-.027,1.615a.3.3,0,0,0,.1.269,1.265,1.265,0,0,1,.363.627c.057.168-.041.3-.1.441a2.06,2.06,0,0,1-.54.64c-.015.014-.056.008-.082,0-.011,0-.02-.033-.02-.051,0-.134,0-.269.006-.4-.049-.057-.116-.029-.173-.031a.393.393,0,0,1-.289-.13q-.138-.147-.281-.29a.591.591,0,0,1-.239-.463.124.124,0,0,0-.138-.129.5.5,0,0,1-.384-.2Q31.12,7.833,29.846,6.515c-.065-.067-.132-.13-.1-.237.007-.028,0-.058.025-.084.115-.1.22-.218.343-.308a.448.448,0,0,1,.284-.064c.442.016.886.019,1.338.027.006-.084.011-.153.018-.245l1.727.031.015-.241,1.693.03c.081-.075.016-.169.057-.24a.2.2,0,0,1,.056-.017c.177,0,.352.009.528.007.077,0,.16.034.231-.041a.439.439,0,0,0,.172-.3.6.6,0,0,1,.163-.4.339.339,0,0,0,.1-.205A.372.372,0,0,1,36.6,4a.574.574,0,0,0,.148-.282.438.438,0,0,1,.1-.2.57.57,0,0,0,.157-.311.323.323,0,0,1,.117-.2.35.35,0,0,0,.136-.35.485.485,0,0,1,.183-.452.751.751,0,0,0,.14-.221c.075-.12.147-.242.312-.25a.074.074,0,0,0,.053-.019,1.281,1.281,0,0,1,.485-.339c.151-.074.215-.209.15-.327C38.531.949,38.6.768,38.4.74c-.081-.011-.065-.12-.014-.172.174-.178.353-.35.536-.518a.287.287,0,0,1,.29-.021c.085.025.1.119.086.208-.009.072,0,.146-.007.217a.333.333,0,0,0,.127.352c.033.022.037.072.057.1.081.114.046.273.155.372a.592.592,0,0,1,.153.341c.014.072.083.13.122.2a.577.577,0,0,1,.106.236.4.4,0,0,0,.107.234.573.573,0,0,1,.133.288.417.417,0,0,0,.08.183.582.582,0,0,1,.163.34c.006.069.072.134.11.2a.95.95,0,0,1,.12.229.618.618,0,0,0,.133.288.249.249,0,0,1,.05.073,1.793,1.793,0,0,0,.146.372,1.152,1.152,0,0,1,.17.367c.037.136.151.24.195.386.025.082,0,.159.039.256l.725.012c0,.091.006.161.008.242l1.689.03c.084.078.014.169.057.252l.721.012c0,.253-.009.5-.013.737.216.048.356.027.46-.189a.937.937,0,0,1,.3-.369c0-.181.139-.054.208-.086.021-.01.048.029.041.065-.017.092.018.125.114.123.205,0,.41,0,.622.009M40.214,4.5c0-.13,0-.245.009-.356a.329.329,0,0,0-.085-.243,1.977,1.977,0,0,1-.444-.6c-.22-.137-.212-.351-.2-.569.007-.093-.006-.187.007-.278a.418.418,0,0,0-.159-.4c-.117-.1-.163-.117-.281-.01-.161.146-.313.3-.47.451-.111.107-.268.2-.322.327a1.4,1.4,0,0,0-.027.488c-.007.329-.006.329.222.558.036.037.065.1.109.107.134.038.133.149.147.247a1.586,1.586,0,0,1,0,.249l1.491.026m-1.5.23a3.713,3.713,0,0,1-.4-.01.464.464,0,0,0-.431.166.459.459,0,0,0-.172.4,2.346,2.346,0,0,1,0,.248c0,.11-.051.172-.161.171-.063,0-.093.013-.094.082,0,.3-.009.6-.015.912l.655.011c.029,0,.065.013.083-.022.1-.206.363-.342.27-.633a.578.578,0,0,1,0-.154c0-.109.049-.178.158-.173s.1-.044.1-.112c0-.288.009-.575.015-.883m3.9,4.538a.552.552,0,0,1-.425-.09c-.185-.165-.406-.279-.582-.461a.844.844,0,0,0-.47-.283c-.007.394-.014.763-.019,1.132,0,.039-.011.078.025.114.17.169.305.385.608.329a2.438,2.438,0,0,1,.462,0,.363.363,0,0,0,.393-.35c.011-.122.006-.245.009-.393M40.925,6.491c0-.241.008-.487.013-.733A.224.224,0,0,0,40.9,5.62a4.3,4.3,0,0,1-.262-.543A.844.844,0,0,0,40.26,4.7c-.117.132-.026.29-.056.434a.611.611,0,0,0,0,.155.115.115,0,0,1-.046.106c-.039.032,0,.122-.106.119-.033,0-.08.1-.1.16a1.058,1.058,0,0,0-.018.18c0,.016-.027.031-.043.043a.579.579,0,0,0-.193.6l1.157.02a.44.44,0,0,0,.074-.016m-.332,4.714c0-.094,0-.186,0-.278.007-.379.006-.377-.262-.634a.21.21,0,0,0-.158-.072c-.34,0-.681-.009-1.02-.016-.039,0-.085-.011-.1.04s.017.077.048.1c.122.1.2.248.361.318a.752.752,0,0,1,.276.221.779.779,0,0,0,.851.317m1.814-4.173c0,.206-.008.381-.009.556,0,.038-.019.08.016.116.169.168.3.38.6.342.141-.017.259-.063.3-.164.071-.183.209-.377.047-.59a.457.457,0,0,1-.5-.2.138.138,0,0,0-.131-.057c-.1,0-.2,0-.326,0m-2.514,1.2c-.21,0-.414,0-.616-.014a.3.3,0,0,0-.313.18.343.343,0,0,0-.054.3l.973.017c0-.165.006-.316.009-.483" transform="translate(-29.736 0)" fill="#333"/><path d="M34.63,24.1c0-.209.01-.384.009-.56,0-.11.046-.179.153-.18.084,0,.1-.028.1-.105,0-.454.014-.908.022-1.357.075-.064.167.006.247-.051.007-.393.014-.793.021-1.188.076-.05.149-.016.249-.028.012-.4.015-.81.025-1.238.192,0,.376.019.558.006a.577.577,0,0,1,.479.2.57.57,0,0,1,.2.513c-.021.174-.007.351-.014.527,0,.117-.013.229-.163.271a.151.151,0,0,0-.094.175.7.7,0,0,1,0,.216c-.054.272.114.416.312.531a1,1,0,0,1,.4.38,1.054,1.054,0,0,0,.2.293.194.194,0,0,1,0,.291c-.159.146-.284.337-.54.356-.061,0-.154.1-.223.127a1.868,1.868,0,0,0-.78.522c-.078-.022-.11.079-.19.068a.267.267,0,0,0-.231.1.394.394,0,0,1-.383.133c-.112-.007-.225,0-.357-.007" transform="translate(-31.577 -7.297)" fill="#333"/><path d="M46.8,24.028c-.08.029-.157-.032-.225-.119-.019-.024-.039-.059-.065-.065a3.767,3.767,0,0,1-.641-.325,1.673,1.673,0,0,1-.334-.172.32.32,0,0,0-.238-.1c-.036,0-.091.025-.112-.022s-.133-.008-.133-.1A.134.134,0,0,1,45.167,23a.439.439,0,0,0,.211-.167.256.256,0,0,1,.3-.054,1.506,1.506,0,0,1,.5.278,2.814,2.814,0,0,0,.38.278.364.364,0,0,1,.168.2.727.727,0,0,0,.2.293c.046.042.143.084.086.168-.036.054-.115.014-.213.026" transform="translate(-35.5 -8.563)" fill="#333"/></g></g></g></g></svg>