<svg id="Group_63" data-name="Group 63" xmlns="http://www.w3.org/2000/svg" xmlns:xlink="http://www.w3.org/1999/xlink" width="1263.879" height="333.377" viewBox="0 0 1263.879 333.377">
  <defs>
    <clipPath id="clip-path">
      <rect id="Rectangle_33" data-name="Rectangle 33" width="1263.879" height="333.378" fill="none"/>
    </clipPath>
  </defs>
  <g id="Group_62" data-name="Group 62" clip-path="url(#clip-path)">
    <path id="Path_78" data-name="Path 78" d="M317.328,158.665A158.664,158.664,0,1,1,158.666,0,158.664,158.664,0,0,1,317.328,158.665" transform="translate(0.001)"/>
    <text id="FAIR-TRADE" transform="translate(373.23 287.93)" font-size="147" font-family="Reross-Quadratic, Reross"><tspan x="0" y="0" letter-spacing="-0.119em">F</tspan><tspan y="0" letter-spacing="-0.06em">A</tspan><tspan y="0" letter-spacing="-0.059em">IR</tspan><tspan y="0" letter-spacing="-0.159em">-</tspan><tspan y="0" letter-spacing="-0.059em">TRAD</tspan><tspan y="0">E</tspan></text>
    <text id="NFT" transform="translate(368.33 130.677)" font-size="147" font-family="Reross-Quadratic, Reross"><tspan x="0" y="0" letter-spacing="-0.059em">NF</tspan><tspan y="0">T</tspan></text>
    <path id="Path_79" data-name="Path 79" d="M272.743,196.784a63.271,63.271,0,0,1-1.814,6.285c-4.6,11.516-13.467,18.171-25.148,21-13.47,3.257-25.964.829-36.751-8.227a29.649,29.649,0,0,1-10.884-21.764,5.374,5.374,0,0,1,.609-2.655q15.738-34.36,31.464-68.726c1.194-2.608.825-4-2.06-4.327-11.138-1.266-20.05-7.526-29.487-12.645-1.849-1-3.763-1.888-5.6-2.908-1.152-.636-1.693-.423-2.176.848-6.311,16.633-18.08,27.276-35.185,31.989a1.942,1.942,0,0,0-1.721,2.246c.084,4.388.063,8.78.009,13.17a2.457,2.457,0,0,0,1.5,2.548c5.825,3.194,6.824,9.807,2.334,14.7-.532.578-1.447.957-.62,2.037,4.543,5.949,4.132,12.615,2.564,19.355-1.161,5-2.732,9.916-3.837,14.928-1.47,6.664-.5,13.463-.741,20.2-.042,1.206.632,1.363,1.6,1.343,1.684-.037,3.37-.035,5.054,0,3.837.072,6.067,2.209,6.513,5.981.23,1.94-.99,4.548.746,5.654,1.394.89,3.756.249,5.688.3,4.947.139,7.417,2.641,7.456,7.568.016,1.856.053,3.716-.023,5.572a6.479,6.479,0,0,1-5.9,6.467,21.2,21.2,0,0,1-2.771.137q-30.211.01-60.417,0c-6.594,0-8.552-2.216-8.84-8.8-.418-9.509,2.673-11.523,10.961-10.912,2.539.188,3.294-.739,3-3.122a13.868,13.868,0,0,1,.116-3.533,5.867,5.867,0,0,1,5.8-5.3,37.036,37.036,0,0,1,5.052.007c1.83.163,2.135-.6,2.241-2.29.739-11.609-1.124-22.8-4.476-33.9-2.025-6.708-2.179-13.532,2.362-19.592.643-.857.242-1.257-.316-1.888-4.866-5.5-3.944-11.314,2.446-15.119a2,2,0,0,0,1.12-2c-.021-4.557-.051-9.119.019-13.676.019-1.266-.478-1.73-1.635-2.049-17.1-4.711-28.909-15.316-35.236-31.942-.553-1.452-1.127-1.454-2.365-.85-5.3,2.588-10.35,5.635-15.493,8.513-5.846,3.268-11.888,5.974-18.624,6.752a7.673,7.673,0,0,0-2.079.8c-1.7.7-1.872,1.519-1.066,3.231,4.2,8.917,8.241,17.913,12.341,26.879,6.448,14.1,12.866,28.214,19.379,42.286,1.1,2.381.53,4.687.065,6.915-2.6,12.473-10.589,20.44-22.2,24.454-16.118,5.57-30.92,2.929-43.422-9.2a28.051,28.051,0,0,1-8.269-17.237,9.931,9.931,0,0,1,.741-5.63c10.552-22.879,20.991-45.812,31.5-68.712.59-1.289.595-1.919-.778-2.776a11.025,11.025,0,0,1-3.963-15.188c3.11-5.312,9.419-7.043,15.149-4.023a3.536,3.536,0,0,0,3.319.1A53.323,53.323,0,0,0,69.232,94.9c7.363-4.894,14.55-10.078,22.624-13.8a2.508,2.508,0,0,0,1.417-2.165C97.252,57.728,109.53,43.905,130.144,37.6c1.575-.483,2.093-.95,1.552-2.671-1.182-3.772-.081-7.347,1.512-10.766,2.074-4.45,4.95-8.429,7.607-12.529,1.175-1.809,3.4-2.167,4.462-.576,3.816,5.723,8.239,11.145,9.776,18.117a9.494,9.494,0,0,1-.093,5.5c-.722,1.9-.111,2.525,1.735,3a48.259,48.259,0,0,1,21.72,12.352A50.152,50.152,0,0,1,193.3,78.679c.174,1.052.327,1.886,1.442,2.4,8.13,3.788,15.418,8.97,22.833,13.943a54.692,54.692,0,0,0,8.8,4.934,3.9,3.9,0,0,0,3.779-.125,11.115,11.115,0,0,1,10.984,19.323c-1.37.848-1.387,1.473-.79,2.771q15.665,34.117,31.262,68.261c.262.574.316,1.343,1.124,1.528Zm-37.131-.571c-9.76,0-19.52.065-29.281-.053-2.132-.026-2.346.667-1.856,2.439a25.621,25.621,0,0,0,4.745,9.393c8.508,10.524,24.6,14.622,38.43,9.646,9.015-3.243,15.748-8.917,18.594-18.447.88-2.955.834-2.975-2.107-2.978q-14.264,0-28.526,0m-153.139.211a6.355,6.355,0,0,0-1.073-.2c-19.941-.012-39.879.009-59.82-.051-1.919-.007-1.807.9-1.487,2.176a24.86,24.86,0,0,0,6.3,11.349C38.21,222,59.744,223.161,73.2,212.177a24.38,24.38,0,0,0,9.272-15.753m54.633,20.143c0,2.446.1,4.9-.033,7.34-.091,1.707.355,2.432,2.2,2.3,2.179-.158,4.376-.037,6.566-.037,3.656,0,3.635,0,3.663-3.547.035-4.892-.056-9.793.207-14.673.309-5.772,2.46-11.168,3.865-16.712,1-3.939,1.886-7.881,1.38-11.985-.676-5.477-3.849-8.322-9.258-8.322-2.444,0-4.887.06-7.326-.023a3.9,3.9,0,0,0-3.126,1.3,12.052,12.052,0,0,0-3.654,7.575,27.742,27.742,0,0,0,.848,9.026c2.234,9.14,5.786,18.059,4.669,27.766m95.586-84.327-.467-.1a9.312,9.312,0,0,0-.483.832q-12.724,27.817-25.464,55.625c-.732,1.589-.485,1.988,1.259,1.974,7.667-.067,15.337-.086,23,.009,1.9.023,2.19-.764,2.179-2.4-.063-8.357-.028-16.717-.028-25.074V132.24m-178.771-.172c0,19.007.019,37.831-.03,56.652,0,1.772.908,1.835,2.218,1.83,7.5-.028,15-.093,22.5.033,2.367.039,2.388-.606,1.519-2.492Q67.6,160.883,55.18,133.624c-.228-.5-.274-1.175-1.259-1.556m184.889.016-.485.139q0,28.347-.028,56.7c0,1.726.971,1.624,2.114,1.624,7.5-.012,14.993-.077,22.487.037,2.334.035,2.46-.564,1.552-2.52-5.533-11.918-10.966-23.88-16.431-35.831q-4.606-10.069-9.207-20.145m-190.524.088-.511-.042q-12.916,28.256-25.855,56.5c-.827,1.8-.111,1.935,1.4,1.926,7.493-.039,14.991-.086,22.484.028,1.991.03,2.529-.544,2.523-2.536-.077-18.057-.044-36.114-.044-54.169v-1.7m59.978-73.329c-.9.246-1.18,1.017-1.607,1.61a45.235,45.235,0,0,0-1.11,50.636c2.234,3.442,2.23,3.44,5.433.753a11.178,11.178,0,0,1,2-1.533c1.733-.871,1.926-2.039,1.447-3.863a73.429,73.429,0,0,1-.829-35.768c1.11-4.736,1.008-8.1-3.649-10.4a8.614,8.614,0,0,1-1.682-1.438M188.29,87.824c-.035-9.714-2.281-18.045-7.149-25.622-2.332-3.63-2.327-3.628-5.544-.976a11.177,11.177,0,0,1-2,1.533c-1.763.871-1.874,2.074-1.408,3.865a78.875,78.875,0,0,1,1.031,35.3c-.432,2.225-1.881,4.752-1.233,6.552.685,1.9,3.44,2.98,5.061,4.643,1.426,1.459,2.06.855,2.985-.474a45.673,45.673,0,0,0,8.255-24.821M143.319,252.133c9.426,0,18.851.026,28.275-.012,5.877-.021,4.843.72,5.105-5.122.114-2.59-.695-3.266-3.252-3.252-19.351.1-38.7.056-58.057.056-5.47,0-5.368,0-5.479,5.5-.046,2.23.646,2.892,2.862,2.869,10.183-.1,20.366-.046,30.547-.044m8.06-165.582h-.016c0-4.213-.019-8.427.012-12.64.009-1.308-.393-1.721-1.8-1.524A44.912,44.912,0,0,1,137,72.38c-1.449-.2-1.7.307-1.777,1.563a225.511,225.511,0,0,0-.016,25.03c.086,1.577.764,1.761,2.072,1.6a47.4,47.4,0,0,1,12.085.016c1.642.221,2.056-.416,2.037-1.907-.053-4.044-.019-8.088-.019-12.132m5.556-.012h.137c0,3.449.1,6.9-.026,10.35-.181,4.966-.246,4.952,4.246,6.638a26.2,26.2,0,0,1,3.7,1.577c1.287.725,1.754.29,2.046-.973a77.086,77.086,0,0,0-.009-35.285c-.318-1.368-.848-1.487-2.088-.9a42.318,42.318,0,0,1-6.327,2.462c-1.44.418-1.751,1.085-1.719,2.492.1,4.543.039,9.089.039,13.635m-27.264.03c0-4.548-.063-9.1.037-13.642.028-1.389-.235-2.088-1.7-2.511a42.768,42.768,0,0,1-6.323-2.474c-1.212-.574-1.786-.5-2.107.878a76.913,76.913,0,0,0-.019,35.3c.293,1.259.7,1.668,2.037,1.027a38.4,38.4,0,0,1,6.316-2.488c1.607-.444,1.814-1.252,1.784-2.7-.1-4.46-.035-8.924-.028-13.384m64.194.451a32.726,32.726,0,0,1-.676,7.911c-.281,1.449.267,1.909,1.4,2.411,3.923,1.737,7.642,3.867,11.37,5.986,4.6,2.613,9.131,5.368,14.106,7.254,3.768,1.428,3.758,1.442,4.309-2.313a13.6,13.6,0,0,1,.314-1.484,1.3,1.3,0,0,0-.85-1.779c-6.683-2.908-12.373-7.442-18.45-11.344a89.213,89.213,0,0,0-11.523-6.641M61.811,106.274a11.544,11.544,0,0,1,.495,4c-.184,1.419.451,1.568,1.605,1.208a55.78,55.78,0,0,0,10.6-4.685c4.706-2.622,9.382-5.3,14.146-7.816,4.729-2.5,4.764-2.418,4.2-7.86a20.007,20.007,0,0,1-.118-2.529c.03-1.25-.425-1.5-1.491-.883-2.183,1.268-4.4,2.476-6.569,3.77-7.368,4.4-13.995,10-21.9,13.528-.713.318-1.15.678-.973,1.266m81.547,131.832c5.633,0,11.272-.158,16.9.063,3.024.121,2.332-1.74,2.427-3.41.109-1.858.044-3.085-2.541-3.047-10.843.156-21.69.046-32.537.077-4.014.012-3.54-.7-3.719,3.84-.081,2.053.639,2.557,2.571,2.518,5.633-.111,11.268-.039,16.9-.039m-.23-132.241c-1.591.1-3.6.2-5.609.362-.9.07-1.61.3-1.452,1.533.945,7.347,1.991,14.668,5.31,21.413.425.864.813,2.114,1.928,2.114s1.487-1.254,1.93-2.111a48.43,48.43,0,0,0,4.525-15.925c1.124-8.223,2.569-6.771-6.631-7.386m.086-38.73a35.578,35.578,0,0,0,6.041-.4c.811-.16,1.431-.249,1.289-1.363-.941-7.37-1.977-14.717-5.307-21.485-.42-.859-.787-2.1-1.974-2.058-1.145.044-1.494,1.264-1.939,2.128-2.548,4.938-3.57,10.334-4.5,15.732-1.273,7.421-1.215,7.43,6.388,7.447m5.17,77.6c0-2.1-.044-4.209.016-6.311.033-1.113-.379-1.554-1.466-1.35a19.5,19.5,0,0,1-7.256,0c-1.075-.2-1.484.221-1.473,1.34.046,4.292.033,8.583.009,12.875,0,.936.309,1.405,1.305,1.361,2.836-.128,6.267,1.048,8.332-.455,1.658-1.208.339-4.727.532-7.21a2.263,2.263,0,0,0,0-.251m1.333-113.278c-.448-4.557-3.322-8.371-5.842-12.341-.725-1.138-1.1-.116-1.405.355a46.379,46.379,0,0,0-4.859,8.836,8.789,8.789,0,0,0-.311,5.937c.409,1.254,1,1.914,2.574,1.672a29.556,29.556,0,0,1,5.791-.149c3.066.137,4.049-.753,4.053-4.311M143.3,158.282c-2.606,0-5.21-.042-7.814.012-2.334.051-3.809,1.447-3.807,3.47s1.445,3.438,3.814,3.468q7.811.1,15.625,0c2.367-.03,3.814-1.463,3.812-3.475s-1.487-3.414-3.816-3.463c-2.6-.053-5.21-.012-7.814-.012m8.364-29.176a31.885,31.885,0,0,0,11.379-13.916c1.986-4.346,2.8-3.551-2.207-5.753-4.36-1.914-4.462-1.877-5.152,2.766a92.114,92.114,0,0,1-4.021,16.9m-16.694.046a86.125,86.125,0,0,1-4.374-19.822c-.144-1.373-.859-1.473-1.9-1.045-1.861.769-3.707,1.573-5.563,2.348-.771.325-1.333.722-.913,1.7,2.745,6.415,6.213,12.287,12.745,16.819M134.5,44.475c-6.009,3.942-9.486,9.709-12.215,16.048-.381.887-.2,1.445.669,1.8,2.014.839,4.03,1.668,6.041,2.511.908.381,1.445.172,1.556-.876A102.625,102.625,0,0,1,134.5,44.475m17.079-.595A85.571,85.571,0,0,1,155.734,61.1c.674,4.351.755,4.413,4.824,2.618,5.375-2.374,4.513-1.442,2.4-6.06A31.615,31.615,0,0,0,151.583,43.88M51.152,115.035a5.509,5.509,0,0,0,5.493-5.393,5.631,5.631,0,0,0-5.414-5.549,5.484,5.484,0,0,0-5.554,5.6,5.315,5.315,0,0,0,5.475,5.347m189.776-5.37a5.487,5.487,0,0,0-5.324-5.575,5.635,5.635,0,0,0-5.644,5.57,5.52,5.52,0,0,0,5.519,5.375,5.317,5.317,0,0,0,5.449-5.37m-78.1,17.207a37.132,37.132,0,0,0,11.212-7.4c1.229-1.143-.086-1.714-.685-2.09-1.291-.811-1.921-2.808-3.949-2.313-.109.028-.184.269-.246.423a67.382,67.382,0,0,1-6.332,11.377m-38.453.446a86.81,86.81,0,0,1-5.633-8.859c-.7-1.245-.525-3.686-2.392-3.452-1.331.167-2.478,1.861-3.7,2.887-.481.4-.862.845-.223,1.442a41.8,41.8,0,0,0,11.946,7.981m38.734-80.892c1.552,2.734,3.282,5.3,4.659,8.09,2.265,4.583,2.33,4.576,5.914.883a4.687,4.687,0,0,1,.365-.348c.611-.509.481-.969-.051-1.452a35.9,35.9,0,0,0-10.887-7.173m-39.573-.007a35.48,35.48,0,0,0-11,7.254c-.6.553-.451,1,.088,1.445,1.375,1.143,2.75,2.286,4.306,3.577a74.129,74.129,0,0,1,6.6-12.276" transform="translate(18.386 13.295)" fill="#fff"/>
    <path id="Path_80" data-name="Path 80" d="M510.259,65.713c.46-.8.911-1.612,1.389-2.406q10.825-17.989,21.662-35.972,6.658-11.045,13.321-22.085a1.493,1.493,0,0,1,.318-.295c.014.207.042.416.042.622q0,21.469,0,42.938c0,.2-.014.39-.026.583q-1.962.888-3.93,1.772-9.121,4.143-18.245,8.29Q518.549,62,512.319,64.839c-.681.307-1.373.583-2.06.873" transform="translate(674.946 6.553)" fill="#939393"/>
    <path id="Path_81" data-name="Path 81" d="M526.076,49.235c.009-.2.023-.39.023-.583q0-21.469,0-42.938c0-.209-.028-.416-.044-.625.007-.056.016-.109.032-.237a1.555,1.555,0,0,1,.142.151q3.09,5.136,6.178,10.271,2,3.324,4.014,6.645,3.975,6.592,7.948,13.189,4.087,6.784,8.172,13.57,3.972,6.592,7.946,13.186,1.205,2,2.4,4a.3.3,0,0,1,.03.121c0,.009-.047.019-.07.028a6.716,6.716,0,0,0-.641-.388c-.843-.39-1.693-.762-2.539-1.145q-3.188-1.456-6.376-2.915-4.195-1.9-8.39-3.8c-2.156-.98-4.3-1.97-6.457-2.95q-4.847-2.205-9.7-4.4c-.871-.395-1.756-.76-2.634-1.138l-.039-.035" transform="translate(695.84 6.418)" fill="#3b3b3b"/>
    <path id="Path_82" data-name="Path 82" d="M510.286,40.574c.687-.29,1.38-.567,2.06-.873q6.233-2.836,12.473-5.679,9.118-4.15,18.245-8.29,1.965-.888,3.93-1.772l.042.035c0,.1-.007.209-.007.316V62.452c-.725-.411-1.456-.811-2.176-1.236Q527.7,51.081,510.564,40.927c-.109-.063-.448-.039-.279-.353" transform="translate(674.919 31.692)" fill="#414141"/>
    <path id="Path_83" data-name="Path 83" d="M526.078,62.432V24.29c0-.107,0-.211.007-.316.878.379,1.763.746,2.634,1.138q4.85,2.195,9.695,4.4c2.156.98,4.3,1.972,6.46,2.952q4.191,1.9,8.39,3.8c2.128.966,4.248,1.944,6.376,2.913.845.386,1.7.755,2.539,1.145a6.279,6.279,0,0,1,.641.39c-1.182.713-2.362,1.431-3.549,2.137q-2.864,1.7-5.735,3.387-4.306,2.533-8.615,5.061-4.17,2.46-8.334,4.931c-2.483,1.473-4.957,2.959-7.442,4.429-1.015.6-2.044,1.182-3.066,1.772" transform="translate(695.87 31.712)" fill="#141414"/>
    <path id="Path_84" data-name="Path 84" d="M546.979,85.941c-.653-.894-1.315-1.779-1.956-2.68Q533.184,66.582,521.352,49.9q-5.338-7.526-10.671-15.051c-.121-.172-.244-.341-.441-.62.242.107.383.153.511.228q12.951,7.655,25.9,15.314,4.937,2.92,9.874,5.835c.167.1.346.177.52.265-.009.209-.025.418-.025.627q0,14.435,0,28.865c0,.2-.026.388-.039.581" transform="translate(674.921 45.274)" fill="#939393"/>
    <path id="Path_85" data-name="Path 85" d="M526.057,85.881c.014-.193.039-.386.039-.581q0-14.431,0-28.865c0-.209.016-.418.026-.627l24-14.173q6.1-3.6,12.192-7.2a1.064,1.064,0,0,1,.455-.16c-.058.1-.109.209-.177.307q-4.627,6.5-9.254,13-5.153,7.261-10.287,14.533Q538.528,68.5,534,74.874l-6.216,8.759c-.527.743-1.059,1.484-1.586,2.228-.037.021-.074.039-.109.058a.035.035,0,0,1-.028-.037" transform="translate(695.843 45.333)" fill="#444443"/>
    <path id="Path_86" data-name="Path 86" d="M323.042,27.452H749.371L765.8,8.968H323.042Z" transform="translate(427.304 11.862)" fill="#c8c8c8"/>
    <path id="Path_87" data-name="Path 87" d="M323.042,39.831h414l12.325-18.484H323.042Z" transform="translate(427.304 28.236)" fill="#959595"/>
    <path id="Path_88" data-name="Path 88" d="M323.042,52.21H749.371L737.047,33.725h-414Z" transform="translate(427.304 44.61)" fill="#666"/>
    <path id="Path_89" data-name="Path 89" d="M323.042,64.589h440.7L751.424,46.1H323.042Z" transform="translate(427.304 60.984)" fill="#141414"/>
  </g>
</svg>
